<mxfile host="Electron" modified="2024-02-14T10:37:41.541Z" agent="Mozilla/5.0 (Windows NT 10.0; Win64; x64) AppleWebKit/537.36 (KHTML, like Gecko) draw.io/21.2.8 Chrome/112.0.5615.165 Electron/24.2.0 Safari/537.36" etag="p8eCE3fug_7jfvtKU89y" version="21.2.8" type="device">
  <diagram name="Page-1" id="2XWkQP5S-hDbL94sL5Vg">
    <mxGraphModel dx="2058" dy="1180" grid="1" gridSize="10" guides="1" tooltips="1" connect="1" arrows="1" fold="1" page="1" pageScale="1" pageWidth="3300" pageHeight="4681" background="#999999" math="0" shadow="0">
      <root>
        <mxCell id="0" />
        <mxCell id="1" parent="0" />
        <mxCell id="APLwThIm-aDqV8bCMrbt-1" value="Keys Attached Property" style="rounded=0;whiteSpace=wrap;html=1;fontSize=25;fillColor=#dae8fc;strokeColor=#6c8ebf;" parent="1" vertex="1">
          <mxGeometry x="1380" y="180" width="680" height="60" as="geometry" />
        </mxCell>
        <mxCell id="UQf0CxN8mwpW15ixogrS-4" value="" style="shape=image;verticalLabelPosition=bottom;labelBackgroundColor=default;verticalAlign=top;aspect=fixed;imageAspect=0;image=data:image/png,iVBORw0KGgoAAAANSUhEUgAAAqoAAAFxCAYAAAC7lIobAAAAAXNSR0IArs4c6QAAAARnQU1BAACxjwv8YQUAAAAJcEhZcwAADsMAAA7DAcdvqGQAADv8SURBVHhe7d1dbBvdfefxf5Jm0QBPgWSfC43sTpAUDRbbiyX5PPITAt1m22SDiBbsBQUk6PblQrIlF+ZF2130oqglrygXvSiwd/LWkm1dbBdYIIAEyLCpoNumSBCA2Ec2yasWSNoEYWyN0AZ4GrTbAkWRPefMUHybGZLDFx1S30+gPCKt4bwd8vx45pwzH7r23md/LAAAAIBlPhz8FwAAALAKQRUAAABWIqgCAADASgRVAAAAWImgCgAAACsRVAEAAGAlgioAAACsRFAFAACAlQiqAAAAsBJBFQAAAFYiqAIAAMBKBFUAAABYiaAKAAAAKxFUAQAAYCWCKgAAAKxEUAUAAICVCKoAAACwEkEVAAAAViKoAgAAwEoEVQAAAFiJoAoAAAArEVQBAABgJYIqAAAArERQBQAAgJUIqgAAALASQRUAAABWIqgCAADASgRVAAAAWImgCgAAACsRVAEAAGAlgioAAACsRFAFAACAlQiqAAAAsBJBFQAAAFYiqAIAAMBKBFUAAABYiaAKAAAAKxFUAQAAYCWCqvb2l+TLv/HHcu3t4DEAAAAu3IeuvffZHwe/T7W33/tjWX7nk8GjCN/9fdn72teCBy3eviNf/vIvyPe++mvy/g+D52aWK9nCbbmVckRq+7K2Uw6eBwAAsMvMBNVOP/ulb8gvSUQw7XSJgqqb35LN3Jk82X4o5XrwJAAAgIW49H/JXL2iW1JfEVIBAID1LnWLqvmbTwcPIn1fqlEtrW/fkS9+8VflUx8PHmsffEuqL5/K+9/+dvCE9hm59stPJK3/7oP/JQd//Sn5/Ds/L+bhd39fvvq1v1bbcl9ti9914YNXt+Sr/7d1+dHJFh7JLeGSPwAAsB+X/rUkl/4/8wfy5S/8vOn3+mcnX5MfBsu9/Zk78vkv/Kp5/qsd6272ow3Cr+j1qr/9QFRo/ZZ8/U9+V74TPPfBn35O/mQMWZWgCgAApgWX/hP5knxRh1Td8qnCaCOkaj/89iP56h/9vnzw6d+TL34meLJNSwvtDx9J5bsqpH5cPadDavDc93Rw/UTowgAAAJcGQTWBt9/7dfmUfEv+LPLy/Nfk1avvy6fevSNdM1598M3uVtvv/s+ZH8QFAAAwKIJqAp/4xCdVuPxzicuWP/yrb8oHH/8F+Rmb5mZ1s/JuSsR78zp4AgAAwF4E1aQ+/Xuy9hvfiP758q+awVLWyN6VvY0VSXvHsnvIkH8AAGA/gmpS+uYBf/S5Hj8Wzctafihr2/tSdRZlPe8GTwIAANiLoJrAd/76WyKf/sXu/qe2q5flZU3EuXI1eAIAAMBeBFXth9+TD+ST8vF/HTzu0jEC/9u/K9UPfl4+/17MyHw95dVv/LFcm7o0CwAAYAeCqvE1+e53RT71hT+Qn20Jlm+//SW59qU/VoHziXy5I5S+/79/Xz74GfX8l+6oZVr+Tf3+s+/9gT8/KqP5AQAAEpuZCf+bk+nH0P1K4+5UpV4jo17jfBDUB9+X7/31N+W7f/XIn+M0hA6lmZ/5efn4+ULflw+++02pnLQu03JnqsD3ggn9m3fHas6veu2XvxH87bfk63+kbwIwOkz4DwAApsXM3pkK4QiqAABgWnDp/5J5/cYTSeVkmYH/AADAcgTVS6Z++Fie1ERyG49kr5ANngUAALAPl/4BAABgJVpUAQAAYCWCKgAAAKxEUAUAAICVCKoAAACwEkEVAAAAViKoAgAAwEoEVQAAAFiJoApMCzcv27vcqAEAcHkQVAEAAGAl7kyFEclKYXdF0ub3mjxZfyhl8zvCuNm7sr6aEid4bHieeGcl2diJOHK6RXVjUZzavqxF/c251vMRGOtysIabVeUkJ5Xt+3JQD54DgClFUMVoqQC2tyoE1Rhufks2cyLVp49lpzyZJJEtPJJbMnjgTLocLpD5QpMmqAKYCVz6BybsWsYRrzS5kAoAwLQiqAIAAMBKXPqfIq6blWs335HMXEqcRudGz5PSi8dyENI6Zy7bpvRvfp9Ryd+VpVyzX6RX25fdnbLEteu52bzcvJ6W9PkK9SprUnnxSuZXV0Se3pG2q8Lnl/6fiRRuq/Wfr02quhXxML4VMau3MdOyf2a5klou/NJzcx+1Zt9Y8zrBvnq1Y7WfhyH76arlb8uS2sbzrYzbtyH4l/ubxzBUaF/Q0fQZneSl/2xhKzjv6tw9vT+yY6i1Hkev9EA2TkSWb96W3Hk588/h8z1VDiKK2qDvI22ocubmpbC2qN5DwWNNbWPpxbORvm/btzGK2k+6BACYIgTVaWECYMpUhs+PTlQl7Nc0elDOpnq+GhWqzHJzqh5W1dyZqkiPVEWqF1WVdWFNBaCz6BDiBw6R0tPWCtxViy6o8OpXvF3rPV+fqhJVxX9+ebvn+lxZLt6TjPr3zko4q8LJrUxVipthYTPQEpCvmNdp7mt42HJVALwnae9YnuwdNkONq7YjCD6Rx3RIy8VHkqmokNUjtIdJEhy1iS3XGPAVPBzXQCz/GB6Ll/MHl+0eqTITHE5/oJoqg2Eh2ZSTBO+jhkHLmfr7bfW6+ji0b2NebeOieT508JxZT7L3LX1UAcwSLv1Pi/JDWVu/oyo1HaqatU9dPf+kJpK+ng+eCaMqOx2MdGtPY9F6WXb2VEWfWpHQaTlVRXkrdaYqZFXZtbX61NWih7KzuS/V4Jluen0dfTDP15eTZTd4rkW2cE9yqvLVlXZn3Vo+vC/FSlo2e84fOidLxdt+CGzZ1/KR2tY3/u/nsjckrVuXWkOqphY62CnF7Bti1Q/leU19SzE8qb6MS33DcXRI1a2qusy0FbWHsrFdFWf1rnSVmKHeRw39ljMVKnVIDd3GQ9lY349+/xkJ3rcAMGMIqjOg/FLVsM58d6V8ribPw1rv6qcqSuhFO5OjK8vXU+KVnsWM3FcVpqrwwxt14tbnyPzV4HGDm5ellAqNR9Frqx+q8BgRcpsc04rb1VKpK/fOrgPlV1L1HMksuLoRtUPcvqGX8s59EwbX1JecsR5D71h2o1qlTWBOyVI+tsC06f0+auivnLn5nPoyVIveRlXOjkqeCcfhWzno+xYAZg9BFd3cBck4nlROoirY4XRWsO5CWhyv2uMyZVlOg2AZrSYv25pH46hQsflAnl+5Lesbj2RP3/FJ/WwXt6SQp6lqKpydRncFUV6/UV+LMgvBo1Hqr5xdveKoP30Vu431k6p4TlqukTkBIBRBdYrogRvbxWao8n+2ZPt6zxEUCFU3rX8bpvXP/9nYfCwvr+RkrxjVygVbeG9eB78NZqLvo9RKx3o6flr78wIAuhBUp4IeaPRIbmVEKi8eSLElWK2tP5bdSi34OwzPD68lWeyjTywuknOlsw9JLxfwPtKDydrWE/bDoCcAiEJQnQJu/rbknJo82XxoBja112nq8Wnw66jUT0xf0vjL7KPTuPwZ3/80K/Nj7I7Q6f2KJzI3HzyCldT5iSsy+tK7VzkJHk3+fWT6vKbeoWUeAIZAUJ0W3qmEj0vxBz6NVt0M8nByNyQbU8vq6av0JfKhmYEvjuRuRrdgZgsrkq6VRtbypFvWtmMG2pj+hWfxycXsv7mEq/u1Ekca2o7LOBulnUVZjzruZoBeyGCkSb6Pyg+l5KWit1HTU0mp4xT/JW1AUYMWz1FWAUwPguoU8FscF1WwyrZUMa7f1273nmTMGODRqh/elye1lNzaUJVoW1rV86iqylVfQp07M3OQjkJ554GU5lZku5DvGIWvJ+XfUus6luKIh5A7uXtqfeqYdtTbZt5WFXKexK3PBKFG70JH0mMZtDOFOo/Lu+NLql5pXyqZ7nOo50TV84h6T/1J+Rsu4n10sLkvntnGvPrS17qRwXo39Fyqo/sC5iuLbsxN6+m52laZlWX1XtL7GvclDQBswoT/00IFgM672/iTlh9K+ao/iblxPsG67o93T9puhnT+b4qZULylBck7lrXN7tBpJia/vthypyj1p+buTZ131Ym/g1L3nZmad/dppSvvvu9MpVujeg5GCV9PY9L93VN984LWO2956rhWmxOsx/BviKCX633XLTMZfI8GO3OnpbbXCDmmoTr3cdLLtWs7LiO+M1VD4/xtqCIbdnexyDtTDfw+UoYoZw1h5VqXM7Petu0czftW01+4ltQLNVepzkelKi9POtcJAPYiqAKYOs2gSuICgFnGpX8AAABYiaAKAAAAKxFUAQAAYCX6qAKYGt2D8nzdA9EAALOAoAoAAAArcekfAAAAViKoAgAAwEoEVQAAAFiJoAoAAAArEVQBAABgJYIqAAAArERQBQAAgJWYR3VKudm7sr6akrapzz1PvLOSbOyUgycwFm5WtjdyUtm+LwfMMQ8AwNgQVKeQf3cekerTx7JTJilNnJtXQTVNUAUAYMy49D+FrmUc8UqEVAAAMNsIqgAAALASl/6nhH+5v61HarfavqxF9E/N5u/KUiYlzvlLeFItlWTnML4/q5vNy83raUk3FxTPq0nlxSuZX10ReXpH/FVmpbC7ImnzFzV5sv5Qzl85e1f2VlPBA7V86YFsHIa1BruSLdyWpZRz3vc2fF3hsoUtuaWWNfv29H7s3yaRLTxSrx88iORJKaRLQPuyzeNjzkvO72vs1Y5ld+dQ/EVHcDzdvBTWFtW5Cx5r6niWXjyTA1rjAQBTgKA6hZaLjyRTiQp7nVz19/ckc7avQlA5CEG+rAq/tzJVKW42wlE7P/iJlJ4+bgk2rgqvCyq8+gGo2hkeTYiS9mB1zg9fTmiwctW/3ZO0dyxP9g6luTq1/TdvS04F0K51tTL9Rhebg8tiQvvQhumjen58nskVc15UOD1Sx1+9jgmz0rHdSY+nWm5bh1l1HHaP1HkP/ll/8VhfXTTPM+gOAGA7Lv3PuGzhnuRUSNWhpDNTlQ/vS7GSls1CNnimhQo6t1JnKiCpMNbW+laXevlQdjb3pRo8MxLZG5LWrZGtIVVTCetgp9R7XfVDeV7zggeeVF/aHMLmZKl42/+yoVtQg/0tH6lj+sb/fTgqwOqQqgOsPu8tx1Ofu431ffFSKxJ22gEAsAlBdZa5eVlKqfB3FB3a6ocqBKZysuwGTxiuLF9PiVd6FtKK11CWnfX4S/EDKb+SqudIZsHVjagd+ltXeee+rKm/W1Ph2u7GQke8F4+7W0Hraj97dMXoh5vPqdBfk93IFveyHJU8SV/PqzMNAIC9CKozzF1Ii+NVe1yeLstpEBDPuQuScTypnMQuOGIqpG0+kOdXbsv6xiPZ2/V/totbUsjPWtNfTV6OsY/o1SuOWsWr0O4cDfWTqnhOWq6RVAEAFiOowiJ10yq6YVpF/Z+Nzcfy8kpO9oq0/g0ktXIe9kN/WvvzAgBgKYIqLOeH15IshvelRTg9mKwl8If/cMMCAIDdCKozrHF5t73/aaeszHde5q+fiCcd3QEu2PsVT2RuPniEOOWXNZHUO7RAAwCmHkF1lpmR8I7kbka3RGYLK5KulTpa1upmsI2TuyHZmLSjp6/Sl+T7ln0n8nKznnJrOx+9MtPv8uw0eBTObI+5tL013hHt9VMT5OevBo+7TCgiRh3P8kMpeSlZjzmeZootdZziv8QAAHCxCKozrrzzQEpzK7JdyHeMpteT62/JrbljKYYMka8f3pcntZTc2lBhpi2t6nlUVchRwfLW3JmZ87RN+ZkJSUttIclf1/b1ueBxOCd3T21ntmvUv5nvNVWTJ3FD+c0MB43Y5kj63XEm1bLoRsv06t22IO+6WVnW+7mr9iMuJA4i4fE82NwXL6OPZ15tY9tGmpsM6DlnpesLCgAAdmHC/ynRz12Rou/4pMNe8jtTrV9fbFlOLWnuFhVzdyMV2AprK807InmelF7omwZcbd5tyTuWtc1myG3cxGD3VN9MoPVOWJ54ter5pPhxTPAe452pOukAvZRr3kVL72e1UpWXJx1zwXbejCBUx92nWiU4ng1h510fz+fqeI5x4gEAAEaCoAoAAAArcekfAAAAViKoAgAAwEoEVQAAAFiJoAoAAAArEVQBAABgJYIqAAAArERQBQAAgJUIqgAAALASQRUAAABWIqgCAADASgRVAAAAWImgCgAAACsRVAHYx83L9u4j2dM/xXzwpJ3c/JbZRjd4fOm4WXWutmR5wAOQLahzW8gGjwAg3IeuvffZHwe/w1LLxUeSc4IHAa/0QDYO6+Z3XVFutv5BbV/WdsrBA4yOq87Fva5z0eSJVyvJrjr2/pnBsEzZzlRlbfMweMYyOlBvLIq0vB8vHXMM0lLZvi8HgxyC7F3ZW01J9ekdmf2PK1cF89tyK6U+PPh8BgZCi+oUONi8I2vbxzoGSWlb/b5+p61SrB/el+LTmvot+Hc+BMekHnouzn+2H0tFcrJZvCu0E10O2ZuL4khNdi9rSB1G+ZmUPJH09TG3mGd16/yWFPIX96508zqknskTPp+BgRFUZ4Bpdbou6kNwwBYNjFZdBdmd+/LkLCVL+Ut7IfjycPOylNJXN57Rgp6Ier+8UF+wnUUZaw+A8qFsqC+Rp1dysqe/RF7AW/PqFd2S+krKFBRgYFz6nxahl9f05aR7cmvuWIqbh9GVpVq2sLYo6dZL1l5NSi+eyUHIJ2d7VwPdctgRgINLdg2t3RB8/mWupZQjjZfx1PoqL17J/OqKyBgu9WXzd2UpkxKnZburpZLsHHavSPeNu2U2vyZP1h+K6GVzalnzr/rQ7Mdfvu9xqTPscnVznZq/Xr1lZruDdXu1Y7XekPM44PlrSnoeEi6XdDtdV5Zv3pacviwaaBwL6ePSf7aw5V9S1ef86f2JXUb2u9xI9/uj0wDHpasbj9Z6qbjjvWd4x+3HZ8DzkPT90F6mo4R8frTJSmF3RdITuhzuquO3ro9fr/f4iJljJVzyB5IgqE6LrnDk95fMnO3LRtyHn/pg3m58MB+pD+bgk9nN5tUH9qJ5Pmz53h+srqpg7oWEFv/5tKo8n+wdNlsQWsLIaPukNY9DZ8WTVZX+LRVyQkO8qfDnVABT1fGZCkVH6m/0H7mq4lxTFad6vch97zoX7WL7VZr1igoEz+SK2e7mukOPecLzp49LsvOQcLmk2xkcS6/tS0WjP58KgTWR3FxMUDXL68vvAbWeyYQBv9zlpMeXxHG9/4JyVFTBsm3dSc+Deb3xvB968QNv88tbuCDQBo96i3u9ZvmqPn2synKCjR4QQRVIjkv/00hXHipMZCoPIkJKg/o7XWnpFk/1d41KS6vry2Hr++KlVkIvu5WPjtW/5aJH8mZvqEqjJqoubGee96TUGnI0tfKDnZJUg4ejoluUc0FY76xuyrrvbiUtm5HXFVWlbI5hUClr9bLs7Ol9Dz8uvblyLeOIVzkJHoeZk6Xi7eD8NdddPtqX6hv/d1/y85f4PCRaLul2qlCsQqanW0HbWr7rUt7R/a7P2lpZQ9UP5XnNCx54Un05oSDgLog6zSrUnUaH1GHefy9VQk+9o14h3PL1VEiXgyHKizGO90Nvr9/o85eSd2NfX21Ha3/wnj9xodcvX2vbqjRfv3dh3QEA9IegOm2u6tYL3bKgh/NcDZ4M5+ZzJkxGD/Qoy1HJM4MZuj6nTQBwJHczvPYIryiV8iupeo5kFlzdCNfBr2xUHToaru4jqEJVV1puqh+qcBUZuGvyPOzY1E/VsVXV9vyAtZf6ArFcuG1a2eIH16gg++Jx9yhxHQpaAttQ5y/peUiwXNLt1ANMdMttVHmolx+awTa9mNBhwsnkLvvL1XnTiuu9ee0/DjHc+dMDjSL6Oqtyn3E8qZy0v+5Q6zNG/H7oU/30zPx3XK8fSX3G7WzekScVkaWNix1sBSAaQXWqqOC4Oi/Pt+9I8WlVnNxK7PyNjQ78UdWWVj+piuek5VrIi/itqiGtOtm7knMiKjUdZjYfyPMrt2V9I5gHU/1sF0dfEbgLaXG8ao/LjWU5DYLXaKlz0bJ/5mcjJ/NvSuYydewmqUDwso/LjcOdv6TnYfDlkm6nXi6+5Vnk/UofSdVSw52/utl3J7PQ9f42Mw3USl3lftj3+2VVPnwoG9u9P08TU19g303Ff6kBEI0+qtMitB9YVgrF6P5jft+v4EEsL3LAgx5YZS5Rt4TSZP2tgn5hcxF9RhOI7QvaImwfGn38wvuxqeO6uyKOvoQaFsaH6ZMXu952ozh/3ZKeh+jlkm5n6Hnp0O85njhzHvVVhejtH/78+eWwvR942HO+odZ3Ue8HrY9j2diG0fRRbecPaJzr6Cc9IsG+6QFvo/rcAy4bguq0iKoMzPO6n19ExTVwoOzQWYENWSmZGQXiBmYM4FIE1WHPX4Sk5yFsuaTbqZdbehMXTvo/xxPXR7gaxfnrfI3G8QgLPUOt76LeD1ofx3Is1Hab2RF0qN1T+z2uVesxBRsxxw9ALC79TzvTlzR80uzGgIyhLmWZfoLNvnJRlx37ZS7lzs0Hj4bTuIwZf+vGrMyH9OebBiM5fxGSnoew5ZJupx5Eoy9tx9ED06z0Oui3eSW6n/gozl/7oMbmQL2w0jzO8jJO7vyc+a93Oqn3qL46sCV7KlzLiwfqS9AYQ6pWL4s+NXFlBUA0guoMMJVZ2KTZQchcj5t8XreG9LhPt56U28ndkGzQ1ypuZLVucduOWZ/pR3d2GjwKZyoR0zdS94uM2bAeA760bGFF0kME6ws1xPlLeh4SLZdwO+uHj6UaM9m7nvMy+na1TW3lJa777SjVT0Rndh3aI/d6FO8/VcYrjT7W2RsxfcOVEb3fB2YGWzkyH5nD4ldmypTpt+0/HiddprZ378mSlKRoBt9N4wcDcLkQVGdBo1U1ZH6Xg8198TL3ZLuQV0GzpcJQv+u+WeY+5b2CXGME8loudpR2g5PT68t2jRo385rq+RLjXkBVpHqieZ8j6R4tbuWdB1KaWzH7174+v9XE3AxhiEuvF22Y85f0PCRZLtl21mVn+1ic1c6BWv6521ydk9L51FMROstL/BxHI+QPdpIeA5NG8f5rfFEs6G+JtVexXUZG8n4fmN9imF5tn+bJNbNgbJlgGP3lx//y22u/hqb2X2+LvoOfHowaNp0dADvRR3UKmH6BHS1LXf25gn5ehgqTnX36dCXVeecmr1aV50cd82VGCV6/12T9elt1f9Dd0wW5eT0t6fMV+us7n0g8hgmYJnzou0s9lp0++nWF7V/4namCidpbj2frJPGtx1FrO5Yhy56LGbyhW7FUQAhd7FzM8sqg5y/peRj2/CUqZzpEhN2ZSi0jCypcBAc8qg9jW3mZ4J2pGufVzFvao4wO9/4LbsKglul30Fz/6xvm/dBOf5FZUi/UXKU6H5WqvDyJ2cc+P1eG4apjsT6uwVJ9GkV/ZeCyIqiiP6ZCCbkTDnCJmQCSqvG+SCQIyRIdfmcFQRVIjkv/6IOqUKIm+AcuMdM/XHr0C0U40+dWpPpitkOqZu6+FXenPwCRCKrordcgDuCyqh/Kbil8Yn7Ey5o+t/uT66pxgfTAwSc18W8SMrERf8Bs4NI/etKXrXrNdwkAADBqBFV08fvdBQ86THxSbgAAcGkRVAEAAGAl+qgCAADASgRVAAAAWImgCgAAACsRVAEAAGAlgioAAACsRFCFffQ91HeZGBsAgMuOoAoAAAArMY8q7KNbVDcWxanty9qA91d0s3dlfTUlTvDY8DzxzkqyMeZ7Nbr5LdnMVKW4eSiX8pYIbladt5xUtu/LwZgPQOtNKapP71yK23DOnAmWF4zXQJ+7Cc+7ec/L4HUCph9BFTPDBMWcDi6PVXCZcM0XhGu5zHfuMscgPcHgkZXC7ooIQfXCZfN3ZSnXElS8mpRePJODuPfhhMrLcvGR5NoSVPsd9vzPjZY/SPAF+SLF3UlwEl/iBv7cTXreVRjeU2H4Yr6Yuuo431bHWZWTKSsfs4BL/5gZ1zKOqoAuIKQq2ZuLqpKuyS63l8Wlor4sqCB4K3Mqz7fvyNq6/1N8cSqZ1XuybUE/84NNtU3bx+Kp/5WCbWz9Mlk/vC/FpzX1W/DvUxZCyjvN417y/BDeeDyJXZnY5275mdm/9PV88MTkuHkdUs/kyRSWj1lAUAWG5eZlKaUriGeX85I/LilXlosrkj7bl7XNQ2nNKfXyoWys74uXWrF+UKRpEbwuKoTQBcFudTl4ob5QOIsy6SJ19YpuSX3VVsYxOVz6hyX8y7jp4JHRxyWWrst2YcZ8qaZx6avUq6JTgbawtijp1s2NuEQaul+t+xFcBmvjHZvAcG6A9WnNS4g1ebL+UKTjcq6n1r+r1t+5ZNylxybdWjXqIBB26b+zHPn70nb2Bzwu7ZeOQ/aj41y0XlaeaWa/RYrq+Ebubchl3gspLyHboZ5U23JPbs0dx/crn6LyotedqQz4egPun5bkc3c05z14f4/5M72T2Xb6x14YgiqslOSDIdGH9NB0q9I9yUmPyk5VTtu6ctJh70iFveAP3Wxe1lcXzfNhg716HoeosJBwff7rzYnnqUro7Fgtq/ZJL+uqCmItaD2L2pbQMDBOYUFVb8ZdWb/yKnL/xnIeVDko7N4bQX/ZzqDdSyOIJ10uuX7fb/rYLb0J+btJlpeudfnv24wqz6HlpMH68tJu4M/ApJ8TLQZe55Dn3Rzb1PDldxC9zyfGiUv/wDDcBcnohoWz0+iQqkOErgx0y4n6oGtUBlrrJdKwy1nllzWR1DvqFcItX0+FdDlIvj6f2iFd8ewEIVWrl2Vn77jHchdPt/Ssy7OIynWI83Ck9z0ny27wRKfsDRUSa6Lq+iGp4xz0L+zvp1FZJ10uqazMO55UTtpLXpjXbzxxMgvBIwvoL10qJJpwFRs8pqG8DGPYz4mLocuT+lCUdy3+HMJoEVSBYVydN5fGvTev/cch3HzOVErRA63KclTyzCCBrnrNDCBIyVI+pMZz8yokd4eFodZn1OR52LL1U9FVhDMfVfterGxBh9THkS07Qx2X+qE8rzmSuxleO4Z/YZhhrl/up85V3ZqnW5710KqrwZPhZr28DP85cTHqp2fmv7Z+DmH0CKrAmDU64sdVSvWTqnhOWq5113jyfsVvker8JzPTQK3UdflsuPVNI30Zd0uW3kSHVG3Y4+K3koW0bmfvSs6JCPewiAqOq/NmdoLi06o4uRXZK0aHsFkvL5fvcyIhNyvvpuIbIzBe9FGFlZL0CbqQPqqq0tEDI+IGRPh9qoIHsaIGEuhLleGDhsL6uA21PrM/EtH/y1+nE7WvF9RH1e+X2WsQxpDHJRBWxkbbf611n/pxQX1UBzjXZuDNlVL38ZlkeQldlzpmjVkLQs7ddJSXdnGfgeY8ZKrnAy5HsX/apPuo9vOZOzLBuvRA1Ut7IxcLEFRhpSQf5lYH1SErps7XaFQ6YR+eQ61vCoOq2Z6TBdlem5fnm9HhaxTnoev4THyf7dHf+y0YtBT2dxceVBXz/KJ4UV/4pqy8DBxUh90/ZaaDqqb7NG/EfO5h7Lj0DwzjddBv80p0f7fGgKhhrp61D85w/Um2Kyeh3/BHsb5p4p2qo1A/lI0XIrd276r4Gm4kx6X8sK3PcFT3i8tAz2kZ1iWlTfaG5PocdHUhTF/S8EnkZ728TOvnhDs/Z/5r3veTUC+LPlRxn/EYL4IqMIz6iVR0Up2bj/7ADyqr9bABUQ26lWF3K3qUsKpQK54jmQX1B6byj+njNor1JWEGWzkyH/l5Hr8yPRhqb/eR+tmSQty2R1H7XSzNya2ofocjOi4moOVuSDbou1Z9OVyL1NRSx/PJ2aJsRg0L1y1RpuXrcXgwu+jyEjBfAsMmkZ/18jKlnxOmb63U5LK+7S4jgiowFH+wk/QYcHCwuS9eRt9SMq8qrJY/VL/r+6Try4/So6WlUeEVdG1XexXbv3AU6xuc3/KQXr2r1hk8pbiqgl5WoWJ7V21PVKWoKsQlfR9tw5F0wumMzO0wK2lZjwhPIzkujZkY1nKS9o5HOg/mtCnvPJDS3EpwPIMnFTerj+WKOHoezsjLpRdfXoxGq2rIfEezXl6m7nNC/LDf6/MPs4U+qrCA39ew90CQ7gEgpp+V/uCKMfa+TLrVQX+g97Ee/eG/lEmJ06hjxROvVpXnR+23oAznTxKeVsv0GjjU0P/6ghsXnP+dokLGef+1oF/Yuc67YLXI5rdkSb1Qc5WeVCtVeXkSv4+6heyWCR/q7/W9w2OOZet5r7b2LwzORXM3wgcNDXcelOB4tK37EjPHs+UuZvqcl148jryzUatxlxfdh7LzJkpdnwmt5TukbNtcXvr5DDwX8b4ddP9G8bmb6Lxf0PtuVP15kQxBFRgB/4O7Fn87ScwOU2H2uH3oJWPeA71uR3pZUV5GoHkXwKgvyeNCUL1YXPoHRsD0c5Me/b0wI1SFedkm+O9Bjyg3LWzOomzqfqPFu7JsruvqcKEe23Z7o4mivIyE6ZsvUn0x2ZCqmbthxd1pDGNFUAVGoX4ou6XwifkxY3oNZrtkdGvTZuZMSk8fSDG4RWvxhUhm9Z7s6VuVnh1L8WLvFXqxKC8jkTV98/cvpKtN/fCxPKmJ5DYu+5eui8GlfwAYgA5mS2+YUxH9obwAwyGoAkAM0z8tYuDIxCYdx9SgvACjRVAFAACAlQiqAABclK4p1fpHCy0uA4IqAAAArMSofwAAAFiJoAoAAAArEVQBAABgJYIqAAAArERQBQAAgJUY9Q/gAmWlsLsi6eCRUduXtYu4T2KsadnOaPp+/JuZqhQ3D0PuOd++f9Wnd2Tndeu0SZ6Utu/LATMh9eliy4ubvSvrq6n2Ka88T7yzkmx0boObVec5J5WBzm/y8mJuiCDT9d7BxaJFFcAFKstOcH94/aPvp22nadnOCG5e1nOOeJWTkJCqleXUC35VIeP0tfpP/VT91nAmbwipA7i48mK+kKzOiff0wfn6zc/m/e6QaswH/x1E8vJSfqkORmpFuGU++kVQBYAZl72pW7pqstvX5PCNkPG6GUa8UxVNMA2uZdQXktJj2SlP6pvFgOWl/ExK6u/S1/PBE0A8gioAzDI3L0splR1KzyJaU31vzoJfzkNGy1+fnQa/AL7k5aUuBy9qIs4iraroC31UgQlys3m5eT0taafZe8zzalJ58UrmV1dEdF+vkKaIbP6uLGVS0lzMk2qpJDuH3X9s+oCpYCJSkyfrD0X0srlmfzWvti+7aiXRocVVr3FbhRunuUwf26gNsp1hBuq/pgJYYW1RHcvgsaa2s/TimRyMuTVp0H52iY6Lm1X7l2spK2qZp7ql7GpL/0D/HMdthbkUnJOefUz9v1PraulL2ShL7bfqdGW5eE/0n4p3LMXKvKwH5UuXrY2d16b83FLlR4u7zWe/x+V821q19vnM3pW9VVPom9S2rW0eBg+UaSkvCbYz9Ph06ugj2/yciBPd17T/8hIm6OPasU39aO1/65VUeevzswXTi6AKTEi2sGU+xEsqbDQrHFd98C6o8OpXTGZQQtvnrh8KMmfd4TKrKopbUYNjTMU9pwKmetGzY9k9Un+j/8iEH1VBqNcLryBcVYHck7Sq5J/sHUpzM9V23LwtORU+urdRS7idHfqu0NX+betgoiq63SO1vuCF9ReB9dVF83x4f7zR6D94JDwuKqxsb6RVRayCaaPCD86dc1YTL6X2PeYLQ1MQKkUFyh7HvxE8WkNG2HMNzXAUhBnxB9Ooh6abwZM9HaD957wRleuex92Ue5GiCu9ty05LeRnBdi4XH0mm0isotgjK2mCDqZrnv9/y0skPtb2/aHXS+2eKnTH48pg+XPoHJkFVQLdSZ+pDVVUGba0idamXD2Vnc1+qwTOtsgUVMlRlriunzo/98uF9KVbSshl5/Ux9musKaycIqVq9LDt7xyroRAxmyN4QFY+k1BpSNfUCBzul0G3UhtvOQanApitzXRnq9bWsUB/LjfX96P2bsGTHRX1ZMOHufjOkavrcbT6QylyqfTR5HHdBMrpSPzvtWn+n+ql/Ldc7bf6l/5wnlZOopVta3OqH8lxf0XV0+VHhIXiuooPrvGv+uiFpefEH4ryjSkC45espFZI6uzhMS3mZnnKtJSsvTa/f6A6tKXl3wP3R3QbOu8LWXhFSLwGCKjB27nkFGv2h6o8SVvVTk6v7FqpK/yh6qfqhCo+pnCy354BATZ6HtWoEo3M7w4NRfiVVz5HMgqsbUTuEbKM29HYOxs3nVFCLGxhUlqOSZwZrjGB1ySU9LvrLgncs4YsF/fv6dXXev0T6Rg/L7qH80IwObzu/5rmYljav2v1vtVJ8y9ww5cUMxEnJUj7kzKrXzaiQ3BmSpqW8TE25bkhSXlo0gm7o51ActY4NPYuB+tGBHrOPoAqMm2nV6q+VoZW7kBYnLAi00dPE+MFyNPxWu+dXbsv6xiPZ2/V/totbUsiHN31MejuvXlHRq/YqtoWwflIVz0nLtQus0ZMel+y7qfgW0Net0wBNn+HKS13er3jiZBa6wpqZ2SAkJE9LeZmW7QQmjaAKoENdyjv3z1stTMvF5mN5eSUne0VLWnNSK+chOvTnfOLxGdQ2X+XlY1pbnUW52fa9KSs631dfRrSwTUt5uczlGohAUAXQBz+8lmRxhH1Nh1DbPw/R0T+DDQ6ZGq5/Of/yKovuqppu6dxoLptHdpdQpqW8XOZyDUQgqALjVj8RT0WLQS97Ny7zxffrzMp8gm4FSenLrjLXfiebSW9nY0CN7Vc/kx4Xs3/qGEcuFvQ77UvQTcC5ctV/bIFRlJfykR4Q2OjD6vqT3EfcdWtaysu0bOeouPNz5r+tg7F6y0rhvIV5q0cZwqwgqAJjVzeDIJzcDcnGfLDq6av0pfVzZhS1I7n2a5xtsgU9F2GPwSsD0FO/bIcNVAmYfnSdk3lPejvLD82AmvWY7dQDa7Z7VGTmeAcVXiHutZJKelzKz0IubTe4/sjwfqkvSfq7RWzwnbRRlBczm0Dw5S97Q3JOxMBBbUTlZewuajtNVxJH5iO/y4znoJjPEqlJVG+NUNl3zme80FO30bJ8ORBUgQmoH96XJ7WU3NpQlUxbWtXzqKrKRwXEW3NnZu7SVuWdB1KaW5HtQr5jFL6elH9LLXMsxRGPfHVy99T6sl2j/s38lnrew5D1TXo7Dzb3xcvo7cyr8N+yQvW7nkTezOcZF3TMyPNGu6Qj6cxC8PtoJTsuddnZPhZnVQXo1rKi51Et3hOnVoucJqybP/hILBuAM4ryomc/0F/+Crpzao9pioYuLxNyMdsZdKVYvdv2RdpV5W1ZnYvtXbU9I/8i5/cp7nXeOpmBhka/twPGLGDCf2CCzMTd1xdb7sQjwV2f4u+O0/+djYIJ3lte3/R7a1T6ZkL0lha5jrv3NCYL3z3VNyFovYOWJ16t2rxxQIT+t1PTl/FW+pgTNHpS77D16e18rrYz5nAaJhCZsKq3sWVi/S7j2c5h70zV34T/im6F0wGnj0nY+9Ndxho3gfAncdfPeOfzqzYnaO8+PomOy7ng5hQt6+plmPLSv8mX6+Zxj9ZrEn79RXRJnajmKtW5qFTl5ckoj00g+BwKv3lIlMb5DrsxCmYZQRUApoofhPoOqkrjLkBdd2wCJq55t7S2W9z20viS3XlrXMw8Lv0DwDQxo/49Oe1jDv8GM/hIevR/BCbB9CkWqb4YLGz6g688c9c8XC4EVQCYJmbU/5m8P0jTaP1QdvWAvpCJ8oFJMv1Ma/sDX7rX/fyZmuty4tI/AEwJN3tX1lfnxHt6nz56AC4FgioAWMjNb8lm26g4xatJae8hrUoALg2CKgAAAKxEH1UAAABYiaAKAAAAKxFUAQAAYCWCKgAAAKxEUAUAAICVCKoAAACwEkEVAAAAViKoAhgNNyvbu1uyzD06L5YN58HNq214JHv6p5gPnpxSlGvgQhFUAYzIfPBfXCwLzkP9UDbW70ix5AVPTDPKNXCRCKoAAACwEkEVAAAAVuJe/8CkuHkprC1K2gkea15NSi+eyUG5Hjzhc/Nbsplr/UOlti9rO2X/9+xd2VtN+b83eMeytnkYPFAGWJ+WLTySW+Yla/Jk/aFI/q4s5VLSWNxT699V6+9csrlcHE9K2/floHu1ibluVq7dfEcyc2obzzdSrefF49D9a+Vm83Lzelodm+bB8dSxqbx4JfOrKyJP70jjULdKtFzC8+6VHsjGicjyzduSS7Wv7/neQ+ncxaHPw4Dl5Zzrdm9j7ViVFVUW9f5kqu3lckoMczzbl/XfT7pYZFveU41j5C+alcLuiqTN782/Nzre66ZcHIacj6TnL+Cq9ayr9ZhtK+2rdYS8AYALQFAFJkFVAtu6stFh70iFvaDe0MFnfXXRPL8RkoxMhSctAbWTqcREiqpia6uKEq7Pf705FYZUdXWmKtIjVZHqZVUoLKypivQsZltURbm9kZbKiANpKLOdKVPZPz86UaHNX6GubDfV89WIoKllC1smRJSetgZaVy27oEKoX9GHLZ9ouYTnYbn4SDKVY/Fyi+J0LasDhTpHT++H72OS85BwOxvr8kol2TkPNq46Vrf9Y1UTyc2NIqi2Brl+dIS9YQxTrk05FbUtz+RK8Z5kWt5Toe/t878P23b/GDhhQTXp+Wuhy1zzu/EIjx8wJC79A2OnKhhdiegKRlUWjUpEq5f1oJN98VIrUsgGT7Yov1Q1feod9Qrhlq+rsFZ61tHKmXx9PlVbVfSyQUjV6mXZ2VPBKXa5CSo/lLX1O2YbGyFVq6vnn6hDlr4eMdJcVei3UmeqElaho62VqW6Ozc7mvlSDZ9okWm648+DokBq67EPZ2K6Ks3o3slwMJul2ulLYWPQDc1vrW13KO/el+PSsrZV1OKr8qfOtz3l/PzaFrDlZKt5WXzza31PlI1Vm3vi/D2fY97vv4EVNGkPfvNorQiqsQVAFxszN5yQtNdkNu1xnlOWo5Jlw1TUDTvmZlLyULOVD5sZx85JxPKmctL/uUOszavI8bNn6qanInHm75+kx4d6ZDwlx7nmwj66E/UCk6vsWyZYb+jx4x9HL1g/leS2iXAwo6Xa6+duSVtvYfqyadKCeiUH/Q3PEe/G4uxVUf/kbweX14d/vAf0FKAj6OvACtiCoAmN29Yqjst+rjlbPdvWTqnhOWq511SR1eb/iiZNZ6Kpksjf1ZeFS1+XI4dY3w9yF0GDfU8Llhj4PZ6exy75+45eLYSXdTr2cVzkJHoXTZRc1edlHH9GkeL9j1tFHFRiz/gZlaFEDXbKmb1r7QJ2w53xDrS9pHzltkn1UFTMwJdMykMrwTP9axwnpY5d0+xIuN8x58PuoRhzngBl4FTZQacDtTbqdQ23jwPyyN719VPvclgTvv+E/XwC7EVSBMTMVSdyAqD50vkYjABRVAOisd4Za31QEVVeFpHuSU2FEj2h+v1xvOQau2owbspkL2YeLCKoJz4MZ2BI3cE0ZaVBNsJ16uaU3kwqqF2gaguqQny+Azbj0D4xZY0DUMFfdykd6IFMuuI2jK9cy/mXXsHpzFOuzme4bmdMtppsPzcCm9mOgHp8Gv3aqn4gnjmQWBjwyCZcb+jzMzccu28+l934k3c5+uh7ocorxGs37XYfg4Ja33C4WliGoAuNmBpWkZD1u4ItutYmrIOqHUvGCsJS9YYJa6IAnbRTrS8IMtnJk/mrwuEv8yvT0T42KstBrkJB3GtFC5Q98Clc3g0qc3A3Jxry82Y62+9MnXG7Y8+AsRi+rlltKxQ16G+A8JNzO+uFjqaptjBpNrqfR6pwKeCoNWa5HJvuO2ooQo3i/q9dudKvwSo/HfEUEGMxHrl796f8W/A5gTP7i638rP/crvyk3f+6j8o/eP8gPfvQj/x9cV7Jf+DW5c+vfi9S+Kg//zw/850P8xT9+Un7lK/9GPvnhlDhnJfkf78f8bdL1/fQ1uZkRqTx7X7pf/aflvRsZees735Cv/2Xwem1+IB/55A25nvuk/E1VLX++yqz8x19fk19Zuy6f/4la+LKqIr3zlbS8ZR68Jc5P/T959vW/NI86/egfPiHvLS2q1/pb+c5f/kD8V1P7lVf79V++IvN/78lbb/1D6D786C//XP7mk7fl1leuyUf/5q/kLxobqZZ3s1+Q31n/bfncW38lT/b+5/n2a0mXS3oe/u0v3ZCf+ua+VDK/Kb/yc2o/PbWfjUVVAPyd3/pZ8Z7+oRyGFoHBz0Oy7fyRvF/9qNz8rf8sP/cT/yTvq3PhU8sU/qv8du4tKdX+Xj7zlhd5LqfDEOU69v0U4geefPTaV+RzH299Pf943smod8db6ifk/Tfs50v2P92Wd0wKrsl//8M/Dd5TgB3oowpMUPcAIE+8WlWeH+n5QIOnIrlS2L0nabVMv4Mi+l9f0O+ztcmm1tLvzfSda2mp7LwLVotsfkuW1As1V+lJtVKVlyfx++hPqK+XUn9feiw7MX0fdbDtvAuPP/m/WsfVlm1t3YcWZiL064ttA7H8O0zF38Un6XKDnvfmQCV9XG7LkjoujUWj7kzVKcl5SFQ+VRgKvTOVWkYWttrvtBV3Ti3X9/HUrZcbqowED8PFDPZq3Fyj8QLnd1u7avqompbPiPdfss+XxudK+I0ugItGUAUAy/Qzoh4YicaX0Jgvn8BFoo8qAACXlDs/p/7fk9IeIRV2IqgCAHBJ1Q/vy5q+NTCN97AUQRUAAABWoo8qAFjCTJDfNqLNN+0DkQAgKYIqAAAArMSlfwAAAFiJoAoAAAArEVQBAABgJYIqAAAArERQBQAAgJUIqgAAALASQRUAAABWIqgCAADASgRVWGW5+Ej2drekkHeDZwAAwGVFUIVVDjbvyNp2VZzcPSlkgycBAMClRFCFfeqHUvFEnHlaVQEAuMwIqgAAALASQRUAAABWIqgCAADASgRVAAAAWImgCiu9ORNxMgvCcCoAAC4vgiqsVN7Zl6qzKJu7W7JMWgUA4FIiqMJK2cKKpL1jKa7fl4N68CQAALhUCKqw0pU5Ea9yImRUAAAuL4IqAAAArERQBQAAgJUIqgAAALASQRUAAABWIqjCOm42LxnHk8oJQ6kAALjMCKqwynLxkWyupsUrPWZaKgAALrkPXXvvsz8OfgcAAACsQYsqAAAArERQBQAAgJUIqgAAALASQRUAAABWIqgCAADASgRVAAAAWImgCgAAACsRVAEAAGAlgioAAACsRFAFAACAlQiqU0bfC39vd0sKeTd4BgAAYDYRVKfMweYdWduuipO7J4Vs8CQAAMAMIqhOo/qhVDwRZ55WVQAAMLsIqgAAALASQRUAAABWIqgCAADASgRVAAAAWImgOqXenIk4mQVhOBUAAJhVBNUpVd7Zl6qzKJu7W7JMWgUAADOIoDqlsoUVSXvHUly/Lwf14EkAAIAZQlCdUlfmRLzKiZBRAQDArCKoAgAAwEoEVQAAAFiJoAoAAAArEVQBAABgJYLqFHKzeck4nlROGEoFAABmF0F1yiwXH8nmalq80mOmpQIAADPtQ9fe++yPg98BAAAAa9CiCgAAACsRVAEAAGAlgioAAACsRFAFAACAlQiqAAAAsBJBFQAAAFYiqAIAAMBKBFUAAABYiaAKAAAAKxFUAQAAYKWZC6r6Xvh7u1tSyLvBMwAAAJhGMxdUDzbvyNp2VZzcPSlkgycBAAAwdWbz0n/9UCqeiDNPqyoAAMC0oo8qAAAArERQBQAAgJUIqgAAALASQRUAAABWmtmg+uZMxMksCMOpAAAAptPMBtXyzr5UnUXZ3N2SZdIqAADA1JnZoJotrEjaO5bi+n05qAdPAgAAYGrMbFC9MifiVU6EjAoAADCdGEwFAAAAKxFUAQAAYCWCKgAAAKxEUAUAAICVZjKoutm8ZBxPKicMpQIAAJhWMxdUl4uPZHM1LV7pMdNSAQAATLEPXXvvsz8OfgcAAACsQR9VAAAAWImgCgAAACsRVAEAAGAlgioAAACsRFAFAACAlQiqAAAAsBJBFQAAAFYiqAIAAMBKBFUAAABYiaAKAAAAKxFUAQAAYCWCKgAAAKxEUAUAAICVCKoAAACwEkEVAAAAViKoAgAAwEoEVQAAAFiJoAoAAAArEVQBAABgJYIqAAAArERQBQAAgJUIqgAAALASQRUAAABWIqgCAADASgRVAAAAWImgCgAAACsRVAEAAGAlgioAAACsRFAFAACAlQiqAAAAsBJBFQAAAFYiqAIAAMBKBFUAAABYiaAKAAAAKxFUAQAAYCWCKgAAAKxEUAUAAICVCKoAAACwEkEVAAAAViKoAgAAwEoEVQAAAFjpwx/+yEeCXwEAAAB7fPhjP/mT8rGPfUw++q8+Kh9RofXDH6aRFQAAABfvQ5/7D7/4Y8IpAAAAbPPhDz74QH70d38n//SP/yT//M//LP/yL/8S/BMAAABwcT7071LpHwe/AwAAANbgmj8AAACsRFAFAACAlQiqAAAAsBJBFQAAAFYiqAIAAMBKBFUAAABYiaAKAAAAKxFUAQAAYCWCKgAAAKxEUAUAAICVCKoAAACwEkEVAAAAViKoAgAAwEIi/x8LOu3kAECguAAAAABJRU5ErkJggg==;" vertex="1" parent="1">
          <mxGeometry x="1380" y="240" width="682" height="369" as="geometry" />
        </mxCell>
        <mxCell id="UQf0CxN8mwpW15ixogrS-5" value="" style="shape=image;verticalLabelPosition=bottom;labelBackgroundColor=default;verticalAlign=top;aspect=fixed;imageAspect=0;image=data:image/png,iVBORw0KGgoAAAANSUhEUgAAAwkAAAQfCAYAAABYs6WEAAAAAXNSR0IArs4c6QAAAARnQU1BAACxjwv8YQUAAAAJcEhZcwAADsMAAA7DAcdvqGQAANifSURBVHhe7P1fcFvpfdj/f9a7693Npk2tjIegZMQXdvt1c7EAtFobzc7352luSoiWJtRM/e2kGbukRO6EvLDT/n4TXwhQBejCbS/iXJAZkRJZe5rM1JkRfyOaBDu/zmymnW0RS1oCN81O6r3w0BIPZxtvvxvrGycbe3/P85wD4DzAOQfAAUgC4PulwQg4xMH5f87zef4+80oq/ZEAAAAAgOdj3v8AAAAAYBAkAAAAALAQJAAAAACwECQAAAAAsBAkAAAAALAQJAAAAACwECQAAAAAsBAkAAAAALAQJAAAAACwECQAAAAAsBAkAAAAALAQJAAAAACwECQAAAAAsBAkAAAAALAQJAAAAACwECQAAAAAsBAkAAAAALA880oq/ZH3vqNnn3tOXnj+4/Lcc8/KMx/7mDz77LPeXwAAAACMi65KEl548QX5pb/39+SX/u7flRdfelGee/55AgQAAABgTEWWJDz/3PPyCy//QiMg+Nuf/Uw+/PBv5G8//FB+/vOP1Ovn8vGPf9z8DQAAAMB4CC1JePHFl+QX/84vmgBBBwV/9dOfyl+r189/9nP52Meeleeee44AAQAAABhDgUGCLj34hV94ybz/yU9+Ih/85V+q4OBn5jMAAACA8dYWJLz44ovy4gsvykcffSQ//elP5ZlnnpEXXnjB+ysAAACAcWcFCboNwksvvdQIEHSbAwAAAACnixUk6GpGuuTg6dOnBAgAAADAKdUIEnQ3p7qR8ocffih/8zd/400FAAAAcNo0ggTdm5GmuzmlDQIAAABwepkgQY+k/OzHPmYCBHoxAgAAAE43EyS88Lw73oEeKA0AAADA6WaChOee80ZU/vBD8z8AAACA08sECc98zG2a8POff2T+BwAAAHB6uW0SnnVLEuj2FAAAAIBbhOD5+MfdtgkAAAAATi8rSAAAAAAAggQAAAAAFoIEAAAAAJZnXkmlPzpz5oz58PTpU/M/hk8ymZXXLuckM5GQRMKbqDmOOIdV2b7/UCr7+97ELqjfW5qflEeFTal4kwYpu3RbrqbUG2dXimoZndYsOXNTCrn6htXkbmlFbY/3EQAAAMeKkoRhpxPzxdtSyM9KLtUSIGhqQiI1JVfz12WtuCjZpDc9jPq9K0s3ZU39Xjox6U08WQQIAAAAw4UgYZglZ6RkEvPe504SKRUs3JQroYFCUq7Mu8HGsMiqgKURIDgqQFggQAAAADhpBAlDKytL+SnpPTmfkFxkoDA8dIBwtR6wmGpJKkBwPwEAAOAEESQMqezSrKS99w1OTcrrt2R+4Y3Gq7i+K1XH+3uDChQuZ733wyjptVnwBwid2y0AAADgeAyu4bKu664b1up6894k3ai2uleW+w8rEt2mNitLq81EsVO+JfnNffWTi7JwMeWrh++odHJZVpfV73lTbPbvBCc+k3KleF0aVeB1HXhdxcX7ZJhqPs1c/Or6G7JcUQnbmUsynfGtj96+nTvqb/UlJNU6X7LXue07XWhZvlHbkGLodutE93W3oXCDI+XSDbnnzWDX+w/Qtq867afov4c3XG5Z1y4DhGR2Ri5fTEva1yjDUUHT3s6W3Avat+rcWZtzF+IeP/O2RXMb6uccAAAABlSSoBOguiGsaVjrTTNUgi6dm5VC/qYsdWxR63dOJd5uS0El8nxpQkU30lW/pxvoelOOxaRKtK+qhG2uZX309s1dl7UlvTZugrNtna3vdCd5IW3vR50ADw0QtH2pLG9I1fvkSkjmwrDVOXL3USNA0IFPxwBBBxUqwJmbsgIELZFISU7v2+KM+laLytuN/ZF+NWTfJy9IxvykI3sPCRAAAADq+g4SOuZQG25Cudt0ckIFFpE/qRvo9pDo7lc616FtgApc1lQQEbnO6jvdrvK5sy0/VHu7i7r6FXlU8956EmfPee+GgV3y4KgAYT4y8HG5pQ7uTE5ZBRWNqla3pLheU8l7JTElhbad69sfqfOBQWUjGHOq8oAYAQAAoKG/ICE5IwtWytix6sw3EnGe9MWAHN9QjlQbv3VL7rYkgGVisoffGgDd806pmUAtt7UD0Pzb3/6d0BxtS1LOTnhvPdVHnUMErdIaJfj20f7mjYB10lWEvG3qospPfK1Vk9Se6mab1Pk17ZU66CpD+U1/ULEv+5UVyZd23XMsIAhr7o8JOdt2siTlNbcYQZy9h0e47QAAAKOnryAhe9mfw+7VgffVDzeJOBUoNCSmpNv2tNX1G756/AHVaRKTcnz55Grb1vxdc+7LvZ3WqMVd5+b2q++seQnYuuMObPqi1r9QD4r0q7XnoU5/r5uUyy0Bgpae61xlrHF+ObtyPyym2N+Ube9QtAVhjSpHAVWvqGoEAAAQqo8goSXHO6zKhq9uuNZdbnpN2jOaH8tBYO79MQjatscHdgAQuM7QVcPq4zzoKka6dMmVkqtBbQkamudXp5z+x0+8I9FWrahZ5SiRuWAti6pGAAAA4foIEs7JpD93WNcLX70ta22vlq48u8lNdw5USDBEDg8iE6lG0DrvtwYS8SQmR6f8IYzpPUi3QaisSLFe5ymwLUFd8/xK5K4HnFfNV1SbmEaVo0RaXmvsRqoaAQAAROm74TI83QQSXdmXJ4feW0+3DZCTky2NGQa2Tv3RbUv83Yvub95pto3ooUF3LEFVjqhqBAAAEIkgYQg1qs/UBfTOY7qdLS7KlUbXslm53JKj7jwZgvIY056gNSFut9dIz0WPEK1LIZptH6JeQe0i2qscUdUIAAAgWh9BQksbAT0oVmDCreV1pL3odKOlmtQQ2n9Ybamm1FJ/v96rVGOcgEVZWsq1jNA85Lnk+5u+Ru0Jyc2Ht0/otyvX1ipH9S5mqWoEAAAQrI8goaVajFXne0gE9YCUPd+SmB5Cvh57GnT9/XrJgU5glzakXPNCCd042BtLoGEUcskrK82ubdvaJ3Qe56BrvipHk+ey8qrXrapzQIgAAAAQpK/qRpX7/i4+E5LL3/RVf1GSWblS1NVibsrSzIxkk0cdRbT2gOQOulZfajI7I6W5+nC/w619BGWlXnKgG+x6I1wH0122dlNi4xs/oO3Y6LEN/A2EW7ss7fT37ljbmZqV0kxzPZrjHKRkOrThgm89QntLagYc6Ys5t6oRvVEBAACE6q9NQluOtwoU6olY/dIJ2YSuFpMwoxZfzXc/6nI8+/Jgz66ooxOe9V6XCnMdRk4eKhVZrg8U1qvQUoTWRtE6sKsfq0v95dbHZm9nInet2T7BV9KQ0AHEkg403c9a0gShzTEYqjvhgVGzylHCPQe6GsUaAADgdOq74XJlWY+G3E1S1h1BefmIU2ZWzzlBnJqUI78wRLxqRdVeV9d0R6tLb5qlKHXN3PkhorZztXFMdODSLJXQ51ejx9SUDjS9oEYHfSYI1X/p4txqGa+j21GsAQAATqO+gwSdO11ZviHzXh351vSs46gEXHlDigv+EZSPkh4JWAUu5Zq9Lno9VEKyWFiRB96kkbBfkeXCG1Ks79/2Hazinl25W2oN1nTpzaws+KrvGHqcgvXdlsBD/+6B9/5k2MGdW03M5Y7s7K5zy8abbVfnVqmbc8vXxoGqRgAAAJGeeSWV/ujMmTPmw9OnT83/GF3J7KIszKW8alU1uRvYLejppLuNNQOvqcBi/qiLtAAAAEbYAEoSMEz0iMb1no+c8hYBQkNzlGWqGgEAAEQjSBhH+xW5t3zDGuX41KuPsmwGd3MnAQAAIBhBAsaf7gVp3u3ZigHUAAAAOqNNAsZWow1CnR4V/MRH/AYAABh+piThZz/7mfvhYxQsYHzsHzQHhXBUgHCXAAEAAKArpiTh7/6dvyPPPf+8/OVffqAChWe9PwEAAAA4jUzRwd/+rVuSoAMFAAAAAKebCRL++sO/MR+ef/7j5n8AAAAAp5fbJuFv/1Z+9vOfy3PPPisfUy8AAAAAp1ejpfJPf/pX5v8XqHIEAAAAnGqNIOGvf/rXppcjXZLw3LPPeVMBAAAAnDaNIEH7f57+P/LRRx/Jx1/4ON2hAgAAAKeUFQl8+Lcfyl/91V/JM888Iy+++CKBAgAAAHAKtUUBP/3pT+Wnf/3TRqBA1SMAAADgdAksKtDVjv7mb9xuUV948QV5SZcq0OsRAAAAcCqE1if6yU9+Ij/5y580GjPrQOGll16S5z/+vDyru0qlKhIAAAAwlp55JZX+yHsf6oUXdIBAGwUAAADgNOgq1f/Xf/1T+d//+3/LB//3/y0//aufyocffmhKGAAAAACMn65KEgAAAACcHtQfAgAAAGAhSAAAAABgIUgAAAAAYCFIAAAAAGAhSAAAAABgIUgAAAAAYCFIAAAAAGAhSAAAAABgIUgAAAAAYCFIAAAAAGAhSAAAAABgIUgAAAAAYCFIAAAAAGAhSAAAAABgIUgAAAAAYCFIAAAAAGAhSAAAAABgIUgAAAAAYCFIAAAAAGAhSAAAAABgIUgAAAAAYCFIAAAAAGAhSAAAAABgIUgAAAAAYCFIAAAAAGAhSAAAAABgIUgAAAAAYCFIAAAAAGAhSAAAAABgIUgAAAAAYCFIAAAAAGAhSAAAAABgIUgAAAAAYCFIAAAAAGAhSAAAAABgIUgAAAAAYHnmlVT6I5HX5evfnpfz3sSeHWxL/ht/LD/0Pvp/72D7hvzud5t/GQ7Dvn7Ayfn0l78ppemEercnt7/6+/KWO7kLn5Yvf/OmfGlSvd1bk698q/s5j92nPy2vf+E35PL5SZmc1Nta58jB3iN59OD78t23ursvfPrTr8vMzFnZ/Jb/HggAwGijJAHAKaKCg69/U75TvClvTGdaAgQtIZOZafnSwk35zje/Jl9+/dPe9GCv64CqOC/nW38GAIAR5wUJb8m3vvov5CtBr9U99yviyPcKAX/XL6sUAQCG0Kdfl69/UwUHGTdFf3CwJ99bvSF5/72scENub+/Jgf7CZMYEC//myxGBwlmiAwDAeKIkAcApoAIEneOvq0KJI2+r4OB3v/H7pkqRlcHxwx/KW9/9ffndr96Q75lIQcUK0x0CBQAAxhBBAoCx9/rXm22u3l79hnyrY3uDH8p3v+EPFH5biBMAAKeJ13A5wutfk+8sZNQbXd3oG9JdG9/WhsG67u5vyGVdB9j9gvqDI2+/vSWb330rsqrSp1//pzJz6VU576s7rKsJPNr6/3bdsLBdh4bLn/6n8m+K0+66qmXd/kZ7482e16uxH3Ui5V+oRIp526LZ8LO3BtUh+/u8rnPtfqOr/d2hMef9zT+W4F3eut56//yGLF5qWf7WH/gSZ7pu+G/L5UyicU5E7b9+zoOgebs9/4J1OH88nRoA97Ne/V4X7fPrY7wlK/rEHFjD5R91f4yP8vrwX8+9NqgOmbd5bNuFrz8AAKPj6EsSzn5eJai8RoLeJEMlTs5Pz0vpm/9UPfqDuA0MSwvTdiJKmfTqCn8ndN4+dAwQYq7XWw/lbe/t+dde9961+PTn5VWzYEce/WmXCaA2an/retemUaY3Seu0v1Ui7d90aMz5RvHfd1Ht4lMmIVdSCb625dfrd+t9rM8JX+JRq++/r1u7p7/zIGzexv749jdPJIc4/nr1e12Eza+PsV7u1+QL3pT+XGjU/w86xm3reITXx6e/8GpjHd5+0GPq/Yffl0deaYJkLqjwEACA0+HIgwSduDyvHupvb681GwgW1hrF+DI5LYsBqaHXv+4mMLQD/7xfvSH51XrDwmkp2SnK/lgBgu7WtT0XNf56vSUP6m3AQxIbjcTMwSOJGyNMTuvEn97fvgaZnfa33m6dqNfvdWBUqG9Ty3Ypk9O/EZlQmlQJ3C+Z5dvHu54A1PW7v2P2sWMajdaXk1/dbizj/MLXGsvo6zxQgU/wvP7lJeRLvx2VqD4CfaxXv9eFNf+ePf/tPUdNVYn4kBzynmQy6jz0ltE4n+rLUNrW8eiuj081GhfvSa8xgq529Kdve+usln7OOyA//O43zDbdrq+zvl94+5JSBADAODiWNgmmDrC/+sQP35LvfsOXcDz/eTsxpBKtl92aB6bo/netqhc/VLP/vvxuwUtMZeZbcp5jagsQAnps6nO93mqkgpqJjaZPyxe8fhQP3v5++7J74O5vX4NMs7999atb9nczp9UrObEW7m7XynZ7QilM0PH+lkrANnlV13wL+uFbfyy/2/iOt4w+9/frr3kzq+O5Ys3bsrzJV+ULHbZpkGKvV7/XhW9+U11HpWb987/1rW9IvnGc+9dYRmMhLcvIXLJKS47m+vi0nKvHCAdP5Efe21788LF34ajA7eynvLcAAIy5ow8SVEJoMzBnzZdz2OL1mWZiPXhe5Yd/LPe9+UOrJ3SrmwBB6Xu9GlUqEvJqa6p0IFWNlNB1+6E8bqTzz4o/rVPPFf1KRP3zZkKpg7Dl+6qTyN5WcNuWHz1xE7heYmxg50HL9jaoRLW73d22tRmwHter3/3hDwbvh2zwD7+71TxOfelmGS3XwZFcH5+Ss+5GD8RkpwgZAIAxcfRBgvMkNNfvR0+8VKuVWGrm/HXKMWzM309dYd1mwmqDEDbmwyDWqxkYhebm91HVyOhmf3fl02Yk2ddf/6fy9a9/s9GotKOI5dcdPOkmP7f//d3c3oy88c1vyte//Lpum33i4q1Xv/ujmRMvew9Dg0H/OdqXLpdhXwfHcH0AAICuHHmQ0F2C0K+Z82fqr3/734e+wnoX6YXbZsIzmZHwQonBrFejSoVVlWRwVY16399Nusebr6tEq7sdN81Ism/oBq5eHfbj1f/+/uF3/8DXFsNrEFzU83xT/s3X/6m8fkIRQ7z1Or7rordgMlin87CxjJbSlMFfHz+SJ10WggEAgKZjaZMw9A725G0vIeFvNHskgqpUDKqqUWy6xxuVuGzr8UZ3i+mNSmu1KRgVbl/3pkGvlVCs99akE9vflK+/ftzBwkmsVzPI6CeQPHIDvz7Cq9l169PnvB2nHDymGAMAcDoMdZCgGz66dbM7vXrpy73FgduL0bf+oN6rTEbe6NASur/1aq9ScdJVKT795d+WN+oNWve25Xahvn3fkN/9ljsqrfgSSsetv/3tNej9hv77Dbm9va0CQn9Oua9r1mMVf73i7Y9mjvrkULe+Hfz14a/e1XvzJV81rVi9IwEAMJqGOkg4jsRMo/qCr8Fnpx6T+l2v1ioV9S4a+61qFI8vEaQCppVv6QHTTiBSiTC48+CH8tZ3/1i+9Q23oXajy1CltQ78IDS73uykt/Xqe38kzkZua/frHa7TOjaWEdDj0KCvD39j7NDG7YqubtdWeNMoxVAi21kAADBehjBI8DWc7KdBcgxvfavZLev5S6191A9wvXxVKs5+6nVp9Ih5IlUZfNVQQhNh/tzU49Lv/taj83r19EMiPqtr15hVUcITw76uNy1x16vf/eHr7z9yW5vnY18iAxHfOR90zg38+nhLNhvdroZlAKhz/JI7YOB3vvk1+bKJFtSx+m2vUwNx5HuhXUoBADB+hrIkodlfekYuh2bp+xJbkSPM9sLXn3/AoGODW69mgu/8pUteIuSkqjJ0roby6dd/Q75Uz001CTfv7RHrb3/76qJHJKqjcrTD+RrDhiWGrX3mF3+9+j3/fvinjzpWqfv0ly81G/L3I2jQPs/rX5/3lhHWxmDw14e/sfj5hX8f2N7j8dv1wei8UaG/fbN5DMO67QUAYEwNZ3Wjt36/MZLpZGbe6/HF/azprjm//M3mA/ztrbBuS2PwL3v6t63Bnga5Xs0qFQk3EXRiVRn8iVa1Tbo7Tu+jTnC+/vVvSqnb7k8Hrc/9/damr53JN7/W0muQu22Nthg9VWXx58pPS0klxpvrpX73y18zI1iHib1e/Z5/P/zjZglF2/zesR7EaMse3QvTv1HBSHMRav3827b9B6EJ78FfH7qx+JqvgwIVBHglBu766SpfejC65nca9rYlHzKMcrOXppaB7wAAGHHPvJJKf+S9D/b617w+8r1RcrtKSb0uX/+2m1toRl0NmenTX64nSvbkdlujU50j6svJC+TI26t/IN+yhwjuQof1ixxcbVDr1VwHTY+gG5IO6UK/+9telzYHe/K9rSfy6oK7T9qX4dsne2vylcAN6WIdffu9uT/63N+N8zfcgVpnPTJwbzqslzpvbr/9qrwRdn7HXq/+zz83CAkJBvSxfntSvhR6XUZprtvBtgqEzuvesrw/tYg6T12DvD78dDCkG+qHbH8I3aD//qZur+NNqAs4jta2+f7eeZsBABgeQ9xwWef86Uacrb2+KOqzTkDlVdDSe4DQBX+Oa1u1iUGtl6+OeZ9VKfr3lnxL97Czp9bfm2Ko7Xl7W23PN3QPR9+XR94fj6KRb7g+9/dbvy9fKazJ91q3TSWkD/TgeQWVcIuV+nS7Mb293dKNqd5nqzfkKyqwjKy+FHu9+j//3vrWN9R3dI65f35vXnWs/9Sb0p/vy7f0/mnZvsa2dUwsH9X18UOz/V9R6+Aeu5Z9qOhpb+tevlbd46O5XdMGVCFUx9Hf0FwbXEN7AABOTueSBByZRs6+SpwF574Dp9fQXB+6mtTMJflSJkFpAADg1BjqLlDHW7PHoLfpfB1oMUTXxw/fku/q0oev/gsCBADAqUGQcFLq/a8fbAs9KwItuD4AADhRBAknQVdf8PpfjztAFDC2uD4AADhxtEk4Rs3ehTxtPScBpxfXBwAAw4OShGP0w8fNPlAOdBeZJICABq4PAACGByUJAAAAACyUJAAAAACwECQAAAAAsBAkAAAAALAQJAAAAACwECQAAAAAsBAkAAAAALAQJAAAAACwECQAAAAAsBAkAAAAALAQJAAAAACwECQAAAAAsBAkAAAAALAQJAAAAACwECQAAAAAsBAkAAAAALAQJAAAAACwECQAAAAAsBAkAAAAALAQJAAAAACwECQAAAAAsBAkAAAAALAQJAAAAACwECQAAAAAsBAkAAAAALAQJAAAAACwECQAAAAAsBAkAAAAALAQJAAAAACwECQAAAAAsBAkAAAAALA880oq/ZH3fmg9+9xz8sLzH5fnnntWnvnYx+TZZ5/1/gIAAABg0Ia6JOGFF1+QX/p7f09+6e/+XXnxpRflueefJ0AAAAAAjthQliQ8/9zz8gsv/0IjIPjbn/1MPvzwb+RvP/xQfv7zj9Tr5/Lxj3/c/A0AAADAYA1dScKLL74kv/h3ftEECDoo+Kuf/lT+Wr1+/rOfy8c+9qw899xzBAgAAADAERqqIEGXHvzCL7xk3v/kJz+RD/7yL1Vw8DPzGQAAAMDxGJog4cUXX5QXX3hRPvroI/npT38qzzzzjLzwwgveXwEAAAAcl6EIEnQbhJdeeqkRIOg2BwAAAABOxlAECbqakS45ePr0KQECAAAAcMJOPEjQ3ZzqRsoffvih/M3f/I03FQAAAMBJOfEgQfdmpOluTmmDAAAAAJy8Ew0S9EjKz37sYyZAoBcjAAAAYDicaJDwwvPueAd6oDQAAAAAw+FEg4TnnvNGVP7wQ/M/AAAAgJN3okHCMx9zF//zn39k/gcAAABw8k62TcKzbkkC3Z4CAAAAw+NEg4S6j3/cbZsAAAAA4OQ980oqfWJ1fc6cOWP+14OojZNPfu51+cIXPitnPnFGPuFNE/mxvP/++/KDP/3v8t/eec+bNqo+KZ97/R/Jmb+4r7bFm3Sihm19AADj7ZPya1/9LXmt8ZB/V/7Tt+5L+COo5fvvluX3t+I8sD4nX/p6Tj5j3v9YHvzht+W/jXqSAkNrKEoSxoe6eL/6O/KbU5+Xz1gBgqY+f+Iz8trUb8nXvnpZPvdJb/KI0QHQl9SN7p+89hm1RSdv2NYHAHAavCf/8wc/9t5rn5HPfs57G+ST/0A+60sUvPs/ydHC8CNIGBgvurcjg2AqWPgn/1wFCt7H0fE5+YIJgLyPJ27Y1gcAcFq89+c/kPe999qZXw7P/fvkP/isL+PwXfkBMQJGAEHCQOhixHrxn+v9d8vyR3/4e/L73/Jef1iWB/67ifr2518f0eIEAABOu/f+XH7ge65/4rP/QKUGgnxS/v5nfWXd7/55RLUkYHjQJmEQPndZvjbVDBHef/Af5DtvBVUSdOskfvbH35cf/M8/D2ybUG/PoKsr1b3//rvBbRk++bp85Z9/3s2deP/78kff/nO1Lv9Icl/4jHyinmXx/o/l3T/dke+1zfs5+bXsF+Szn2lvN/H9nfvS+vXPXfod+Sf+KMjPqlvptg/4/Gd966CFrYcWYzu6Xx8AAI7GJ1//qvzma/XndUgbAf8zTnl39/fUs0y/i/G8rNdaMO99y7OWEdQ+wj+ffx1cn1Rpgi9c/IIv7aHSA+/+QL5feastPYDTg5KEAfjc3/enVt+V7wcGCNp78t++/Xvyna23AgIEHUA02zP4NdsyvK6+FeaX5QsqAPlNFaxYNxv1W59R837FX2phbiY5ec0KEDS33cQ/+ee/I1+KWRfqc5fc9gHWOmjeenztUqcf7mE7AAA4QXaVozPy2X/Q/owKq2rU//NyMEygo9IEdtpDpQc+83mVHvhq7PQARh9BQt8+KV6BiCtmMaK+WTR7SQjxic/Lb4bdNFTiPqpu/ide+0deGwgVjFys5zb8WN7d/Q9elaj/IP/pQbMR1memYrSZ+NzlZu6+LhHwqlr9ke935TNfkF+LSud3vR0AAJywjlWOQqoaDeJ5OQhqPZolIUF0wPLVo18PDCWChL79spzplLjvxH+z0NQN4z812jOoxPu7/ptGLiKqb0n0v+tNNuo9L9jr++O/qJdovCfvvPWn0pzF7qnhnS39m2Xf393iSrMsr2qPv0Tl3T99S/2iqzWn5cwve29Ddd6ObtYHAICj1dLL0Sc+K3/fn6AO6dVocM/LfnxSfu0LvsSHL1jR7SjfbazIGXktS/bcaUSQMGDv//gvvHfds6ormTr5/jqAKvG+tWM1ev7M3w++WN/d/bavDqOar/J9q+eFdurC/+e/Y7pk/bXXPyef/OQ78r36DUK9/PUVu+Em3APmfe8vVLK/e71vBwAAJyOqylFYVaNBPS/7YgUwP5YHO81gRd5T6YE/9WXDqWiFwoTThyBhwD7Rc9hvV1d6/wd/3rxIG1pyKgIv1h9LW3wSeLN5R35g5cwrus3Dazn5TR0wfP2r8iUdMHh/iueT8snPfU5+7dJl+cpX9W/aPT9F63Y7AAAYAqFVjuyqRu8/+O8B1ZH7eV726Zd/2RfAeJmGX/e9fB2yyCd+WY60UANDiSChbyoB68/m7jnaDqv+Y3vvL/x3oP4u1ne2/kNLd6x+Z+QzOmBQwULvdRA/qW50X1U3F93wWDeMDmiQBQDAWAmpctSSU/+DP/c/34/yefkJOdNfTl+Ao/hNDDuChL69Jz/2Z3P3nIC3g4ywwVg++cu+u8f7f6HmavW+/Dg4vgjg9rJkxm5498chVXl6rYOoe2f6LdNjUoPuxu2Bbl9htx2I1st2AABw8oKqHFlVjd7/gfzPxrNtUM/LHnzyl9VaRdHdpjarQLW/Arp2xdgjSBiAd/6n/5KOHiRN9+//Fd0G4HPqBmKm2EFG8GAsLb0j/Pgv1FwD8N478t+2vi3f0TeAP9S9G71rBwy9lIq0Ns7SjYi//W353lv0sQwAGHNtVY7+kXzBX9XIX5X4JJ6XVtUiz1/8he+Zb3dWAmgECYPwzn+3qu984rXfkq9c0g2BvQmaHrzs0ldNL0b1cQ/q3ZlaQYbu5vSrr4uKITyfVIHFRat71HrvCLHogd8adQ593Zy+p3s3ui/f2Y2Zh2HdgFqGnO+YgwEAwChrrXLk7867parRkT8vdU2A5rhKepDWr/jbF9S1BDam63Nf2kOP3dRILxzTmA0YLgQJA6Gr79hFhJ/4TL0hsPfyBi9relf+U72rzpYgQwcKekAzd97fUoGFb753yz33OmSxlvUZ+Sc6mPE+mUDG1x1acCPqps9MeeuoB3lryZFolKao3/xSY1yGo2WtjzcNAIDj8J7VjbiPVdVIOYrnZWsHH5/5vPyml/7Qg7QG/6ZKu/h7MNJpAl/ao5k5+WN5UOkn4YFRRZAwMO/I96x+hSO8rwKEP/QPma6DjKjGxK733/2+/FHfYwCoZe34uhTVwYx3IzGBTP2m8P73pdw2cnRAz0h1770l3/f9TZem1H+zdXC0sHYXvYtYHwAAjlXwM6ktw+1InpcqDRJVE+D9H8v7QWmMd+7bA7gFeP/BDu0RTimChEHS/Qp/+/fkj3a/r4KF1otOX6DvygM9SNi3VYDQdsG5jYmD5q3P950tXx/G/VA3qO+YEZbfbbtpNNcxeFmmZyT/4G56u7w+S/XfWts16N/7T3+ofs938wpudxFP1PoAAHCc7DaKWmuvRq4jeV7qBL9JQ3ifNdMguix/9O0d+YE3qdV7b307NO2hB3b9TluGIU6LZ15JpT/y3h+7M94AAU+fPjX/AwAAADh5lCQAAAAAsBAkAAAAALAQJAAAAACwECQAAAAAsBAkAAAAALAQJAAAAACwECQAAAAAsBAkAAAAALAQJAAAAACwECQAAAAAsBAkAAAAALAQJAAAAACwECQAAAAAsBAkAAAAALAQJAAAAACwECQAAAAAsBAkAAAAALAQJAAAAACwECQAAAAAsBAkAAAAALAQJAAAAACwECQAAAAAsBAkAAAAALAQJAAAAACwECQAAAAAsBAkAAAAALAQJAAAAACwECQAAAAAsDzzSir9kff+2J05c8b8//TpU/P/qZXMSimfk73SDbm3700DAAAjJClXlq5JLpVwPzo1Ka+tHOFzPebykknJXrgk05mUJGRX5gub3h86ibt9zDeqCBIGLDuzKNM5feF59MmysyX3KhFnS3JGBQnpoQ0SrhRvS66xQS6nfEvym+7KJmduSsH/hdqGzC9XvA/DTl3cxett2xfI6eVmCgA4PbKytDorsn5Llr3nfTK7KAtzE0f0bO99efpZvZBRj7K9qjx6+FAeX7gmhUy1y+da3O1jvlFGkDAw6kQpzkpaReV31zbFO1fUyTKjTpYpk3DOhyWchzxIMDqso74oCuqiKI/qRaHWf21O5O7CigQdJRMIdX0zBQCcJtml23JVAjLI9LPl4oEU1bNjkI/GQSyvl+da3OUxX/B8o4I2CQOhc6NVgHCoThR1QtQDBG2/sin5hQ1xUrOytpT1po4Xc6O5qBLYYxA1AwDQk+SMTKccKd9vSShqlS2pJqbk8iAf/6OyPOYLnm+EUJIwCDpinBMpLqyER4zqZGrNiTcRaMp9H06dgB0S39mlm+p3dH0ZR6rrN6Q1oA3T03wB668mqt+4LlcndqOjZTXv0vyUpP1VeiKqYdnVmwK23+zv5o7zV32KzTuGYSUJ0fR+uKZuFolGNTNHbd/eztsyOaeLId8I3be6pOnyxbTaN82d02neZDIrr10+L5mJlDRmc9R+2rnTtj/9VcHMfnqo9u9lX91JRS9ve01td9gu7PH4AcBp0ilHPjC3ueU55q/O2po2aH3GxVpegG5LEuIuj/mC5xsllCQMwJWLKXURb0UXKe1vynYtIZkLSW+CCjSX35D5BfUq7aqksE4Me5+tV4fceRPJ1lNvCUm/2mXYGne+Brcu/7S+ANQFErqK6kZYyk9J4nBDir7tK+4cSGbuupQCSlfuFd6QuzX1RrdtCNr+yoqafkuq6m1VJaL7DhACJWVp9bZ0LvzR39OBUlW2fduXX9sSeTUnae9bQXSQVphLy4FK3Nfn09u1qvbN5EVddS2A2p+F/Kxk5EAl7G815ivuHEpO7c/W9d3fvGH+Xnb0pwuylL+u5i1bx2J1R2Q6fzN4W2McPwA4dQ4PvDchJia9Nx79HPM/+30JTZM2KG1I1dEZeCHPuF6X16+4y2M+781oIkjoW1YmE47sPeycUH38xJFE5oL3aUBM8GFSgIq6oTzqMmKNO5+W1A11VGJz71Z4OwtDfU/nlOhcEPW9fd8u8lfDCkpnVu6rm2cqJ1eaMZUte0klomsSVMo3GOe8/zsw66Fu8r52KIba2HvLZRPIBFKJ76upQ7mrgyB7RrNvlgvqAeFNsZgAST00lvXymvPtq+k6sEpfnPGmtEvkVGI/8FisSL5UlcTcojpifvGPHwCcKhGJQf3sD6Sew/rem8nfbHnWqXtvflZkJ6KEP87y+hF3ecw30ggS+pWcbPZkdEIqy25usc51j0yzt4g13zld7Ujncuv8j+iEdHJG56TXZDU0p78i98uOSdi2xQJeyUsupEJfV6U3PUvJ1dXbsmZeITn5rSpvS9VxS4iSbRtRkWW1f9v3bbKx/uG7PWzecJVHKkpITLYk9H2c3fBjYfZ3SqZnmhvR1/EDAHSmA4X1Q8nML0rW3Eh1Jyi5yGqqwHEhSEAPVKJ9btJUqymuVyWRm5W1YngC8dxZFT7V3o5MyO8/rIqTSMtrAT/iliacb0/0Zhcll6jJ9sCrGdXkrgma9CskJ7+NSswXbsn22WuykK8HGLelVLwpSzMhyfXkBcl0Wfo0UIcHkcdC53r4S7r6PX4AgC7o0twdkav5RTdA2LlDgIChQJBw3DrVXxtquu6k28C1Xt2kKlNSiKpvont1auTOB7x0fXfvq232N2XPsXO3teyrKZN4Pdp76GPv/27sm1KZfCPAeEPyhTvy6GwuMoiKS4/FUSq27subUrroa+kWwHnSyzZ5+jl+AAA3w6WTypaU1fMunTiUR312CNHV8gYo7vKYb/gRJPTLJGTtBsnBkvJaJhEvoTa0KrK8pnP7I+qlm8bHzcRz8Cu8cfa9nZokcpeapQmmwbUKVo6uMYJnv6W6T7cNmevcwKHcKYjqiW4sfluuZkT2dm5J0dqHd2R1T7f2Dpc422U7C78+jx8AnAqJyegMocgMQrcjEN3Or1iekOluMpf6Wl4McZfHfN6b0USQMAAmIZu5EH2iZC9J7iSqmBw1U5c9uMGsqSOfOh+9XzqprJjclXppQvbylCRq5RNIlLoJ7MRkb1vzYM9pb9i0/1Ac6SawtCVnrplqVncLK6axs70L1OdO9yK1HlFL1Lkezt5D79OAjh8AjDlT7VImQqpdZkUXfod3DtIMEHQvRrpHutW9tBQiAoX+lte7uMtjvuD5RglBwiDonmUOI3KMdW9Ac7qh6p3gxK1K3elE42RoRm/gGdigu9J0q3+EdGMZIu58rUzbgcRU+294CfyFlupCluSMlNTyQ3sxUhqlCWo/DttFp3P2SxHbZ4ob23IS9k2DX3ebvEkBzPFRDwqLcxBSzcptDB1JHaPQY2FKaFraeQzo+AHAWDOZZSEZP9nzknZ2Q3ri0wHCtUaAUKcDhWJUoBB7eTHFXR7zBc83QggSBqSyfEvKE7NSWpqxEn5J08/8rCRqGxH9+VdEZ9qmdReU/nlVoviKSiiWVq+HJ0TjjncQd74g5kJR6x/wG/cKG+JkdH/6er9YG+fWrc9PiXQqGfDqak7P58xFN2wNuhI5d7yA1t6NsjN6sLqa3A1YYf0QuFtLyVXd9Z0VKSTNAGu6zcHViUO5u9bsO9vkWqiEfmlGLcubpr9v9qPuklaFmlGc8obsmWNhr6t7jqbFWW8fSG4gxw8AxlxlWd0r1bNgyXc/N/fyuQnTRXb7LdIdhDOzdycwbVAPFBZCAoXel9efuMtjvtHGiMsDphNO07lUszFnyEi4QXSicjrXHLVXz1vdq8qjhy198LfoaeRkn27ns0dAdrWNcqwSmo3RI1VCvnUEQrNfMr4RgtUynVpVtu9Hb1uD9/t6YJnBBgluUW/r9oVp3W69b3Qu0OrBhZaRk93tW1Xb5x9foJW+mSxcnPLtFzWnGXE5ZDRjFdy1jn7s1Hbd/XjOdwx0WwLfjqqvZ14dlqDRoSNHXFb6Pn4AMO50rYH52eb9WY9Mr+6t7Zko6nut3Wz77tlmpF6rYFj3vNeeidP98jz+53SYlmeHpdfl1THfyCJIOALmAp/YlWLUSMTojbm5iRTVjZJ92rtmkMDeAwAAnVHdaMCSpoqJepOYkoKu719c9KqT6Bxr9bmfyv+nllvffvCDpwEAACAIQcIA6RKEQuZQyuvN7imLOyKZueuypuuMH+5KcdRbsZwE0zPUUQyeBgAAgCBUN8LQ08HX9BOqyvSD6kYAAKAXBAkYOu2NtpraGkwjkq7+Vgholc1+BAAAUQgSAAAAAFgIEjD69IBe+alm17E9IEcdAACgHUECAAAAAAu9GwEAAACwECQAAAAAsBAkAAAAALAQJAAAAACwECQAAAAAsAxl70Yvv/yy985V/zvTma4x3cV0F9NdTHcx3TVq0+tOavlMZ7o27tPrup2PkgQAAAAAFsZJAAAAAGChJAEAAACAhSABAAAAgIUgAQAAAICFIAEAAACAhSABAAAAgIUgAQAAAICFIAEAAACAhSABAAAAgIUgAQAAAICFIAEAAACAhSABAAAAgIUgAQAAAICFIAEAAACAhSABAAAAgIUgAQAAAICFIAEAAACAhSABAAAAgOWZV1Lpj7z3x+7MmTPm/6dPn5r/T61kVkr5nOyVbsi9fW8axlJy5qYUcgnz3infkvwmBxwAxkNSrixdk1zKvceLU5Py2soRPtdjLi+ZlOyFSzKdSUlCdmW+sOn9oZO42zfm88Xen8OPIGHAsjOLMp3TJ4pHn2Q7W3KvEnGWJWdUkJAe2iDhSvG2eOnaBn8C15/wNWobMr9c8T4Mv+zSbbma8j50UF1/QwaxaXqfZvYIEgBgPGRlaXVWZP2WekZ4z8bsoizMTRzRs7335eln9UJGPb/3qvLo4UN5fOGaFDLVLhO1cbdvfOfrb3+OBqobDYw6wVTC72rmQLZLb8j8gvsq7hxIZu66lJay3vdGz72C2pbSrjjqX9nbNn/idn/zhhTXa+qd9/cRChAadGDjHTP9KjtuINSctiFV76sAAPhll2YlrZ4j9QSmtl9Zkfz6oeTmZyTpTRuUOMvTz+p84YYsb25KZT8g1Rsh7vaN83z97M9RQZAwEEm5UlQn2KFKaKoI0neOqZNsU/IqgemkZmVthAOFKKYk4aLI3cgoHQCAMZSckemUI+X7ARlklS2pJqbk8iAf/6OyvHGf7xQgSBiE7CXJJWpSDM1Br8iyzolP5eSKLxzV1VzWVtUrPyUJ9S+X9z5br5vWPEGySzcb3+0lDok7X1PSbIMuXisWVqzgyKIuQF3KYm1XcVGuZIM3TFfFaX43YPuzi76/35bSTIcddMSSyaxcWVqUkn+9i2q9Q7bPpvfhTSn5t0ftm65mBQCcuOSFtCScakgm2b48qomkX215yLY8x9aKM94ffGkD79X6jIu1vD7EXd64z3caECQMwJWLKXHKW+pUirC/Kdu1hGQuNC/2yrJXlaWlKo/96pA7byLgenuARPcnctz5GnTpyXWZFrf0JHQV1Y2wpIOgww0pdlkNS1dvuqsuSrcKUMD2V1bU9Fum+o9uIzCIev3Ok8feuzAhf1fbV8jPSkYOZHutWT2puHMoObV90cHXBRU86X1YldX6vindku3DCbmajxu4AQCO3eGB9ybExKT3xqOfY/5nv68eu0kblDak6jjhz7hel9evuMsb9/nGHEFC37IymXBk72HnhOrjJ44kMhe8TwNigg/H+6BuKI/CSjNaxJ1PS+oGPtfdhreR7Q/U9+ZSIrqRs/qev8qevxpWUGK4cr+95MWSvSRpqUlQ6WCv9A25c6CxL8sqEd+2uSZgUfMv23USdV1GHeikLzZzh1olclOmipqetzGrelNZviHFspp3blHtQQDA0ItIROpnfyD1HM6XqpLJt5aYq2dnflZk50b7M6cuzvL6EXd54z7fmCNI6FdystmT0QnRiUo3BzvihhIg1nzndE9MsyqBrvM/znkTgyVnciYhvxqaAK/I/bJjEtJtsYBX8pILqQjYVenNCavoMsrEZERCP7yK2v7mHSk7KZk+4apUAIAjpAOF9UPJzNermepOUHIiA+pJD+gHQQJ6oBLtc5Om96bielUSuVlTjzIsGXvurAqfam9HJuT3H1bFSaTltYAfcUsTzrcnsrOLpg3I9gCqGZ2oyH2zLw/2jqDkCQAwXHQvOjsiV/OLboCwc4cAAUOBIOG4dar3NtR03Um3gXK9ulBVpqQQVXle9+rka4DV9jKNtkPsb8peQG569tWUSWAPyz1Uj41hNVo2r5tSuhg9+ELndhAAgFFnMsw6qWyZ0uN04lAehfYC0p2uljdAcZc37vONA4KEfpmErN0gOVhSXsskxixhWJHlNZ3bH9yuwDCNj3WVpqhXeOPsezs1SeQuNUsToroqO3a68bYeG0Nkb+eWFK1tuiOre7r1dbjE2ejqWgCAEZGYDC1VNyIzCN2OQHQ7v2J5QqYjSugb+lpeDHGXN+7zjTmChAEwCdnMhegTzHST2l0D55Fi2g4EN9A1dfJT56P3SyeVFatufvbylCRq5egen45JcuaaqfZ0t7BiRtS2V0l97nRP6bBvTFC599D7BAAYRqbarEwEVptVTy3Rhd/hnYM0AwTdgYYeoGt1Ly2FiEChv+X1Lu7yxn2+04AgYRB0TzaHEdVudG9Ac7qh7Z3gxK1KTTqSkMnQjOXAM7fh5MZJcJm2A4mp9t/wEvgLUY1vkzNSChoLwadRmqD249BdrM5BSLUndePvUN1IRQnh58y4tLsAgHHndbQRWKMge17Szm5IT3w6QLjWCBDqdKBQjAoUYi8vprjLG/f5TgGChAGpLN+S8sSslJZmrIGwkmacgFlJ1DYiutmsuIN16C4v/fOaQbr0QFvXwwcMO7FxEnzMBRY82Mi9woY4GT0egt4v1sa5dfnzUyKdSga8uprT8zlzsQ5Lgy6T+6CCo9JM1ncj97ZLdxGrQr8oTnlXqt4509w1en4VvM1NuO0/vKkAgOFVWVbPupweG8f3NMjOSEnfy9eCxhLSA2nqAOFOYNqgHigshAQKvS+vP3GXN+7zjbtnXkmlP/LeH7szZ86Y/58+fWr+Hwc6gTidSzUb4zqOlHfumOoonejE4XROj73s0QOp7FXl0UPdB783LYAuEbhqEvx64JXuuzPtdj5d716tlsXRYx/4b2wqGFrTYyJoKiHvHxhGM/slo/ZLc+PEqVVl+370tjV4v68HljmaIMEt8m3dzrq27a1TwdbS/JSkffM5tV13u8759olum6FWPKmOccFbiPub+jhcMwFb/Sf0/Ktqfv+4EgCAIadrDczPNp8HTk0lMFcCMsHU91Z1V+I+3jNC0yMuX7UKomtydyEg06jr5Xn8z+kwvvVo0+vy6sZ1vn735wggSDgC5gKf2JVi1EjE6I25GEWK6kbJPgUAADhaVDcaMJ1TbHIAElNS0PX9i4tyxRRf6Zxq9bmfyv+nllu/f9gHTwMAABgXlCQMkFuCUJPyzpY88Hq70W0SFubc6kdUI4nJK0UILG4FAADAwBEkYOjp4Gv6SUibAAAAAAwcQQKGTnujrabQBsQAAAAYGIIEAAAAABaCBIw+PSBbfqrZdWwPKJkAAABoR5AAAAAAwEIXqAAAAAAsBAkAAAAALAQJAAAAACwECQAAAAAsBAkAAAAALEPZu9HLL7/svXPV/850pmtMdzHdxXQX011Md43a9LqTWj7Tma6N+/S6buejJAEAAACAhXESAAAAAFgoSQAAAABgIUgAAAAAYCFIAAAAAGAhSAAAAABgIUgAAAAAYCFIAAAAAGAhSAAAAABgIUgAAAAAYCFIAAAAAGAhSAAAAABgIUgAAAAAYCFIAAAAAGAhSAAAAABgIUgAAAAAYCFIAAAAAGAhSAAAAABgIUgAAAAAYHnmlVT6I+/9sTtz5oz5/+nTp+b/UyuZlVI+J3ulG3Jv35sGBMgu3ZarKfd9df0NWa6477tyDOdZcuamFHIJ894p35L8Jic0gNMiKVeWrkku5d4DxalJeW3lCJ/rMZeXTEr2wiWZzqQkIbsyX9j0/tBJ3O0b7/mS2RlZuDglCW82cRwp79yRe5WOCxx6BAkDlp1ZlOmcvvA8+iTb2Yo+WZIzKvGWHtog4UrxtnjpvgZ/AtCfMDRqGzLfU+r1JGVlaXVW0t6nQOoY3lU3iuG53t11lp6DhOM7z/Q5k9kjSABwWtTvy7fUfdl7NmYXZWFu4ojuub0vTz+rFzLqkbZXlUcPH8rjC9ekkKl2GSTE3b7xni+7dNNk3FXX77TMpyaOQUYZ1Y0GRp1gKmF0NXMg26U3ZH7BfRV3DiQzd11KS1nve6PnXkFtS2lXHPWv7G2b/8Tf37whxfWaeuf9fWQCBK0iy/pYmfVXwYB33JqvW3L3cEKu5m/KlaQ7BwAAftmlWUnXNhoJRW2/siL59UPJzc/IoB8fcZann9X5wg1Z3tyUyn5vide42zfW86lgQAcIZRVEtM2n0kySuy4jnPQzCBIGIilXiuoEO9wwEbnvXFEny6bkFzbESc3K2qifLSFMScJFkbuRUfqo2pfK8g25W0tI7vJ4Hj8AQB+SMzKdcqR8PyCDrLIl1cSUDPTxMSrLG/P5sq+qCKFWDk737G/Kdk0k/WrQAkcH1Y0GQUWTa3MixYUVlaQMoU7C1qoe/vrl4dSJ2yHx7RZ36eo+jlTXdUTrTu+kp/kC1l9NVL9xXa5O7EpRBUdR2740PyVpf5WliGpYdvWmgO03+7u54wZS9907hnfVMQzaDSYQCimWTSaz8trl85KZSPVcJ1HXZbx8Ma32TXPnOGrf7O28LZNzuugzqEpRvVjU/zd3WrPalC4Vcbel3/MszvY1qxvp5V9TN+BEowqe3r7toaq+BQDxRT0fNHMPlpZquC3PMXGabQNa79mtz7hYywvQ6Xfq4i5v3OfrJO58w4SShAG4cjGlLuKt8ESyZqLKhGQuNAutKstelZaWqjz2KzpAUGe3SYC5Et1HrXHna9ClJ9dlWl8A6sIKXUV1IyzlpyRxuCHFLqth6epNd03tH/XbQdtfWVHTb0lVvdWNd4+jzt9rGbWvDg+8Tz5q+wr5WcnIgUr43vJt36Hk1PZFFR7pIK0wl5YDldiuz6e3a1Xtm8mL/gR/Nypyv1xTsZfeZ/p3msFOX+dZH9snckGWzDlSldX6Mku3ZNurvjWmBWsATqOg54PfxKT3xqOfY/57si+Bau7ZpQ2pOjoDL+QZ1+vy+hV3eeM+X6is6IKG6qPRDRA0goS+ZWUy4cjew84J1cdPHElkLnifBsQEH473Qd1Quj0h486nJXWu9XU3pzgyQlbfqzfeUd/zV4H0V8MKSixW7qubZyoX3g4ge0klomsSVDo4UEnd28FNySVqcjdoW03Aom7iy3YdT10nUQc66Ysz3pQWKvF9NXUod3Xi3MpS3zf7ZrmgHhDelG7onJAF2epwPGKIu31KIjdlquDpeRuzqje6+laxrOadW1RnCACMgYhEpH72B1LP4XypKpm2Nm/q2ZmfFdmJKOGPs7x+xF3euM8XyKuC7uwefRrliBEk9Cs52ezJ6IToRJebw9t9VSMt1nzndLUjncut8z/OeRODJWdyJiG/GprTr3O/HZPQbIsFvJKXsHYAXZXe9CwlV1dvy5r/lb8uOZ0bsL4VWA0pSuWRSkUnJgMSwuoG4q1/+G+6Daq7OS66RGJB7hxLiYpf+PbV1aQYsgH7m3ek7KRkeiYsCgSAU0AHCuuHkplflKy5HaoAoZgLqWqK4edWw87pKr9RtSxGBEECeqAS7XOTpvem4npVErlZWSuG9xZw7qwKn2pvR14k+w+r4iTS8lrAj7ilCefbE6HZRZOzvz3wRHFw70Z6W+Xi9cht7UnygmS6LH2KpnMrbsr0k+MPELoSeez35cHeEZSsAcCoqaxIfkfkan7RDRB2dHea3t8wQurtNHWAENy+cdQQJBy3TvXehpquO+k2OK1XF6rKlBSiKpfrXp1ac+f9L91ewftqm/1N2QvIbXZ7FHj7mC5AX/WfxJQsBOR867ExSsXWbbsppYu+lmdHID133TTw7j/YiBZ3+5wnj713AHB6mQyzTipbpnQ1nTiUR3326tDV8gYo7vLGaz63nabbkct4BAgaQUK/TELWbpAcLGkav45Xwqkiy2s6tz+4XYHRaEgb9QpvnH1vpyaJ3KVmaYJpcK2ClWOv6OdWjbJzvvVN4bZczaiE+s4tKVrbdEdW93Tr66Oje7yY1/VZdTG1N22w+tu+xNno6mgAMDYSk+qOGSEyg9BNYOp2fsXyhEx3U2rd1/JiiLu8cZ/PcI9fTjr09DiCCBIGwCRkVeIx8gTLXpLcQKqYDBnTdiC4Aaups546H71fOqmsWHXXs5enJBHWL/ExS85ccxs0F1ZM42N7ldTnsHvK/kNR4UYXgWU050AtUddn1cXUq4MPFGJvX12HY2+C5r2H3icAGE2m2qxMBFabVU+tDr3cNAMEXW1UD3i2upeWQkSg0N/yehd3eeM+n0u3IRnPAEEjSBgE3dPLYUS1G90b0JxuqHonOHGrUls60TgZmvEaeOY26Iar9SogvXQrGXe+VqbtQGKq/Te8BH5QFZ0GPf6CWn7UaMaN0gS1H6Mv1qPklgS15SY4ByHFiurGH1odZ98tlTDb5E0KYI6PelB0pPazzn262in3Kc55Fmv76lLh18SRtSsBgGNmMstCMn6y5yN6udEBwrVGgFCnA4ViVKAQe3kxxV3euM+n03beQLrjGCBoBAkDUlm+JeWJWSktzVgJv6RKDOnegBK1jYjGpRXRme6mS0j/vOoE1N1vllavSyksoX1i4yT4mAtMrX/Ab9wrbIiT0eMh6P1ibZxb1z0/JaEjFtZ5dTWn53PmYj32Bl26G1SdU9DSDarJfVDBUWkm67uRe9ulu4hVSfIw+iFwt5Yy4wVcsSKFpBlgTbcBuDpxKHfXggd3aVV/qCxERnu9nWf9bJ/mlHel6l0TzUOv51fBz9yE277FmwoAo6yyrJ51OT12jO9uqe/l+l6n7uPtjzjdyFUHCMEdTzTu6SGBQu/L60/c5Y3tfDpA0Gk7FSDowdKCflcPprbWTw7sEGDE5QHTCajpXEoluz1djryr6cTTdK45Mq2et7pXlUcPdR/13rQAOsf5KEdctkdAdrWNcqyCocbokSoh3zpyodkvGd+IvWqZTq0q2/ejt63B+309sMxggwR1oVsjFQdzaruyqtbVP9aDoYKt1tGk9XfNdp3z7RPdNiNgxfVNaOHilG+/qPnNiMvBo1GbERy9n7T2hS6RsRqB656aghPhPZ1nPW6fGbnSO1ncc0Svc8uIy2H7EgBGmU44zqvnSfNmpxKYKwGZYAHPHd8zwn+fd4Xcz7tensf/nA4T8qwyel1e3TjO1/bMDRG1P0cAQcIRMBe4aeEeHrWiR+bmJlJUN0r2KQAAwNGiutGA6ZxUkwOQmJKCru9fXPSqk+gqK6Nf9HQy3Prvgx88DQAAAEEoSRggtwShJuWdLXlQcXuD0W0SFubc6kdUs4jJK0UIqz4DAACAwSJIwNDTwdf0k5Y2EAAAADgyBAkYOu2NtpraGkwDAABg4AgSAAAAAFgIEjD6uu2KLAAlEwAAAO0IEgAAAABY6AIVAAAAgIUgAQAAAICFIAEAAACAhSABAAAAgIUgAQAAAIBlKHs3evnll713rvrfmc50jekupruY7mK6i+muUZted1LLZzrTtXGfXtftfJQkAAAAALAwTgIAAAAACyUJAAAAACwECQAAAAAsBAkAAAAALAQJAAAAACwECQAAAAAsBAkAAAAALAQJAAAAACwECQAAAAAsBAkAAAAALAQJAAAAACwECQAAAAAsBAkAAAAALAQJAAAAACwECQAAAAAsBAkAAAAALAQJAAAAACwECQAAAAAsz7ySSn/kvT92Z86cMf8/ffrU/H9qJbNSyudkr3RD7u1704AA2aXbcjXlvq+uvyHLFfc9AOCkJeXK0jXJpRLuR6cm5bWVI3yux1xeMinZC5dkOpOShOzKfGHT+0MncbdvvOdLqjTc5fmcpBPefOJItXxHljc7LnDoESQMWHZmUaZz+sLz6JNsZ0vuVSJOluSMChLSQxskXCnellxjg1xO+ZbkvQsgOXNTCv4v1DZkfmRSr1lZWp2VtPcpkDqGd9WNIuoQHi93nYUgAQCGRP2+fEvdl71nY3ZRFuYmjujZ3vvy9LN6IaMeaXtVefTwoTy+cE0KmWqXQULc7Rvn+VRQUbyu0kcqKFhXQUFjvhk135QkRiotFOzZiUTiX3vvj91LL71k/v/www/N/6NNnWDFvFycrMp//L1/J3/wh9+Tra3vSfWvPiVfmpuTX/+V/yVvPviR990Wv/QP5de/mBDnv/yJ/NkH3rQh8mdvqm2pPi+f/+Ivyn8t/Sv5t2rb3nynuaIfvPMnUn3vV+SL6uZT1n//zyHbOZR+JA/UcdpS6385cyh3F27IH+jPjVdN3vvV/5dc/fI/luerw3J8PiWfv6R29t73JOyUAgAcn+ySev4fbkh+8394U9Sz8UcP5M33flX+5T/7lFTffEcG+fiIszz9rH7zzT+RB++8Iz/64AOV9PjH8sVJR7bUdzuJu31jPV/2t+Rf/p863XNDvvM/mn/94EfvyJs6zfTl/1M+MTTphnhokzAQOpqclbQ6wXRE7gWTxn5lU/ILG+KkZmVtKetNHS+mJOGiyN3IKH1U7Utl+YbcrSUkd3k8jx8AoA/JGZlOOVK+H5BrXNmSamJKBvr4GJXljft8lRWZXwhJ9+wfiCMJmTznfR5RVDcahOyirM2JFBdWVJIyhDoJW6sU+euXh1MnbofEd3bppvodXd1HF3ndkG5Lt3qaL2D91UT1G9fl6sSuFFVwFLXtS/NTkvZXWYqohmVXbwrYfrO/mzvOX/UpNu8Y3lXHMGg3mEAopFhW10d87fJ5yUykpFklUa33zp3oamaKLpa8fDHtq8uoZ63J3s7bMjmniz6DqhTVi0X9f3OnNatN1QK2RR+va+pmmGhUhwtblr8Kmdm/D9Vxueyrq6noebcjqmEd+37p8TwDgEGIej5o5lkvLVVPWp5j4jTbBrSmDVqfcbGWF6DT79TFXd64zxfJpJmmxBnxasGUJAzAlYspdRFvhSeStf1N2a4lJHMh6U1QQejyGyoKVa/SrkoK68Sw99l6RQcI+kTUiT5XQtKvBoW7AeLO1+DWxZvWF466sEJXUd0I9YWSONyQom/7ijsHkpm7LqWA0pV7hTfkbk290fX5grbfRO+3pKre6sa7fQcIXXgto/bV4YH3yUdtXyE/Kxk5UAnmW77tO5Sc2r6owiMdpBXm0nKgEs31+fR2rap9M3mxQzuJNhW5X66pNLHeZ/p32gOEpVUd0FVl23cc8mtbIq/m2pa1v3nD/L3s6E8XZCl/XW1j2TqGqzsi0/mbwdt43PslxnkGAAMT9Hzwm5j03nj0c8z/7PclUE3aoLQhVUdn4IU843pdXr/iLm/c5wuSzJoMK90mYZQDBI0goW9ZmUw4svewc0L18RNHEpkL3qcBMcGHSckp6obyqMszMu58mr4AVIIzs3dL8pFXgPqezinRuSDqe/u+XeSvhhWUfqvcVzfPVE6uNGMqW/aSSizWJKh0cKCSureDm5JL1ORu0LaagEXdxJd1NbPmBu6r6TrQSV+c8aa0UInaqym3DYSdy71v9s1yQT0gvCnd0DkhC7IVfjzM/lIPozW7Opw+KPeWy5HLSuTUzS7wGK5IvlSVxNyiOtItjnW/xD/PAGAgIhKR+tkfSD2H9T00k7/Z8qxT97T8rMhORAl/nOX1I+7yxn2+Bp0uui1r+qWOXWKvx5KHIUWQ0K/kZLMnoxOi68y7OafdVzXSYs13Theh6dxcnf8RXdkuOaNzqGuyGprTr3O/HZNgbIsFvJKXsHYAXZXe9CwlV+sXeeNivy45lf6srm8FVkOKUnmkUsOJyfYEtC6F8dY//DcrsqyOTTfHRee8L8id6BKVyttSddySLBX3tOiwLGc3/Bia45SS6ZmwaK7doPdLX+cZAJwkHSisH0pmflGy5galEpvFXEhVUwwv99mkS73vltUzLpeTpR6ei8OKIAE9UIn2uUlTXaW4XpVEblbWiuEJr3NnVfhUezsyIb//sCpOIi2vBfyIW5pwvj0xmV00OfvbUYniWHQ9fn2R+1+3zLbKxeuR29qT5AXJdFn6FE1X+bop0086BAiGuoEVbsn22WuykG8GQSU1/9JMhyz2w4PIY6hzWQZSQhZzv/R7ngHAidKlsjsiV/OLboCwo7vT9P6GEbMvlU2vlD0XXbV2FBAkHLdO9d6Gmq476TZUrVfjqMqUFKKuAt2rkz9nvvWl65F7X22zvyl7TnsudfbVlEkUHs891FfNJTElCwE5A3psjFKxddtuSumir+XZEUjP6f6ZpYdEtdtTU94XBOULd+TR2VxkAOQ8eey9682x7pd+zjMAOEImI6OTypaU1fMunTiUR312tNDV8gYo7vLGej5Tyh5RtXZEECT0yyRk7QbJwZKm8WvcBNdwqsjyms7tj6jv3WhIG/UKb5x9b6emovFLzdIE0+BaBStH3hihlVtlxc4x1zn5t+WqHrJg55YUrW26I6t76g5xhHSPF/O6Pqsupvam9c4NHMoRwV7ibK99uJ3AfunzPAOAviQmQzNajMgMQn3PdNv5FcsTMt1NqXVfy4sh7vLGfb4I3bVlGG4ECQNgErIq8Rh5gmUvmVH5+q9iMmQiomVT9zx1Pnq/dFJZMbkr9dKE7GXdY0B5KBJ7yZlrboPmwoppZGuvkvocdk/Zfyi6/+TOgWU050AtUddn1cXUq/0ECiIP9tTNLKzhlpoetaY6l8XZe+h9Ov79MpDzDABiMtUZZSKkOmNWdOF3eOcgzQBBVxvVPcut7qWlEBEo9Le83sVd3rjP10nckothQpAwCLrHlsOIaje6N6A53SDzTnDituOgG4FnboNuuOpWqwjpjjJE3PlambYDian23/AS+EFVdBp0X8Jq+aG9GCmN0gS1H+NerP1zS4LachOcg5BqT+rGH1qtZt8tlTDb5E0KYI6PelB0pPazzn26GvFQ0Tn7pYjjYG5moTkswdWsDFOyE9A+5Dj3y4DOMwCIxWSWhWRwZM9L2tkN6YlPBwjXGgFCnQ4UilGBQuzlxRR3eWM+X+Rz1TwbVXplJ3jshVFBkDAgleVbUp6YldLSjJXASZr+22dNf7nhjUsrojND07orSf+8KlGsu98srV7vcCLWo9XjHCfBx1xgav0DfuNeYUOcjO6nXu8Xa+PcOuv5KZFOJQNeXc3p+Zy5WI+9QZfuBrWo6//b3aCa3AeVgC7NZH03cm+7dBexKvQLox8Cd2spuaq7vrNSxEkzkJiuy3914lDurnV3g6k/VBYioj3diEqPF9Dau1F2Rg+qF9LFq+KUN2TPHEN7XvfcTouzbo/JcBL7ZSDnGQDEVFlW9yDTUNV319P3rLkJ0/V0+63HHdwysxfc8UTjnh4SKPS+vP7EXd44z3dvbVdEzbNW1Gk3/3z1Z87oj5PAiMsDphMk07mUSnZ7uhxhVtOJtelcczRcPW91ryqPHrb0bd9C56we5YjL9gjIrrZRjtVF0Rg9UiXkW0cuNPsl4xt5Vy3TqVVl+370tjV4v68HlhnsRaf7Nu48cJlT25VVta7+PvgNFWy1jvKrv2u265xvn+g68wErrm9CCxenfPtFzW9GFg4eJdiM/Oj9pLUvdE651ThX99TUTLzrY6hzq1YPLrSMZOweh8BtU+rz5dXhDBqtOXTE5WPeL3V9n2cAEJcZREs9Txo3yZpKYK4EZE4EPHd890L/fd5l388bul6ex/+cDhNyTzZ6XV7dWM+nM6IuxU73DTuChCNgLvCJXSlGjUSM3pibm0hR3SjZp8enGSSw1wEAOE2objRgeuRbkwOQmJKCru9fXPSqTegqK+pzP5X/Ty23HvvgB08DAABAEIKEAdIlCIXMoZTXm90+FndEMnPXZU3XxT7clWJgqxlEMj1DHcXgaQAAAAhCdSMMPR18TT+hystJoLoRAACnE0EChk57o62mtgbTOBK62lyhtbW6wv4HAOB0IEgAAAAAYCFIwOhr6/6ze+SMAwAAtCNIAAAAAGChdyMAAAAAFoIEAAAAABaCBAAAAAAWggQAAAAAFoIEAAAAAJah7N3o5Zdf9t656n9nOtM1pruY7mK6i+kuprtGbXrdSS2f6UzXxn16XbfzUZIAAAAAwMI4CQAAAAAslCQAAAAAsBAkAAAAALAQJAAAAACwECQAAAAAsBAkAAAAALAQJAAAAACwECQAAAAAsBAkAAAAALAQJAAAAACwECQAAAAAsBAkAAAAALAQJAAAAACwECQAAAAAsBAkAAAAALAQJAAAAACwECQAAAAAsBAkAAAAALA880oq/ZH3/tidOXPG/P/06VPz/6mVzEopn5O90g25t+9Nw/jjuAPAGEnKlaVrkksl3I9OTcprK0d4f4+5vGRSshcuyXQmJQnZlfnCpveHTuJu37jP15ScuSmFnJ7fkfIYPNsJEgYsO7Mo0zl94Xn0SbazJfcqEWdKckYlFtNDm1i8Urwt5pz3ccq3JL/prmzzovDUNmR+ueJ9GHJm3081j1cbR6rlsixvHsH2DPlxBwB0KytLq7Mi67dk2XveJ7OLsjA3cUT3+N6Xp5/VCxn1VNuryqOHD+XxhWtSyFS7DBLibt+4z+fn/UZ5VxK58Xi2U91oYNTJoRLTVzMHsl16Q+YX3Fdx50Ayc9eltJT1vjd67hXUtpR2VXJZR8budtUDBG1/84YU12vqnff3UQkQtP1NyetjZda/Jne949Z83ZBHZ2dlbYSPHwDgaGWXZiVd22gkMLX9york1w8lNz8jSW/aoMRZnn5W5ws3ZHlzUyr7vaVe427fuM/n1/iNh96EMUCQMBBJuVJUJ8fhhonIfeeYOsl0InRDnNT4JjRNScJFkbtjEDUHqSzfkqo6fsQJAIA2yRmZTjlSvh+QQVbZkmpiSi4P8vkxKssb9/n8on5jhFHdaBCyi7I2J1JcWJHQNLI6gVqrlmSXbsvVlPs+nDrpOiS+s0s31e+4deCq6zdUJOxO76Sn+QLWX01Uv3Fdrk7sSlEFR1HbvjQ/JWl/nZ6Ialh29aaA7Tf7u7nj/FWfYvOO4V11DIN2gzlWElKNqsfti3fc3WLMtHmvSzx869nF/rCX2ZzfXz3Oqe3K6nLzODbncb8vLVXpnNqG+n4l/LgDwClgMsoiqu0EPj9a7tviNNsGtD4jWu/psZYXoNPv1MVd3rjP56e/M/3EO06B6aXRREnCAFy5mFIX8VZ0Yml/U7ZrCclcaBZaVZa9Ki0tVXlaq7tEnmTqZJyuN7JRybf0q53CXU/c+Rp06cl1mdYXjrqwQldR3QhNnf/DDSl2WQ1LV2+6a2r/qN8O2v7Kipp+S6rqbXXdrvp07GJsX7zjXpFlPd1Ui2ph9oeeZ8PskyCNZTbm18dP3dTOHsiqt/xtmZKCb33NPOb7EzLd8t350oY4E7PW9wHg1Do88N6EmJj03nj0fdv/DPAlUM29V91jq47OwAt5xvW6vH7FXd64z6epdMDVVE22TzItckQIEvqWlcmEI3sPO58cj584kshc8D4NiAk+HO+DuqE8Co90LXHn05I6V/u6ZPZU1BwRWet9s6RzSnQuiPqevwqkvxpWUDqzcl/dPFM5uRJagfCSpKUmx1KyZwIqFZC07aP423eydKL/mnf8VIDnrXflvnooPXHf21Qw2fJdtYGyvKaPEdWwACAqEamf/YF0m7hSVTL5my3POvVsyc+K7ESU8MdZXj/iLm/c51PqGcXHkRw5bgQJ/UpONqpfnJTK8g0vJ7n7qkZarPnO6WI0Xe1F53+c8yYGS87kTEJ+NTS6rsj9siPpiwGNgrySl1xIRcCuSm/6llTxkFuVSAcCrfuor+07UQlxdu60507phH9gL04hOST7B+ocUL82OVxbBwAjQwcK64eSmV+UrLmVqgChmBNZf6On5zlOSHZRcrIbkQ4YbQQJ6IFKtM9Nmt6biutVSeRmZa0YngA+d1aFT7W3IxPy+w+r4iTS8lrAj7ilCefVLbOFvigTR1G0l5Krq7dlrfG6LoWLk/JoLbi4t9/tOzk1eRTQVgIAcAJ0Lzo7Ilfzi26AsHOHAGEkJE2GZXUnosr1iCNIOG6d6r0NNV13csX03lSvTlNtqcfeRvfqZCW8W15RYxTsb8qek5LpGTuFnX01ZRLng7+H2l2g6m5dnURKXo0qMOln+wAAY89kKHVS2ZKyet6lE4d9Z+J0tbwBiru8UZ8vOXPNlCKMc0BHkNAvk5C1GyQHS8prmYQ4Tx57n8dBF/XSTePjZsI7+BXeOPveTk0SuUvN0gTTPkAFK8fQGMH0kVzalcTc7SPbPgDAGEhMRlcrjcwgdDsC0e3EimXdZqyLKqp9LS+GuMsb4/lM8JCYCskcTEguf1tKLZmco4YgYQBMQjZzIfoEy16SXJcNnEeKaTsgpt59q8oj9YfU+ej90olKqOvclXppQvayuvhq5eNLdJv6ojVJzy22VXsayPYBAEaaqVYqEyHVSrOiC7/DOwdpBgi6Wqse8Gx1Ly2FiEChv+X1Lu7yxn2+Rq+BrS9fr1Un2vviABAkDIJKyN49jKh2o3sDmtMNbe8EJ25NA9CETIZWawk8cxv0eAduBHuzp55m4s7XyrQdUNF02294CfyFqEha9yeslh/ai5HSKE1Q+zHsYj1S+vjWUnK1dQP73b4+j3ub7HmqNgHAcTOZZSE1CtR9Oe3shvTEpwMEr6c5X2JSBwrFqEAh9vJiiru8cZ/vFCBIGBA9Km95YlZKSzNeDwWupOlHf1YStY2IiLIiOlPa5Fb751WJ4isqIV9avR5eZBV3vIO48wUxF5ha/4DfuFfYECejxwvQ+8XaODOQlx5jQDqVDHh1Nafnc+ZiPYn6f24j6vZqVf1tX4zjXt8X1nQ9qJ36/sUJ7zMA4DhVltWzIHddPSOa92bdO15pbkLKa0ENW/V9WwcIAT3NKfVAYSEkUOh9ef2Ju7xxn2/cMeLygPlHsDUcR8o7dwJH3m2Vnbmp5tU12Tx6IJW9qjx6uGkaC4c56hGX7RGQXW2j+qpgqDF6pErIt45caPZLRu2X5saJU6vK9v3obWvwfl8PLDPQIEHn9Ac0Lg4atdiMyqh3xIC3r+fjrkum5mebIzw3zrFzzVGZ/esYso22llGcTQ7Xdfu46/YX9Z3vP95awD4BgFOl7d5cUwnMlYBMIvW9xgj6Ht/91Yzw67u9tt+fPV0vz9N63w7iv8+36nV5deM+n6f9uKmfCEhLjBKChCNgTpSJXSmqRNPonhpDxtzcRIrqRsk+BQAAOFpUNxowndtsIsnElBR0ff/iolwxxVc6Z1Z97qfy/6ml9t2xDJ4GAAAAjZKEAXJLEGpS3tmSB5V9k6DVbRIW5tzqR05tV1bvb8o+Kd3eeKUIgcWtAAAAGDiCBAw9HXxNPxnten0AAACjhCABQyeo8U/dqDcCAgAAGAUECQAAAAAsBAkYfV118RmMkgkAAIB2BAkAAAAALHSBCgAAAMBCkAAAAADAQpAAAAAAwEKQAAAAAMBCkAAAAADAMpS9G7388sveO1f970xnusZ0F9NdTHcx3cV016hNrzup5TOd6dq4T6/rdj5KEgAAAABYGCcBAAAAgIWSBAAAAAAWggQAAAAAFoIEAAAAABaCBAAAAAAWggQAAAAAFoIEAAAAABaCBAAAAAAWggQAAAAAFoIEAAAAABaCBAAAAAAWggQAAAAAFoIEAAAAABaCBAAAAAAWggQAAAAAFoIEAAAAABaCBAAAAAAWggQAAAAAlmdeSaU/8t4fuzNnzpj/nz59av4/tZJZKeVzsle6Iff2vWkYfxx3ABgjSbmydE1yqYT70alJeW3lCO/vMZeXTEr2wiWZzqQkIbsyX9j0/tBJ3O0b3/muFG9Lzvt6u5rcXViRivdpFBEkDFh2ZlGmc/rC8+iTbGdL7lUizrLkjEospoc2sRh0ETjlW5LfdFc2OXNTCv4v1DZkfnlULgt1Uyhej7jIfZxebqZdGPLjDgDoVlaWVmdF1m/Jsve8T2YXZWFu4oju8b0vTz+rFzLqUbZXlUcPH8rjC9ekkKl2+VyLu33jPZ9OH2X2mumhcUN1o4FRJ5g6Wa5mDmS79IbML7iv4s6BZOauS2kp631v9NwrqG0p7Yqj/pW9bfNfEPubN6S4XlPvvL+PTICg7bvbZ9ZfR/3u9rW+imXH/ToAAC2yS7OSrm00EpjafmVF8uuHkpufkaQ3bVDiLE8/q/OFG7K8uSmV/d4StXG3b9znG3cECQOhc6PVCXa4YSJy3zmmTrJNyS9siJOalbURDhSimJKEiyJ3I6N0AADGUHJGplOOlO8HZJBVtqSamJLLg3z8j8ryxn2+U4DqRoOQXZS1OZHiwoqEppHVSdhatSS7dFuuptz34dSJ2yHxnV26qX5H15dxpLp+Q0XC7vROepovYP3VRPUb1+XqxK4UVXAUte1L81OS9lfpiaiGZVdvCth+s7+bO85f9Sk27xj2Un+wefzceofSUtXMqW3IqtqprWvW93HvcX9q9jKb9ST91eOc2q5a34jjCABoYzLKIqrtmPuvtFTDbXmO+auztj4jWp9xsZYXoNPv1MVd3rjPp1HdCB1duZhSF/FWdOJqf1O2awnJXGgWWlWWveosLVV57Fd0gKDObhUB11OLCUm/2mW4G3e+Brcu/7S+cNSFFbqK6kZYyk9J4nBDil1Ww9LVf+6a2j/qt4O2v7Kipt+SqnpbXberPg1OUpZWb0tU4Y85fqaa0oRMqxvF9NkDWa1vY2lDnIlZKQT8QF/HPcb+1BrLNOur6eNnr/O2TAWuLwCgg8MD702IiUnvjUc/x/zPAF8C1dyv1TOk6ugMvJBnXK/L61fc5Y37fNrZc3Jl6aasqTSD+7ppnsXjUEWJIKFvWZlMOLL3sHNC9fETRxKZC96nATHBR72+vLqhPGqPdAPFnU9L6gY+193oOSCyblLf0zklOhdEfc9fBdJfDSsoXVq5r26eqZxcCa1AeEnSUpOg0sHBOOf93w0VbJl9oYKl+jbuV2R5TW9D8PbFE39/2nRQc807fs11rtxXD6Un7nsAQA8iEpH62R9IPYfzpapk8jdbnnXqXp+fFdmJKOGPs7x+xF3euM+nJCbOizy6I0Uv026+dEf2dCZhcfTbMhAk9Cs52aheclIqyze8HOXuqxppseY7p6sdzaoEus7/iE5IJ2dyJiG/GprTX5H7ZUfSFwMuJK/kJRdSEbCr0puepeRqIydAb2O3arIdtI37B2ofqRvI5GBuE33tT0tCnJ077blTOrDZPLKoCwDQSgcK64eSmV+UrLlx605QciLrb/T0PMfJMB2fFFZMVd/GE3Vfd4hyS8oy+m0ZCBLQA5Von5s0vTcV16uSyM3KWkSkfO6sCp9qb0cm5PcfVsVJpOW1gB9xSxPOq1tmi+yi5BIhCfO++Hs32jDVmYZJv/uzqSaPQtouAACOme5FZ0fkan7RDRB27hAgjLx9ebDnxKjKPVwIEo5bp3pvQ03XnVwxvTfVq7dUO9Vj1706NXLnA166fr331Tb7m7LnpGR6xk7xZl9NmcTy0d5DH3v/D5l+9icA4NiZDJ5OKltSVs+7dOKw70ycrpY3QHGXN+7zGRHVmEYBQUK/TELWbpAcLCmvZRLiPBnSxGcsXdS7N42P67nzYa/wxtn3dmqSyF1qliaYBtcqWDm6xgiefVlW69bMzenckPlY9Lk/AQBHIDEZXc0zMoPQ7QhEtxMrlnWbsS7qsve1vBjiLm/c5xtzBAkDYBKymQvRJ1j2kuS6bOA8UkzbATH14FtVHqk/pM5H75dOKismd6VempC9PCWJWvkEEsFu+4tBtS+IYyD7EwAwUKaap0yEVPPMii78Du8cpBkg6HZiesCz1b10ZKPX/pbXu7jLG/f5OtEZw6MeXBAkDIJKyN49jKh2o3sDmtMNbe8EJ25NA9eETIa2Aw48cxv0eAdudZObPeV0x52vlWk7kJhq/w0vgb/QUl3IkpyRklp+aC9GSqM0Qe3HuBfrUOr1uA9ofwIABsjraCOwRkH2vKSd3ZCe+HSA4PU052tjpwOFYlSgEHt5McVd3pjPp7sRD+t23G07eRy1Ho4WQcKAVJZvSXliVp0wM14PBa6k6dd+VhK1jYj+/CuiM4nTc/XeDVxJlSjWfe+WVq9LKSxheGLjJPiYC0ytf8Bv3CtsiJPR/ffr/WJtnBnIS/f5L51KBry6mtPzOXOxjk+Drt6P+0D2JwBgoCrL6t6cuy5Lvpt5MjsjpbkJKa8FjSWkByPVAUJAT3NKPVBYCAkUel9ef+Iub5znu7em5lHpvrWifob75tPP4qiM4RHCiMsD5h/B1nBUJLmjTpQuGiJlZ26qeRPWvNW9qjx6uGkaC4c56hGX7RGQXW2jHKtgqDF6pErIt45caPZLRu2X5saJU6vK9v3obWvwfl8PLDPYIMEt6m3dvjDN7Q6YT7cXqK+cf39oAfukLs5x72l/6tKFjg2am6MwAwBi0LUG5mebo+HrkfDXVgISiup7rd1s+54fZoRf3+Mj9P7c9fI8rc+lIP7nWKtel1c35vO1p/vUfDtbXaX7hh1BwhEwF/jErhSjRiJGb8zNTaSobpTsUwAAgKNFdaMBS87o3Hn1JjElBV3fv7goV0zxlc55Vp/7qfx/aql9dySDpwEAACAIJQkD5JYguMVMDyru6Hu6TcLCnFsM5dR2ZfX+ph6MD73wShGoDgMAAHA8CBIw9HTwNf2kpQ0EAAAAjgxBAoZOe6OtprYG0wAAABg4ggQAAAAAFoIEjL6uuvgMRskEAABAO4IEAAAAABa6QAUAAABgIUgAAAAAYCFIAAAAAGAhSAAAAABgIUgAAAAAYBnK3o1efvll752r/nemM11juovpLqa7mO5iumvUpted1PKZznRt3KfXdTsfJQkAAAAALIyTAAAAAMBCSQIAAAAAC0ECAAAAAAtBAgAAAAALQQIAAAAAC0ECAAAAAAtBAgAAAAALQQIAAAAAC0ECAAAAAAtBAgAAAAALQQIAAAAAC0ECAAAAAAtBAgAAAAALQQIAAAAAC0ECAAAAAAtBAgAAAAALQQIAAAAAC0ECAAAAAMszr6TSH3nvj92ZM2fM/0+fPjX/n1rJrJTyOdkr3ZB7+940YFhwfgJAF5JyZema5FIJ96NTk/LayhHeN2MuL5mU7IVLMp1JSUJ2Zb6w6f2hk7jbN+7zNWVnFt396v2EiPqNUm+/MUwIEgbMnCA5feF59Em2syX3KhFnSHJGJcLSQ5sIu1K8LbnGBrmc8i3Jb7orm5y5KQX/F2obMr9c8T6MhrZtCDKC2zUQQ35+AsDJy8rS6qzI+i1Z9p73yeyiLMxNHNG9s/fl6efcQkY9v/eq8ujhQ3l84ZoUMtUug4S42zfu83nUc3JpfkrSKii4u7Yllf1OM4wGgoSBUSdYcVadILvqBNlUJ4g7NZmdUSfZlElg5sMSmKOQCOuwjvpiKqiLqTzM29CD7NJtuSqnNChoRZAAAJFCnxnq2bh28UCKKiE+yNvnIJZnMse6DBLiLm/c5zPMM1Kl83yZp+OCNgkDkZQrOkA4VCeYOpHqAYK2X9mU/MKGOKlZWVvKelPHi7nRXBS5SyISAHDaqETidMqR8v2WBKZW2ZJqYkouD/LxPyrLG/f5DJX+mx/PAEGjJGEQdKQ5J1JcWOkQadq5sSZyTbnvw6kTt0PiO7t0U/2OrirjSHX9hrQGwmF6mi9g/fXFkV26LlcndjtG2aYYzl+bJ6Iall29KWD7zf5u7jh/1adBCc1V8Gkev5rcVcdeWqqaObUNWVXzh6+Z3n/X1M0p0ZxH7Ze9nbdlck4Xe74RfEx63J+afa6566t/2l89zqntqvVtHsdBnZ8AMM465cgHPk9anmPiNNsGtN57W59xsZYXoNuShLjLG/f5jG5KGkYYJQkDcOViSl3EW9EnyP6mbNcSkrmQ9CaoAHX5DZlfUK/Srkpq6cSW99l6dUiAmQi4nlpMSPrV0HDXFne+Bl16cl2m9YUTdXGoC0gXwyUON6To277izoFk5q5LKaB05V7hDblbU290G4Cg7a+sqOm3pKreVlVC+qSid3P81vWKTsi0Cmymzx7Ian0bSxviTMxKIbT0KClLqzrAqsq2b7/k17ZEXs1J2vtWmxj7U2uca2Z9NX387HXelilrfQdyfgLAaXB44L0JMTHpvfHo55j/3upLoJp7r3qGVB2dgRfyjOt1ef2Ku7wxn8+k//YejmWAoBEk9C0rkwlH9h52PkUeP3EkkbngfRoQE3w43gd1Q3kUEOkGiTufltQNfK5LZu9WeDsLQ31P55ToXBD1PX87Hn81rKB0beW+unmmcnKlGVPZspdMA6Gg0sHjp4Itsy9UsFTfxv2KLK/pbQjePnf91cPB137FUD9wb7lsAqB28fenTQc117zj11znyn31UHrivgcA9CAs8anoZ38g9RzOl6qSyd9sedape31+VmQnooQ/zvL6EXd5Yz2fTv+pFNSBfojqnpFuytrqbfdVXAxPv4wQgoR+JScbVUVOSmX5RiNXNzLN3iLWfOd0tSPdQFvnf5zzJgZLzugc8Zqshub0V+R+2ZH0xRl1ebXwSl5yIRUBuyq9OTY12Q7axv0DtY9UCDEZcKeovC1Vxy1ZSrb9WQUY6ri0HpO+9qclIc7OnfbcKR3YbA5F1AUAp4MOFNYPJTO/KFlz49adoOTCq5tiCLk1KzJSlqJXyq5L9yfnb3aRaTfcCBLQA5Von5s01WOK61VJ5GZVtByeID13VoVPtbcjE/L7D6viJNLyWlA62pQmnFe3zBbZRcklQhLmI0MlyAu3ZPvsNVnIezkP6lUqqpvKTPBdpd/92VSTRyFtFwAAx6yyIvkdkav5RTdA2LlDgDAKvEzixMVrkjt0e7CsP1l16f5yoSxycbFDpt1wI0g4bp3qvQ01XXdyxVSPqVdvqbbUY2+je3WqF78FvXT9eu+rbfY3Zc9JyfSMfYllX02ZxPLo30P3TWlO3st50K984Y48OpsLD7762Z8AgGNnMng6qWxJWT3v0onDvjNxulreAMVd3rjMl1DH7G5gVFeRA5nokGk33AgS+mUSsnaD5GBJeS2TEOfJY+/zOOhQ714zjY+bieDgV3jj13s7NUnkLjVLE0yDaxWsDEdjhCPgBg7lsOCrz/0JADgCicnoHOPIDEKvusreLSmWdZuxTlVGlb6WF0Pc5Y3zfPsPVfpP/e8chGRa6jYLCZmMrpk91AgSBsAkZDMXok+w7CXJddnAeaSYtgNi6sG3qjxSf0idj94vnVRWTO5KvTQhe3lKErXy2CeCH+g7T0tDqoHsTwDAQJlqnqE5xlnRhd/hnYM0AwTdTmx/84as7qWlEBEo9Le83sVd3rjPp+Z0n9UqwAjOJ63IgePIwQjnDRMkDIJKyN49jKh2o3sDmtMNbe8EJ25NA9eoaDPwzG3Q4x241U16ayQTd75Wpu1AYqr9N7wE/kJLdSFLckZKavlRvQA0ShPUfgy/WEeL7n60FLFfTPFma87FgPZnz/o8PwFgrHkdbQTWKMiel7SzG9ITnw4QvJ7mfG3sdKBQjAoUYi8vprjLG/f5lP3NO1KV9mrRhnoeZ9RfH4xwpiZBwoBUlm9JeWJWSkszXg8FrqTp135WErWNiP78K6IzidNz9d4NXEmVKNZdapVWr4cnKOOOdxB3viDmAlPrH/Ab9wob4mR0//16v1gbZwbyMkOZdyoZ8OpqTs/nzMU6Lg26Ejl3XIPW3o2yM3qQu1pgHceB7M+e9XF+AsApUFlW92Z1T1/y3SST2RkpzU2Yrq7bb8nuYJqZvYCe5pR6oLAQEij0vrz+xF3euM+njpQsr+uMzGst87rPY2cnat7hx4jLA+YfwdZwHCnv3AkdCddPJw6nc83Rd/W81b2qPHrY0pd+i6MecdkeAdnVNsqxuiAao0eqhHzryIVmv2TUfmlunDi1qmzfj962Bu/39cAyRxEkmBEXWzeylW4P0Fi4W0RszeL/u39/aC37RO9TnXu0enBBLl9MS7qxY9z9sqr2i38chFY97U9dutCxQXNzFOYwcc9PADgVdK2B+dnmaPh6JPy1lYBMG/W9Vd2VuI/v+WFG+PU9PkLvz10vz9P6XApiPeda9Lq8unGfT1PP2aX5qXjzDjGChCNgLvCJ3bEdpvtEmJubSFHdKNmnAAAAR4vqRgOmc6RNDkBiSgq6vr8edc8UQemcZ/W5n8r/p5bad0M1eBoAAMB4oyRhgNwShJqUd7bkQWXfJGh1vbSFObf6kVPb7ViNBAG8UoRO1WEAAAAwGAQJGHo6+Jp+0tIGAgAAAEeGIAFDp73RVlNbg2kAAAAMHEECAAAAAAtBAkZfV118BqNkAgAAoB1BAgAAAAALXaACAAAAsBAkAAAAALAQJAAAAACwECQAAAAAsBAkAAAAALAMZe9GL7/8svfOVf8705muMd3FdBfTXUx3Md01atPrTmr5TGe6Nu7T67qdj5IEAAAAABbGSQAAAABgoSQBAAAAgIUgAQAAAICFIAEAAACAhSABAAAAgIUgAQAAAICFIAEAAACAhSABAAAAgIUgAQAAAICFIAEAAACAhSABAAAAgIUgAQAAAICFIAEAAACAhSABAAAAgIUgAQAAAICFIAEAAACAhSABAAAAgIUgAQAAAIDlmVdS6Y+898fuzJkz5v+nT5+a/0+tZFZK+ZzslW7IvX1vGsZcVpZWZyXtfTJqGzK/XPE+HAHOMwA4Qkm5snRNcqmE+9GpSXlt5QjvtzGXl0xK9sIlmc6kJCG7Ml/Y9P7QSdztG8f5Ap7hAarrb8hRPtaPGkHCgGVnFmU6py88jz7JdrbkXiXi7EzOqMRbemgTb1eKtyXX2CCXU74l+U13ZZMzN6Xg/8JRJ3YHLbsoa3Mp70M7Rx3DbXWjiDqE/cou3ZarctRBwnCfZwAwutxEo6zfUolC79moni0LcxNHdM/tfXn6Wb2QUc+0vao8evhQHl+4JoVMtcsgIe72je98Om00uRMWBNR/b7SDBKobDYw6IdQJczVzINulN2R+wX0Vdw4kM3ddSktZ73uj515BbUtpVxz1r+xtWz1A0PY3b0hxvabeeX8ftSuismK2qey4wU/92NVfq+oYTudvyggfQgDAEcouzUq6ttFIYGr76tmSXz+U3PyMJL1pgxJnefpZnS/ckOXNTansB6R6I8TdvnGeT6eNQpM72fOSlpo8GuEAQSNIGIikiijVCXa4YSJy3zmmTrJNyS9siJOalbUxTWWakoSLIncjo/TRZY6hulGk527KlbA7DADgdErOyHTKkfL9gBRhZUuqiSm5PMjH/6gsb9zni5B9NSVSe1sCfnGkECQMQvaS5BI1KYaGlBVZ1jnxqZyVyNRVTNZW1Ss/JQn1L5f3PluvzgnT7NLNxnd7iUPizteUNNugiyuLhYjqOOoC1KUs1nYVF+VKNnjDdBFe87sB259d9P39tpRmjiHlXlmRuzV1jILuFD1uX996XF7f59lxbx8AjJDkhbQknGpIJtm+PKqJpF9teXa0PMfWijPeH3z3bO/V+oyLtbw+xF3euM8XLik6RqiOejGCQpAwAFcupsQpb6lTKcL+pmyrRGbmQvNiryx7VVpaqvLYrw658yYCrrcHSHR/Isedr0GXnlyXaV2PvrAZvu3qRljSidPDDSl2WQ1LF+HdVReladsQtP0qwT6/cEuq6q1uFOSv+nSUKvpOkTov1hrH2L6+xFheX+fZcW8fAIyiwwPvTYiJSe+NRz/H/PdkX7sAc88ubUjVccKfcb0ur19xlzfu8wXJXhqLqkYaQULfsjKZcGTvYeeE6uMnjiQyF7xPA2KCD8f7oG4o3Z6VcefTkrpBznXJ7N2SfGT7A/U93SBYN3JW3/NXgfRXwwpKZ1but5e8WLyLMKh08Mg8PlB7akLONtYp/vbFM+7LA4ARFZGI1M/+QOo5nC9VJZNvLclV9978rMjOjfA673GW14+4yxv3+QIkJydUsupg5KsaaQQJ/UpOSkvHP8eusnyjkRscekMJEGu+c7qHnFmVQNf5H+e8icGSMzmTkF8NzemvyP2yI+mLAY2CvJKXwOo9SlelN0esr+2LYdyXBwCnjg4U1g8lM78obg1OFSAUcyPfK85p9lomIc7eQ+/TaCNIQA9Uon1u0vTeVFyvSiI3a+pRhiUQz51V4VPt7ciE/P7DqjiJtLwW8CNuaUJL9R4tu2jagGyHJl6PR7/b16txXx4AnEq6F50dkav5RTdA2LlDgDCqkjOS6bJ2ySggSDhuneq9DTVdd9JtoFyvblKVKSlE1TfRvTr5GmC1vUxj2hD7m7LnpGS6pdHWUPUa0M/2xTHuywOAMWMyXDqpbElZPe/SiUN5FNoLSHe6Wt4AxV3eOM5XbwT9YDxiBIKEvpmErN0gOVjSLYJ68tj7PA4qsrymc/sj6qWbxsduY9fwV3jj7Hs7NUnkLjVLE0yD65Cuyo7aOV217FCe+Ne1z+3r2bgvDwBGUWIyutplZAah2xGIbudXLE/IdEQJfUNfy4sh7vLGfb4W9apG4/JIJEgYAJOQzVyIPsFMN6njUwTVYNoOiKmX3qreG1DkfumksmJyV+qlCdnLU5KolU8kUdpagjGQ7evBuC8PAEaRqXYpEyHVLrMdusNsBgi6FyM94NnqXloKEYFCf8vrXdzljft87XRHNrrN8vik8wgSBkH3oX8YUe1G9wY0pxva3glO3O7rXnMSMhnaDjjwzG04uXESXKbtQGKq/Te8BP5C1DgGyRkpRfXRrzRKE9R+7P5iHbCgEowBbV/X+l1er+fZcW8fAIwir6ONwBoFeuRdZzekJz4dIFxrBAh1OlAoRgUKsZcXU9zljft8rfR3j7vXxSNGkDAgleVbUp6YldLSjNdDgStp+pmflURtI6I//4o7WMdcvXcDV1Iliq+ohHxp9Xr4gGEm8VqvL3ec4yT4mAsseLCRe4UNcTK6P329X6yNk+yM2we/dCoZ8OpqTs/nzMV6vA26kt4xTIuz3l6tZiDb14P+ltf7eXbc2wcAo6iyrO6Vueuy5Lu5JrMzUpqbkPJa0FhCejBSHSDcCUwb1AOFhZBAoffl9Sfu8sZ9Pr96bYNuvjsqnnkllf7Ie3/szpw5Y/5/+vSp+X8c6ITTdC6lkt0ex5Hyzh2510VDpOzMTTWvHhPXowdS2avKo4eb4aMZK7pE4KpJ8OuBV7rvzrTb+fQIyGq1LI7uO99/Y1MJ6TXdp76mEvL+gWE0s18yar80N06cWlW270dvW4P3+3pgmYEHCf51D+A4NdleixhRWult+7KytKq7ke2kJncX1HK9T3797M8451nfxw8Axp2uNTCv7u31+6R6dpTVs6M9EyXgGaDbf3kPNz3i8lXrkRTyLOh6eZ4OzzrDtx5tel1e3bjP59Fppcmd8eq6liDhCJgLfGJXilEjEaM35uYmUlQ3SvYpAADA0aK60YAlZ3TuvHqTmJKCru9fXJQrpvhK1z1Un/up/H9qqX03BIOnAQAAnBaUJAyQW4JQk/LOljyo7JsEra7PvjDnVj9yaruyen9T9knp9sYrRQiregMAAIDBIkjA0NPB1/STljYQAAAAODIECRg67Y22mtoaTAMAAGDgCBIAAAAAWAgSMPr0gF75qWaXnj2gZAIAAKAdQQIAAAAAC12gAgAAALAQJAAAAACwECQAAAAAsBAkAAAAALAQJAAAAACwDGXvRi+//LL3zlX/O9OZrjHdxXQX011MdzHdNWrT605q+Uxnujbu0+u6nY+SBAAAAAAWxkkAAAAAYKEkAQAAAICFIAEAAACAhSABAAAAgIUgAQAAAICFIAEAAACAhSABAAAAgIUgAQAAAICFIAEAAACAhSABAAAAgIUgAQAAAICFIAEAAACAhSABAAAAgIUgAQAAAICFIAEAAACAhSABAAAAgIUgAQAAAICFIAEAAACA5ZlXUumPvPfH7syZM+b/p0+fmv9PrWRWSvmc7JVuyL19bxoAABghSbmydE1yqYT70alJeW3lCJ/rMZeXTEr2wiWZzqQkIbsyX9j0/tBJ3O0b7/mS2RlZuDglCW82Pd9dNV+l4/KGH0HCgGVnFmU6py88jz7JdrbkXtTZkpxRQUJ6aIOEK8XbkmtskMsp35L8pruyyZmbUvB/obYh88sV78MoUDeG4vW2bWxy1GEsy6rapjG45gEAA5eVpdVZkfVbsuw975PZRVmYmziiZ3vvy9PP6oWMeqLtVeXRw4fy+MI1KWSqXQYJcbdvvOcz6Z/MoRUUmKBhbnjTdL14diKR+Nfe+2P30ksvmf8//PBD8/9oUydYMS8XJ6vyH3/v38kf/OH3ZGvre1L9q0/Jl+bm5Nd/5X/Jmw9+5H23xS/9Q/n1LybE+S9/In/2gTdtiPzZm2pbqs/L57/4i/JfS/9K/q3atjffaa7oB+/8iVTf+xX5orr5lPXf/3PIdg6tDwK3UR8/86q+K5/4P/4vuXbpV+W9Nx/IqG0dAOBoZZfU8/9wQ/Kb/8Obop4sP3ogb773q/Iv/9mnpPrmO+pJMzhxlqef1W+++Sfy4J135EcffKCSHv9YvjjpyJb6bidxt2+s50vOyP/nakL+q0rz/f98wcAHP3pHfvDcP5Zr058IXd6ooE3CQOic6FlJqxNMR+T1aFLbr2xKfmFDnNSsrC1lvanjxUTSF0XujkHUHGh/X+4t35C7hymZnkl6EwEAUFRicTrlSPl+QAl6ZUuqiSm5PMjH/6gsb8znS15IS8KpBqZ79h9WxUmk5bURTzIQJAxC9pLkEjUphlaxqchyaVcFCjm54jthsku3ZW1VvfJTklD/cnnvs/W6ac0TJLt0s/HdXuKQuPM1Jc026OLKYiGi/p26AJeK/m1Sr+KiXMkGb5iu3tT8bsD2Zxd9f78tpWNKuD9+4kgic8H71JRMZuXK0qKU/OtdVOsduH26SLP+vUX1yafr7dL7/aaU/N81+9P97dBj2eNxAAB0FpVYVMlFeVQTSb/acmNuud+vFWe8P+hns2+6erU+C2Itrw9xlzfu850GBAkDcOViSpzyljqVIuxvynYtIZkLzYu9svyGzC+olw4g1L9yyftsvTrkzpsIuF6ZPtH9iRx3vga3Hv+0uKUnoauoboQlHQQdbkjRt33FnQPJzF2XUkCK9l7hDbmrLkrTtiFo+ysravotqaq31fU3pN424kSo7SvkZyUjB7K9dsu3fYeSU9vXvnkqYNTfWdcb2MJsl55/w2xbsKQKBK7L1YmqbPv2Z35tS+TVnKS9b7WJcRwAAF06PPDehJiY9N549P3e/+z3tQswaYOSeg44Tvgzrtfl9Svu8sZ4vnppQWBG7rlJE3g8OMHkySAQJPQtK5MJR/Yedj4TwnKi+2KCD8f7oG4oj8JKM1rEnU9L6hzr65LZuyX5yAbK6ntzKRHdyFk3+vXtIn81rKD0aeV+e8mLJXtJJYhrElQ6eDSS8lomIc7eQ++zx0vY55d1NbPmBu6r6TrQSV9s5g4NhNlu9VBZs6u1uVWiyiHBRfzjAADoQljiU9HP/kDqOZwvVSWTby0xV/fs/KzIzg0JfcTGWV4/4i5vnOfTx2/9UDLzM7rDKB91/HQVbPWc7pwyHG4ECf1KqmjRe3tSKss3vJzhiBtKgFjzndM9Mc2ahKoj57yJwZIzOme7JquhOf0VuV92TEK6LRbwSl5ygRUIuyy9GRRTneia5GQ3YlvaVXQZZWJS3S4GqPK2VB23RMq+KWluKUXrsezrOAAAjk4jobkobs1PlcAs5kTW2+/lGEKVLdk+TEth3qsCXNT/z0pibyu8CvYIIUhAD1SifW7SVHMprlclkZs19SjDEpbnzqrwqfZ2ZEI+qnGPW5pwvj2RnV00bUC2j6SaUUDbkHxOJp+Uo6tVHRsVCBRuyfbZa7LgW8+SujEtzQSHI/0eBwDAEaqsSH5H5Gp+0Q0Qdu4QIIwEr9r1kzsqfXBD8jrT1fx/S/Yy41GNlyDhuHWq9zbUdN1Jt4FyvZpKVaakEHUh6F6d/Anu1pdptB1if1P2nPYehbKvpkyi92juoUFtQ27I8mb40vTYGFajZfO6KaWLaj2PxL4pBTI3JO+VL9yRR2dz4UFbP8cBABCbyajppLIlZfW8SycO5VGfWdBdLW+A4i5v5OfzOq1pL6Xfl3s7NUkEZXKOGIKEfpmErN0gOZhXp/3JY+/zOKjI8prO7Y+oz24aH/sT3EGv8MbZ5kLLXWpeaFFdlR07nYtwW65mRPZ2bknR2qY7sroX0Dj5yLiBQzksaOvzOAAAIiQmQ0vVjcgMQjdHWrfzK5YnZDqihL6hr+XFEHd5YzxfcnJCxDkILqXXVYMlJaPeKRJBwgCYhGzmQvQJZiLO7ho4jxTTdiC4ga6pk68i6cj90kllxeSu1EsTspenJFErD0ViNjlzzeQi3C2smBG17VVSn0PuRUfpwZ7T1gBrIMcBABDIVNeUiZDqmlnRhd/hnYM0AwTdi9H+5g1Z3UtLISJQ6G95vYu7vHGfzwgLOgxHDkY8X5ggYRB0TzaHEdVudG9Ac7qh7Z3gxK1KTTqSkMnQdsCBZ27DyY2T4DJtBxJT7b/hJfAXQvv7V5IzUgoaC8GnUZqg9mPkxXoSnIOQak/qxh+3ulH2fGjVH11yETUuhCkWbb1pDeg4AAACeB1tBNYoUPfztLMb0hOfDhCuNQKEOh0oFKMChdjLiynu8sZ8PhNcTISUQJhObQ7pAhWuyvItKU/MSmlpxuuhwJU0/dPPSqKmh/sOO1sq7mAdc/XeDVzuIF26pfz18IThiY2T4GMusODBRu4VNsQxDXj0frE2zq3Ln58S6VQy4NXVnJ7PmYt1WBp0mRuECo5KM1nfTcLbLt1FrAr9QtW3yTqu3iBpFye8z8ESObdBVGvvRtmZm3I1VZO7ATtoIMcBABCosqzuserevOR7iCezM1KamzBdVrffWvX9XgcIdwLTBvVAYSEkUOh9ef2Ju7yxnk+lfXSpjzlGzdlM2m1pPi3O+kro8kbFM6+k0h9574/dmTNnzP9Pnz41/48DneCazqWaOcGOI+WdO6Y6Sic6kTed02Mve/RAKntVefSwpU/8FjphedUk+PXAK913Z9rtfDr3Wq2WxdF97vtvbCoYWtN98WsqIe8fGEYz+yWj9ktz48SpVWX7fvS2NXi/rweWGXyQ4Bb3tm6jSyW6F1bCG0mrYGtpfkrSvnmd2q67Xed8+0S3CWhdcXMjmW3O2zhXzsnSqu5mVk+z96U+FjrXafXggly+mFbzNmY2+3NVLdc/DkKrvo8DACBY2z29phKYKwGZL+p79Xt8ne8ZoUdcvmoVRIc8h7pensf/nA4T9Kyq63V5dWM+n84MXlD7tT6bnu+umm8cnqkECUfAXOATu1Icii4zx4S5uYkU1Y2SfQoAAHC0qG40YElT5UO9SUxJQdf3Ly7KFVN8pXOr1ed+Kv+fWm79/mMbPA0AAOCUoyRhgNwShJqUd7bkQcXt7cZfDKWroXSqDoIAXilCZLUfAAAADAxBAoaeDr6mn7S0gQAAAMCRIUjA0GlvtNXU1mAaAAAAA0eQAAAAAMBCkIDRpwcCy081ux/rASUTAAAA7QgSAAAAAFjoAhUAAACAhSABAAAAgIUgAQAAAICFIAEAAACAhSABAAAAgGUoezd6+eWXvXeu+t+ZznSN6S6mu5juYrqL6a5Rm153UstnOtO1cZ9e1+18lCQAAAAAsDBOAgAAAAALJQkAAAAALAQJAAAAACwECQAAAAAsBAkAAAAALAQJAAAAACwECQAAAAAsBAkAAAAALAQJAAAAACwECQAAAAAsBAkAAAAALAQJAAAAACwECQAAAAAsBAkAAAAALAQJAAAAACwECQAAAAAsBAnASUvOSGn1tqwtZb0JAAAAJ4sgAQAAAIDlmVdS6Y+898fuzJkz5v+nT5+a/0+tZFZK+ZzslW7IvX1vGk4PXZKQn5JEbUPmlyvexCPAeQYARygpV5auSS6VcD86NSmvrRzh/Tbm8pJJyV64JNOZlCRkV+YLm94fOom7fWM+n3qGL81PSdqbrfvlDT+ChAHLzizKdE5feB59suxsyb1KxNliEonpoU28XSnellxjg1xO+ZbkN92VTc7clIL/C0ed2B04dWMoXm/bxiZHHcayrKptGulrfsjPMwAYXVlZWp0VWb8ly97zPpldlIW5iSO65/a+PP2sXsioJ9peVR49fCiPL1yTQqbaZZAQd/vGfD4vk0+ne+pphGQyK69dzsnkoxvqt9yvjapnJxKJf+29P3YvvfSS+f/DDz80/482dYIV83Jxsir/8ff+nfzBH35Ptra+J9W/+pR8aW5Ofv1X/pe8+eBH3ndb/NI/lF//YkKc//In8mcfeNOGyJ+9qbal+rx8/ou/KP+19K/k36pte/Od5op+8M6fSPW9X5EvqptPWf/9P4ds59D6IHAb9fEzr+q78on/4/+Sa5d+Vd5784GM2tY1DPl5BgCjKruknv+HG5Lf/B/eFPVk+dEDefO9X5V/+c8+JdU331FPmsGJszz9rH7zzT+RB++8Iz/64AP1SPjH8sVJR7bUdzuJu33jPt+V//fvSObdDfkdFQ3U//7BBz+SP3vwJ5JcWJRfGuU0g0KbhIHQOdGzklYnmI7IvSDU2K9sSn5hQ5zU7Ng2TDUlCRdF7kZG6SNsf1/uLd+Qu4cpmZ5JehMBAFCSMzKdcqR8PyDbuLIl1cSUXB7k439UlncK5sskQuZTHuxNjHyagSBhELKXJJeoSTG0XKkiy6VdFSjk5IrvfMku3ZY13auNro+u/uXy3mfrddOaJ0h26Wbju73EIXHna0qabdDFlcXCihUcWdSFtFT0b5N6FRflSjZ4w3T1puZ3A7Y/u+j7+20pHdNF+PiJI4nMBe+Tq3EMzWtR6rtRVzszPRbp9VuaUXuqlS7a9M+rXh0OQnNZ7nL8y9Cvkpo/aE8M6jwDALRLXkhLwqmGZJLty6OaSPrVlvt7y3NsrTjj/cF/r3dfrc+4WMvrQ9zljft8cm5SPVEP5UngfGrOg8O2NMOoIUgYgCsXU+KUt9SpFGF/U7ZrCclcaF7sleU3ZH5BvXQAof6VS95n69Uhd95EwPXK9IngEzlI3Pka3Hr80+KWnoSuoroRmka5hxtS9G1fcedAMnPXTcK21b3CG3JXXZSmbUPQ9ldW1PRbUlVvq+tvSL1txEloHMN1vcKa3i+3Zfrsgax627stU1Jo204VOHr7Qr/M9nZglmWWMyHTLcuYL22IMzEbsJwBnWcAgHCHB96bEBOT3huPfo7578m+dgHmnq3u6VXHCX/G9bq8fsVd3jjP9/hAHb0JORuSwZacnFDJq8lG5uEoIkjoW1YmE47sPeycwgrKie6bCT4c74O6oTwKK81oEXc+Lalzwa9LZu+W5CNb5ajvzaVEdCNn3aDHt4v81bCCMtAr99tLXizZS5KWmoSU8h2BpLyWSYiz99D7HEQn3q95+0UFTt72Vu6rm/0T9/1gqOCuZRlqh8rymt5nwfsTAHCEwhKfin72B1LP4XypKpl8a0muenbmZ0V2Ihq+xlleP+Iub5zn238oe05CckF1kVQ66bJuJB4RRIwCgoR+JXVx08mqLN9o5AZHptlbxJrvnG7JP6sS6Dr/45w3MVhyJmcS8quhOf0VuV92JH0xoDqOV/ISePEpXZXeDIq62E23aLIbsS2aCiJ27rTn+ugE/OYgo5mabAetx77O1dAZFyN8RwKA00QHCuuHkplfFLcGru4EJSey/sbI94wz/vbl3o6bOdes7pt0qwLP5+TRjq7vMNoIEtADlWifm5Tt0htSXK9KIjdr6lGGJUnPnVXhU+3tyIT8/sOqOIm0vBbwI25pwvn2orrsomkDEphQ7ltAnf18TiaflKOrVRk1eRTaMAMAgACVFcnviFzNL7oBws4dAoRRoWtF1Kv7mjTDdbcq8NoNqcjJZyL3iyDhuHWq9zbUdN1Jt4FyvbpQNbC+vY/u1cmf4G59mca0IfY3Zc9p71Eo+2rKBB9Hcw8NqrN/Y8AlAQCA08JkmHVS2ZKyet6lE4d9ZzZ1tbwBiru8sZlP1xYoNNMM9arApk1CRMPmUUCQ0C+TkLUbJAfz6rQ/eex9Hgdd1IM3jY/9Ce6gV3ij2Xs7NUnkLjVLE6K6KgMA4CQkJkNL1Y3IDEK3IxDdnq1Y1m3bwkvoG/paXgxxlzfu80UwwcWRZWgeD4KEATAJ2cyF6BPMdJPaXQPnkWLaDohpV9CqovsNS52P3i+dVFZM7kq9NCF7eUoStTI98QAAhoKpNisTgdVmdRsDXfgd3jlIM0DQ7dn2N2/I6l5aChGBQn/L613c5Y37fJFMhmaM+YYMQcIgqITs3cOIaje6N6A53dD2TnDi1jQ4TchkaDvgwDO34eTGSXCZtgOJqfbf8BL4C1HjGKgLqdShj/5GaYLaj7EuVrj6PM8AAAG8jjYCaxRkz0va2Q3piU8HCF6PeL42djpQKEYFCrGXF1Pc5Y37fGF0mi8/ZXp2HPW2JQQJA1JZviXlCd3CfcbrocCVNOMEzEqipof7Dsv+rriDdczVezdwJU2vOjdVIvp6+IBhJzZOgo+5wIIHG7lX2BAno8dD0PvF2ji3BwB9IXUqGfDqak7P58zFSoOuuPo4zwAAoSrL6lmXuy5LvptrMjsjpbkJKa8FdXqhByPVAUJAj3hKPVBYCAkUel9ef+Iub7znU8fQ933NTfPl3K7fj6RzleP1zCup9Efe+2N35swZ8//Tp0/N/+NAJ3ync6lmY1zHkfLOHbnXRUOk7MxNNa8eE9ejB1LZq8qjh5vhoxkrukTgqknw64FXuu/OtNv59OBgarUsTusFoEeP1GMiaCoh7x8YRjP7JaP2S3PjxKlVZft+9LY1eL+vB5YZfJDgFve2bqOrJncXVoLrFOpSkKiG10bQ/FlZWtXdyHbinzdgHXV7j/rO8O9/LeAY1MU9zwAAEXQO8ry6t9dvrk5NJTBXAjLBAp4Bvvu5HnH5qu92Hvoc6np5ntbnRBD/c6VVr8urG9v5suq5PNt8LptnaVnuP7THhRplBAlHwFzgE7tS7NhlJrpmbm4iRXWjZJ8CAAAcLaobDVhyRufOqzeJKbfP3OKiXDHFUTonWH3up/L/qaX23XEOngYAAHDKUZIwQG4JQk3KO1vyoLJvErS6ftrCnFv9yKntyur9zbEphjo2XilCaLUfAAAADBRBAoaeDr6mn4xHIyAAAIBRQJCAodPeaKuprcE0AAAABo4gAQAAAICFIAGjr6uuSINRMgEAANCOIAEAAACAhS5QAQAAAFgIEgAAAABYCBIAAAAAWAgSAAAAAFgIEgAAAABYhrJ3o5dfftl756r/nelM15juYrqL6S6mu5juGrXpdSe1fKYzXRv36XXdzkdJAgAAAAAL4yQAAAAAsFCSAAAAAMBCkAAAAADAQpAAAAAAwEKQAAAAAMBCkAAAAADAQpAAAAAAwEKQAAAAAMBCkAAAAADAQpAAAAAAwEKQAAAAAMBCkAAAAADAQpAAAAAAwEKQAAAAAMBCkAAAAADAQpAAAAAAwEKQAAAAAMBCkAAAAADA8swrqfRH3vtjd+bMGfP/06dPzf+nVjIrpXxO9ko35N6+Nw0AAIyQpFxZuia5VML96NSkvLZyhM/1mMtLJiV74ZJMZ1KSkF2ZL2x6f+gk7vaN+3zjiyBhwLIzizKd0xeeR59kO1tyrxJxliVnVJCQHtog4UrxtuQaG+Ryyrckv+mubHLmphT8X6htyPxyxfswWtqPnyPVvbI8OjsrV+UEt8ucI1PN9Wqj1rNcluXN0dzvADDasrK0OiuyfkuWved9MrsoC3MTR/Rs7315+lm9kFFPi72qPHr4UB5fuCaFTLXLICHu9o37fOONIGFg1AlWnJW0isrvrm2Kd46pk2xGnWRTJuGcD0tgDnmQYHRYR30xFdTFVB7ZiympgqHrklPHr6iO3379+CWzcnleHVedOh+G4Eft57U5kbsLK9K6Jtml2ycbyADAKRV6/9X37IsHUlQJ8UE+GgexPJPB12WQEHd54z7fuKNNwkDoBKZKSB6qE0ydSPUAQduvbEp+YUOc1KysLWW9qePF3GguqoTrKEfb2UuSS9TcG4H/+O1XZLmwIVXv8zCrLN+SqjrPxvQ0A4DhlJyR6ZQj5fstCUytsiXVxJRcHuR9eVSWN+7znQIECYNQT2C2RqANKqFZ2lWBQk6uJL1Jio5c11bVy1QjSUgu7322XjeteYJkl242vttLAjHufE1Jsw06J6JYWLGCI4u6AJeK/m1Sr+KiXMkGb5iu3tT8bsD268je91ulmQ47qAvJyQkR5yAkp6Aij2reW5/+11Pvv5tS8n/H7Bdd7Hk7xjHZN+uZfjVkxh6PQ0NS19Osnyvuq7Q0o9Ze/2Rz+iCOAwCMmuSFtCScakgmWch9ueX5sFac8f6gn82+6erVem+Ntbw+xF3euM+n6doGV5YW1bPbd8yKKj3Q6bk6IggSBuDKxZQ45S11KkXY35TtWkIyF5onTmX5DZlfUC8dQKh/5ZL32Xp1yJ03EXC9pnoi9ERuE3e+Brd6zrQunosqhlM3QlOX/nBDir7tK+4cSGbuukpsti/3XuENuasuSlO9J2j7Kytq+i2Tu19df6PRNqJviUkJ2wvmWLUEgf2tZ1IFAtfl6kRVtn37Jb+2JfJqTtLetwYmxnEw1HlSyl+TyUd3GvPobdpWa1hYXZTX9HecXTN9YMcBAEbN4YH3JsTEpPfGo58P/me/eo7WmedNaUOquk1c2DOu1+X1K+7yxnk+9Vwt5GclIweyvXar8Yws7hxKTj1X42W+DheChL5lZTLhyN7Dzgmkx08cSWQueJ8GxAQfjvdB3VAehZVmtIg7n6YiZ53AzezdCm9nYajvzaVEdCNn9T2rGo+vGlbQhVS5317yYsleUsnUmgSVDsaxv3lHyk5Krno5AMkuMwFir6eZrh4OvvYrhtpJ95bL8ao3mcBPBSRtxzLucVCBjAosnPUbjYZcrn31ELshxXWRXGuLdgA4jcISn4p+9gdSz+F8qSqZfGtJtLpnq8Sn7Oh7rzepVZzl9SPu8sZ5PpMRqIK4Zf0cbz4j99V0nYGYvtgsHRpVBAn9Sk5G9DhzPHSCzY1gI24oAWLNd07nLOsG2jr/45w3MVhyRueI12Q1NIe5IvfLjrmQ2tLYXslLLqQiYFelNz1RifOCzgGoyuTFa1KoV/3qVGwYdz0rb0vVcUuW2gOSiiyr49L9sVS/kZ2RpfkpEwi0zhf7OOhAxtkNDcT0jVDNBgCISwcK64eSmV8U91GjAoRiTmS9l2cAhk1F11GKqJ0wKggS0AOVGJ6bNNVjiutVSeRmTT3KsCT0ubMqfKq9HZmQ339YFSeRltcCfsTNpT/ffpFlF00bkO0jqN6ic9aXC/Xg6ZYU18oir15TAUNAmwNPvPXUDaJvyfbZa7Lga4tSUkHJ0kyn20pKrtbrPprXdSlcnJRHa8HF0nGPQ/bVlCmCjZrvwR5RAgD0pbIi+R2Rq/lFN0DYuUOAgKFAkHDcOtV7G2q67qTbQLleTaUqU1KIqnine3WyErQtr6i+//c3Zc9JyXRLoy2TeFWJ3qO/h+6b3o3uLd+Qu7q0YD4kIIq9nm61nbwJSNxXvnBHHp3NRQZf6kflrm+e4npNJfBT8mpUwU4/xwEAEJvJqOmksmWqvKYTh/IotBeQ7nS1vAGKu7xxmE+PrWQ1Wjavm1K6qJ7/Y4AgoV8mgWg3SA6WlNcyCXGePPY+j4OKLK/pXPSIbjdNo95mgjb4Fd44+95OTRK5S81celPvPqSrsiNULzoMS4cPbj3dwKHcKfjy0dV+8qVdScxF9IjU53EAAERQz4fIVEBkBqHbEYhu51csT8h0ZCaRp6/lxRB3eWM7nz5mt+VqRmRvRx0361l6R1b3dK8mo48gYQBMAjFzIfoEM92kdtfAeaSYOvnBDXRMwjp1Pnq/dGLqvTdz6bOXpyRRKw84MasbYsfpctRnwOtpqvFENKRqY+q11iQ9t9hW7SnucTDzqXWImk8HvgBwmpnqmjIRWG1WP190oXJ45yDNAEFXF93fvKESmGkpRAQK/S2vd3GXN87zJWeumerEdwsrcq+ijps33aU+h8Qio4YgYRBUAvHuYUTOr+4NaE43YL0TnGhUZ5MjCZkMrS4SeOY2nNw4CS5TJz8x1f4bXsJ5oaUajkV3sRlR319r5NKr/Rh2kQ9CVDewZhyFDlWcellPnQMRNa6AKd4My/EIo8/DWkquth6IuMehwyAyepRtOjcCcOqZzLKQGgXZ8xEdQOgA4VojQKjTgUIxKlCIvbyY4i5v3OdzDkLSBOq4Ut0Ifnq02/LErBlkyt8Zjk5I6d6AErWNiH7k3cG6TC6wf14zSIcebOt6eILSVGupp9SOc5wEH3OBBSey7xU2xMnofvj1frE2zq3Ll59Sie8OOe5eXc3p+Zy5WI+sQVeq/fi563lTCrlDudtpwT2uZyLnjk/Q2ruRXt7VVK3z8gK4jajbq3/FOw77ZhDAxJwOIq2dYgLMwpxIme6NAEClAdQ9Vt3T/fdK3etcaW7CdHXd/ojT91EdINwJTBvUA4WFkECh9+X1J+7yxnU+U/qQmFJpM/UM96apOdznqe4iXsbj2fjMK6n0R977Y3fmzBnz/9OnT83/40CfINO5VLMRqONIeeeOKY7qRCcOp3N67GWPHkhlryqPHrb0pd9CJ9iumgS/Hnil++5Mu51P53q35hg7us99/41NBUNrui9+TSWQ/QPDaGa/ZNR+aW6cOLWqbN+P3rYG7/f1wDIx0s4d6OpGsyLrt+TR5CX7+Jn1LMuqWmg3q9nteup9qnOPVg8uyOWLaUk3doy7X1bVfvGPZ2By+gMaF7cdB0WPglzQB2xQx0EFElcuX5NcI6hUc9V21T5Rv62Xlam2LQcATh1da2B+Vt3Pvc9OTSUwVwIywdxnjjVopm435j009IjLV62MaN1ZxUp7rnXXy/P4n9NhfOvRptfl1Y3rfOq5rLseb3xf0c9G8zw959vXUft0yBEkHAFzgU/sSjFqJGL0xtzcRIrqRjnU+3RU1nNATEBCkAAAwNihutGA6USTyQFITElB1/cvLnqDcbkt4df6qfx/arn1+wY7eNpRGJX1BAAAiEaQMEC6BKGQOZTyerM7rOKOSGbuuugBrzKHu1IMbP2CSKZnqKMZPG2gRmU9AQAAOqC6EYaeDr6mn7TXvR82o7Keg0R1IwAAxhNBAoZOe6OtpqCGuidlVNZz4EIav431NgMAcMoQJAAAAACwECRg9IV0D9oNcr8BAADaESQAAAAAsNC7EQAAAAALQQIAAAAAC0ECAAAAAAtBAgAAAAALQQIAAAAAy1D2bvTyyy9771z1vzOd6RrTXUx3Md3FdBfTXaM2ve6kls90pmvjPr2u2/koSQAAAABgYZwEAAAAABZKEgAAAABYCBIAAAAAWAgSAAAAAFgIEgAAAABYCBIAAAAAWAgSAAAAAFgIEgAAAABYCBIAAAAAWAgSAAAAAFgIEgAAAABYCBIAAAAAWAgSAAAAAFgIEgAAAABYCBIAAAAAWAgSAAAAAFgIEgAAAABYCBIAAAAAWAgSAAAAAFgIEgAAAABYCBIAAAAAWAgSAAAAAFgIEgAAAABYCBIAAAAAWAgSAAAAAFgIEgAAAABYCBIAAAAAWAgSAAAAAFgIEgAAAABYCBIAAAAAWAgSAAAAAFgIEgAAAABYnnkllf7Ie3/szpw5Y/5/+vSp+f/USmallM/JXumG3Nv3pmFEZGVpdVbS3iejtiHzyxXvAwDgdEjKlaVrkksl3I9OTcprK0f4XI+5vGRSshcuyXQmJQnZlfnCpveHTuJu33jNl5y5KYWc+x2nfEvymx1/eGQRJAxYdmZRpnP6wvPok2xnS+5VIk6i5IwKEtJDGyRcKd4W73po8F8Y/gvGGOFEcjI7IwsXpyTRPIBSLZfl/uZjubx6XWT9DYnatOzSbbkqBAkAcLq4GUayfks9I7xnY3ZRFuYmjujZ3vvy9LN6IaOeantVefTwoTy+cE0KmWqXQULc7Rvf+XTaKLM33kEC1Y0GRp1g6oS5mjmQ7dIbMr/gvoo7B5KZuy6lpaz3vdFzr6C2pbSrksuOlL1t818U+5s3pLheU++8v49kAjlpLvjCRRWs7dxqHL/5hRvySHKyULzWDPwAAPDJLs1KurbRSGBq+5UVya8fSm5+Rj1hBivO8vSzOl+4Icubm1LZ7y1hG3f7xn2+cUeQMBA6galOsMMNE5H7zjF1km1KfmFDnNSsrI1woBDFlCRcFLkbGaUPt+zSdcmZ46e2wX8AlYq+se4cEiQAANolZ2Q65Uj5fkAGWWVLqokpuTzIx/+oLG/c5zsFCBIGIXtJcomaFENz0CuyrHPiUzm54gtHddWUtVX1yk+pBGhCcnnvs/W6ac0TJLt0s/HdXuKQuPM1Jc026OLKYmHFCo4s6gLUpSzWdhUX5Uo2eMN0jn7zuwHbn130/f22lGb6jPGjbhB1+kbhvR2YHvdLXTKZlStLi1Lyz1tU+ylivsa5Zl6LUj/cunpcyZteWjq9uSUAEFfyQloSTjUkk2xfHtVE0q+2PGRbnmNrxRnvD6336/ZnXKzl9SHu8sZ9viadFrrZeJaaY6ae5R0e5SOBIGEArlxMiVPeUqdShP1N2a4lJHOhedZUlr0qLS1VeexXh9x5k8Ct53EnOpzIPnHna9ClJ9dlWte/L2yGb7u6EZZ0EHS4IcUuq2Hp6k131UVp2jYEbX9lRU2/ZRLt1XW76lMc0TeIun1ZVus9sJpUMfaLoeYr5GclIweyvdasFlXcOZScmi9stsa5ZqqFaW71qumzB7LqLX9bpqQQL1oEgNPt8MB7E2Ji0nvj0c8x/7Pf1y7A3K9LG1J1nPBnXK/L61fc5Y37fHJBlkxaqNp4ls6Xbsn24YRczcfNgB0eBAl9y8pkwpG9h50Tqo+fOJLIXPA+DYgJPhzvg7qhPOoyFRt3Pi2pG/hcdxvsRKaa1ffmUiK6kbP6nr8KpL8aVtBFVLnfXvJiyV6StNQkKvO/W+fOqmCp0w1ioOLvFzdAUg+NZbtOqa47qQOr9MVmblS4CZkuXvOOnwrwvJ+p3FcPpSfuewBAD0ITke6zP5B6DudLVcmoxKT9rFPPiPysyM6N8IypOMvrR9zljfl8idyUqWruf5bqN5XlG1Isq2fyXLPkfhQRJPQrOXniddX1yWii14WIG0qAWPOd0z0xzaoEus7/OOdNDJacyZmE/GpoTn9F7pcdk7BtiwW8kpdcSEXArkpvhlRf+yVCRZeJJia7uCElxNm50547tV+R5c0BRF0AgO7oQGH9UDLz9eopuhOUnHTqSQ/DIryq+f7mHSk7KZnut0r0CSJIQA9Uon1u0vTeVFyvqgh61tSjDDv9TQ597e3IhPz+w6o4ibS8FvAjbmnC+fZEb3bRtAHZ7rOa0Unpd7/0ryaPQhuQAACOle5FZ0fkan7RDRB27hAgjIrIZ/m+PNg7ghokx4gg4bgda7WWQdN1J90GyvVqMdVO9dh1r06+xjxtL9NoO8T+puwFROHZV1Pmwhzpe2gf+8U0Nm5t8Lx6U0oX1X4BAAwVkzHUSWXL5DqnE4d9Z+J0tbwBiru8cZjPefLYezeeCBL6ZRKydoPkYEl5LZMYsxOqIstrOrc/pP68Zhofe415Ql/hjbPv7dQkkbvULE3opieiHpn6hhH1EY9ErP3iNja+mhEzlkPR+u4dWd2rN0oGAByrxGR09dDIDEK3IxDdTqxY1m3Guqhq2tfyYoi7vDGfL3E2utr1qCNIGACTkM1ciD7BTDep3TVwHimm7UBwg1lTRz51Pnq/dFJZser0ZS9PSaJW7tATUW/2N8tSTaQ7djU7KHH3S3LmmqlmdbewYsZysHeB+hxy7wMAHB1TPVQmQqqHZkUXfod3DtIMEHQ7MT3g2epeWgoRgUJ/y+td3OWN+3xGh2e5yRzee+h9Gj0ECYOge5Y5jKh2o3sDmtMNbe8EJ25V6s6RhEyGBqRRp6A6hU9snASXaTuQmGr/DS+BvxDVaCc5I6WgsRB8GqUJaj9GXqyxVWS546iKbi7+QAbE62e/OAch1azU+lHdCACOn9fRRmCNgux5STu7IT3x6eeK19Ocr42dDhSKUYFC7OXFFHd54z6fkQpP+414+0mNIGFAKsu3pDwxawak8g+gkTT94c9KorYR0Z9/xR2sQ3eV5Z/XDJqlB+i4Hj5g2ImNk+BjLrDgwUbuFTbEyeh+//V+sTbOrVufnxLpVDLg1dWcns+Zi/VIGnSphLu+KS+0DWaWVMdQJ9ivS05qcndAC4+zX0xuhwrGSjNZ34PD+77uklaFmgCA41dZVvf0nB6rxnd31s+OuQkprwWNJaQH4NIBQkBPc0o9UFgICRR6X15/4i5v3OdzyrtS9dJ+zUe5fi7flDU9r27H6U0dRc+8kkp/5L0/dmfOnDH/P3361Pw/DnSCbTqXajY6dRwp79wx1UM60SfVdE6PvezRA6nsVeXRQ90nvjctgC4RuGoS/Hrgle67M+12Pp2DrlbL4ug+/v03NhUMrem+/zWVkPcPDKOZ/ZJR+6W5ceLUqrJ9P3rbGrzf1wPLHGmvDzowu5yTjNovzVWtqWO4FXAMs7K0qruD7UQFFwvBN4qe94sK7pbmpyTtOx5Obdf9/jnfMdBtHuo7SpdKRDUQN8LXEQDQBV1rYF49E+o3W/3sWFsJyAQLeHb47tl6xOWrVsFwyP256+V5/M/pMP5nR6tel1c3ZvMlVVqt4CWK3LSQPmbXTMZrc9ZdWVXPZf84SKOIIOEImAt8YleKUSMRozfm5iZSVDdK9ikAAMDRorrRgOkI0+QAJKakoOv7N6qvDLBO+6nj1rcf1cHTAAAARg0lCQPkliDUTNWUBxW39xndJmFhzq1+NC7FT8fOK0WgOgwAAMDxIEjA0NPB1/STljYQAAAAODIECRg67Y22mtoaTAMAAGDgCBIAAAAAWAgSMPq66uIzGCUTAAAA7QgSAAAAAFjoAhUAAACAhSABAAAAgIUgAQAAAICFIAEAAACAhSABAAAAgIUgAQAAAICFIAEAAACAhSABAAAAgIUgAQAAAICFIAEAAACAhSABAAAAgIUgAQAAAICFIAEAAACAhSABAAAAgIUgAQAAAICFIAEAAACAhSABAAAAgIUgAQAAAICFIAEAAACA5ZlXUumPvPfH7syZM+b/p0+fmv/rXn75Ze+dq/53pjNdY7qL6S6mu5juYrpr1KbXndTymc50bdyn13U7HyUJAAAAACxDWZIAAAAA4ORQkgAAAADAQpAAAAAAwEKQAAAAAMBCkAAAAADAQpAAAAAAwEKQAAAAAMBCkAAAAADAQpAAAAAAwEKQAAAAAMBCkAAAAADAQpAAAAAAwEKQAAAAAMBCkAAAAADAQpAAAAAAwEKQAAAAAMBCkAAAAADAQpAAAACA/39795ebNvY2cPyZ67nrTZyp2MIAnYzEEkKjjkR2kLRJpWQLIVWhW0ikSZpkB4nUqiFLQHqbX2ANqK2zgF7Pe55jAzaxDRhDcPr9VCjgYg42ts95fP4BIb/9WSz95z9fuGfPntm/P3/+tH9/WYWKNOtVuWu+k8uevwwAAORIQTb330i16Hgv3a60To/nmK+nTK9QkMraK9koF8WRG9k5vPL/Y5y025eT9Ra+X5YfQULGKrU92ajqAebTg+X6s1y2E46WQs0ECaWlDRI2G/9KdbBBHrf1QepX3pct1N7LYfAN3QvZOWr7L5Zf0vev7P8rr4v2qSdn2wYAWISK7J9siZx/kCM/vy9U9mR3e2VOefv06Wlet1s2+fddR26/fpVva2/ksNyZsDCcdvuWf73H2S/5QJCQGXOgNLakZKLPs9Mr8Y8Vc7DUzMGybguX9bjC5ZIHCdaY76gnxaE5KVp5PSnM9z/dFjnbPZaHv1L/IvDWXAT8RQAA+OwNJYm4iaR5y8sf0jAFziyzxizSszfIJiwMp00vL+sFLWK/5AV9EjJRkE0NEO7NgWIOiH6AoHrtK6nvXohb3JLT/Yq/9GmxJ9RLU8B+AlEzAABTKdRko+hK69NIQVG1P0vHWZd/ssz+85JeXtZLa9HpPQKChCxUXknV6UpjNJIcaMtR88YEClXZLPiLDI1AT0/Mo74ujvlXrfuvQ4/3oXWiVPbfD947TRySdr2hgt0Gjbgbh8eh4CjEnEj7jeA2mUdjTzYr0RumzZuG743Yfo3QA5/VrI3ZQQugzcyaI997vza6UzWY9P+/UTO7xazT3wb7A+j+7P8mCds15f4EAMxPYa0kjtuJuUnWk9uuSOmvkfxgJB/TPKFvUDbwH6N5Qar0ZpA2vbysl9ai03sMBAkZ2HxZFLf12RwSCXpX8qXrSHlteLK3j97Kzq55aABh/rWa/uvQY8zdeRvJ9tvTO5MfkGnXG9AC74FsaDVbUnWauRA2NQi6v5BGYPsa1z+kvH3gF47DLg/fypk5uWz7/6jtbx+b5R+kY552zt8O+kY8Dq/gv/HH/+TEfO/g73YrVS8Y8N+pFw3dtkbLNbt8XQ6r2mbRvNf8/lLcMkHGgbxeuZez/rLqwcPgLcX+BADM2f0P/0mMlVX/iU/zsWDeH2jaYssGzQvpuG58HjdterNKm15e1ktr0ektGEHCzCqy6rhy93V8QfXbd1ec8pr/KiM2+DCFTstcUG7jajNGpF1PFbSN/oGU7z7E97OwzPu2iyLaydm8rxfYRcFmWFHl2vanhzUvIZVXUpKuRNXyLVJl/0CqpsBut89f1te+eieNu5IcRhbcNWPwAyD7W5i4wRxHOiKCrZExy+40llgN7oD0+xMAMEcJhUHN+yOZ63y92ZFyfbTG3Fzr61si1+/i+8GlSW8WadPLy3ppLTq9BSNImFVhdTiS0SNpH70b3L1OLLOPSLXec+3ArB209f7Hc39htEKtagvyJ7F3+tvyqeVK6WXwbrvPFpwdqcY06Juo9mZqRXkdqOIdPnR7IyS1R/T1rlrSiQp2oqoou63EWqOZ9icAYPlooHB+L+WdPfFajJoAoVFloAwsBYIETMEU2rdX5UvzrTTOO+JUt0aa04Q9/8OET93/JRbke1874jol+TviQ7zahBfmkjmismf7gHzJvJlRV8785jvhx4Vt2jQquT1iX1t+uOFmZmnNuj8BAEuofSz1a5HX9T0vQLj+SICApUCQsGjj2q8tNW0i4zWH6Tdv6ch6THMan47qFHl33n/YTtsxbJObomyMdNqq/FW0heVf8ho6y/4EACycvcEzTvuztEx+V3Lu5TZ2FJDJTJRehtKml5f10lp0evNAkDArW5Cd5E5xQf4uO+J+/+a/fgracnSqd/sT2sHbzsdRd+eDj/jO2ZfXXXGqr4a1CRM08XnSZtyfAIA5cFaTm3km3iD0BgLRfn6N1opsJNTQD8yUXgpp08vLemktOr0FI0jIgC3IlteSDxQ7TOpkHZxzxfYdENsOflRbx/8qvkjeL+O0j+3dlX5tQuWfdXHGtN1flH7TnuQhaifv2D5OJvsTAJApmxfISkwzz4po5Xf84CDDAEFHMepdvZMTHfAiIVCYLb3ppU0vL+ultej0HgNBQhZMQfbsPqHZjY4GtK0dbT9GF257P8yB5shqbD/gyCNw4PHmSfDYvgPO+sPP8Av4u3Hj/atCTZpRcyEEDGoTzH5cqpNuTOdqVdnfklJWQU1G+xMAkCE/L4hsUVB5ISX3JmYkPg0Q3gwChD4NFOzIeHGBQur0UkqbXl7WS2vR6T0CgoSMtI8+SGtlS5r7NX+EAk/Bjmu/JU73ImE8/7Y36cZ2f3QDT8EUijdNQb55cpA4sdbjzJMQYE+U6ElDLg8vxC3r+P26X0Ib501AVl+XcaP69NtqbuxU7Um3TB26gr97cPPMBtog7PXKTcIke9PLZH8CADLVPjLXZju3zfC6XKjUpLm9Iq3TqLmENI/QAOFjZNmgHyjsxgQK06c3m7Tp5WW9tBad3qL99mex9J//fOGePXtm//78+dP+fQq0oLZRLQ47j7qutK4/yuUEHZEqtfdmXZ172acTqdx15PbrVfxsxoYtjNoCv068MvlwppOup5OFma8V4upY/cELm84eqWP4K1OQD04Mo+x+KZv9Mtw4cbsd+fIpedsG/M/XiWWyDRIqsj86xKm2+/cT0ZkvX/ub5dERkI4fdJqO2r5OqyVHV8F3etXKwX3Z355hOto53OtTMNzvD9OceX8CALKlrQZ2TH7Svy67XVNQPI64aZNNvjN5er5gPh0n8D0emDa9vmVf77H2Sw4QJMyBPcH1DnLSTMSYjj2JRRrmQsk+BQAAmC+aG2WsUNO78+aJsy6H2t6/sSebthpK7yKb17M0/v9lmX03l8nTAAAAEIWahAx5NQhdaV1/lv9r92yBVvsk7G57zY/c7o2cfLqSHiXd6fi1CJHVrQAAAMgcQQKWngZfG99H+kAAAABgbggSsHQedtoaetBhGgAAAJkjSAAAAAAQQpCA/NMJxOrrw6Fjp0DNBAAAwEMECQAAAABCGAIVAAAAQAhBAgAAAIAQggQAAAAAIQQJAAAAAEIIEgAAAACELOXoRr///rv/zNP/f5azXLHcw3IPyz0s97Dck7flfY+VPstZrp768r5J16MmAQAAAEAI8yQAAAAACKEmAQAAAEAIQQIAAACAEIIEAAAAACEECQAAAABCCBIAAAAAhBAkAAAAAAghSAAAAAAQQpAAAAAAIIQgAQAAAEAIQQIAAACAEIIEAAAAACEECQAAAABCCBIAAAAAhBAkAAAAAAghSAAAAAAQQpAAAAAAIIQgAQAAAEDIb38WS//5zxfu2bNn9u/Pnz/t319WoSLNelXumu/ksucvw6+pUDPHwro4+ty9kZ3DK7sYALDsCrK5/0aqRXsFN9fwrrROj+eYr6dMr1CQytor2SgXTV4zTT6Tdvtysl7a/ZJ6fy4/goSMVWp7slHVA8WnB+f1Z7lsJxydtmBYWtogYbPxr1QHG+RxWx+kfuV92ULtvRwG39C9kJ2jtv9i2ZmLSePgwfZFWmCh3e7TcocgAQByoSL7J1si5x/kyM/vC5U92d1emVPePn16mq/slk1WdteR269f5dvamynymbTbt/zrpd0vs+3PfCBIyIw5MBtbUjJR5NnplfjHpjk4a+bgXLcF53pcwXnJgwRrzHfUk/DQnIStZd6GJOb7n26LnO0eS9SvtOhCO0ECAORHZf9feS0RN8g0b3n5QxrmWp5l1phFetPkM2nTy8t6QWnz36eYb9MnIRN6N9oECPfmwDQHRz9AUL32ldR3L8QtbsnpfsVf+rTYE+OlKWDnNUAAACCtQk02iq60Po0UTFX7s3Scdfkny+w/L+nlZT3EIkjIQuWVVJ2uNEYj14G2HDVvTKBQlc2Cv8jQiPf0xDxsG3RHqnX/dejxPrROlMr++8F7p4lD0q43VLDboJFz4/A4FByFmBN3vxHcJvNo7MlmJXrDtHnT8L0R2693BAKf1ayN2UEZ6F29e3B3YPD7neyJ7j5tatYMfi+zUxO/WUHbTfZ/g/46teR1AABLpbBWEsftxNwk68ltV6T010gmO5KPnTZq/n8E8xbvMZrHpUpvBmnTy8t6iEeQkIHNl0VxW5/NIZigdyVfuo6U14Yne/vorezsmocGEOZfq+m/Dj3G3J23kXO/Qb0z+QmQdr0Bry3/hlbrJVXfmQuh7Yh7fyGNwPY1rn9IefvAFqRHXR6+lTNzMtu+DVHb3z42yz9IxzztnL8d9I3IVkH2zcU5KXiyv9+5ftEV2TCBzcYfP+Skv43NC3FXtuQw7gPM/m/W38jq99Zgn+g2fZGSHJrA6O8//PcBAJbf/Q//SYyVVf+JT/OxYN4fuAll8xaTh3RcNz6Pmza9WaVNLy/rIRJBwswqsuq4cvd1fEH123dXnPKa/yojNvhw/RfmgnIbV5sxIu16qqAdgw6kfPchvp+FZd63XRTRTs7mfb3ALgo2w4oqR7c/Pax5Cam8MsXprkTVKmbjuf93EibYsvvCBEv9bey15ehUtyFq+0wAYgIn9/ydHF0FN6BnMod30ji/H47KAABYfgmFT837I5l8uN7sSLk+WmNu8s76lsi1ySPi8rg06c0ibXp5WQ+RCBJmVVjVIuKj0oKldyc64YISIdV6z/UOuHbQ1vsfyQXpQq1qC/InsXf62/Kp5UrpZUQTG7/mpRrTgHCi2pupFeX1oIpXt3FSXfkStY29H2YfmRBidaSquPZGSu5N7D7vtY/F7BYAwFOngcL5vZR39sRrgauDoFRFzt9OlZ8D80CQgCmYQvv2qnxpvpXGeUec6pZtRxl3s//5HyZ86v4vsSDf+9oR1ynJ3xEf4tUmvLDt/UMqe7YPSGTBfCZdORs0/bmwzZnmQfeLe/fVfxXt/+6IEgDgl9A+lvq1yOv6nhcgXH8kQMBSIEhYtHHt5Zaatp30Oij3mwt1ZD2+3b3SUZ0Gd+cjHv2Jw6L0ruTOLcrGSKetyl9FG3zM9xr6zf+bvT9W/CcAgCfP3jAbp/1ZWia/Kzn3chs7CshkJkovQ2nTy8t6vzKChFnZgmy4Q3K0gvxddsT9Pr/C5+Iltbv32c7H/bvzcY/4ztmX111xqq+GtQlJQ5xlqidH5rsN7+aM78g8qe/3/hMAwNPgrMbWqluJNwi9gUC0n1+jpQNhTDDK3UzppZA2vbysh0gECRmwBdnyWvKBaYdJnayDc67YvgNi+xWMaut4Y8UXyftlHNs+f1ibUPlnXZxuK3nEp7nw+l+M9i9IQztPjevArgElAGD52WazshLZbFb7GGjld/zgIMMAQUcx0uG2T+5KcpgQKMyW3vTSppeX9RCPICELpiB7dp/Q7EZHA9rWjrYfowu3toOrI6ux/YAjj/iBx5snwWP7DjjrDz/DL+DvJs1joEOBRs2FEDCoTTD78Smc5L2rj3ZSl/jDRftc+C8AAMvNH2gjskVB5YUdqCK68lsDhDeDAKFPA4VGUqCQOr2U0qaXl/UQiyAhI+2jD9Ja2bKTYQXnCNMCn44G5HQvEsbzb3uTfGz3RzfwFEyhWCfbap4cxE8Y9mjzJATYEzN6kpLLwwtxyzofgu6X0MZ5k4/V10XG1Qz4bTU3dqr2JM9/h66enVzP2TbBWS24z3RyuvdyuL0ircHwtACAZdc+Mnld9UD2A5l4oVKTpl7PT6PmEtLrvQYIHyPLBv1AYTcmUJg+vdmkTS8v6yHab38WS//5zxfu2bNn9u/Pnz/t36dAC74b1eKwM67rSuv6o1xO0BGpUntv1tW5l306kcpdR26/XsXPZmxowfK1LfDrxCuTD2c66Xo6A/LonW1X5z4IXth09kidE0GZgvyD2Yl1v5TNfhlunLjdjnz5lLxtA/7n68Qy2QYJXlXvpHfuh9sdsZ72v+h/ueD+UBH7xM64/M+b0JwIbvdGTsw+kTUTLPgf/mBfAwCWj7Ya2NmSUv+S7nZNwfQ44iaYed/oMNuB/ENnXH4dyD7Mf8rZ7vHDwTomTs83mi9FCeZjo6ZNr2/Z10u7X2bdnzlAkDAH9gRfuZFG0kzEmI49GUUa5kLJPgUAAJgvmhtlrFDTu/PmibMuh9rev7Enm7baS+88m9ezNP7/ZZl9N5fJ0wAAABCFmoQMeTUIXWldf5b/a/dsgVb7JOxue82P+k1JepR0p+PXIkRWtwIAACBzBAlYehp8bXynXT4AAMCiECRg6TzstDVEJ14AAID5I0gAAAAAEEKQgPzTCdnq68OhY6dAzQQAAMBDBAkAAAAAQhgCFQAAAEAIQQIAAACAEIIEAAAAACEECQAAAABCCBIAAAAAhCzl6Ea///67/8zT/3+Ws1yx3MNyD8s9LPew3JO35X2PlT7LWa6e+vK+SdejJgEAAABACPMkAAAAAAihJgEAAABACEECAAAAgBCCBAAAAAAhBAkAAAAAQggSAAAAAIQQJAAAAAAIIUgAAAAAEEKQAAAAACCEIAEAAABACEECAAAAgBCCBAAAAAAhBAkAAAAAQggSAAAAAIQQJAAAAAAIIUgAAAAAEEKQAAAAACCEIAEAAABAyG9/Fkv/+c8X7tmzZ/bvz58/7d9fVqEizXpV7prv5LLnL8MvpVDZk93tojj+a8t1xb1vSf2o7S/wcbwAwBIqyOb+G6kW/Su525XW6fEcr9Mp0ysUpLL2SjbKmufcyM7hlf8f46Tdvpysl3K/FCo12X25Lo6fnObdreuPctke+0WXHkFCxiq1PdmoBgp7enBef04+WAo1U+grLW2hb7Pxr1QHG+RxWx+kfuV92ULtvRwG39C9kJ3Rgu0Sq+z/K6+L/osRnfO3Mu9N8fafpvXRpDXBAbDkxwsA/Hoqsn+yJXL+YXAd927+rMzpWj19eprX7JZN/n3XkduvX+Xb2hs5LHcmLAyn3b7lX2+W/VLZf2/LD8H820vPLAyUk/KKICEz5sBsbEnJRJ9np1fiHyvmYDER5va6LTg/uCPcl4dC35jvqCfFoTkJW8u8DRPQgKh8t9gTe+o0CRIAYKnYm00ScYPM5I2nL39IwxQ4s7xcZ5GevUE1cWE4XXp5WS9o4v2inxlX7rH59Lq4C7jROE/0SchEwRT0TIBwbw5Mc1D1AwTVa19JffdC3OKWnO5X/KVPiz2hXoqcUWgFAPxqTIFwo+hK61NEabD9WTrOuvyTZfafl/Tysl5Klb+KIt1WdLmndyVfuiKlv7L8IRaPmoQs2GhSpLF7HB+hmoN39O6vjXhjmrkMmQN+TOHbq+7S5j6udM7fTRy1TrVexPc3C81nHMjrlZvk6Nysu7+zLqVgk6WEZljh5k0R22/393DHBZs+zSpVTcKU26dsYDXahmvUSLOtrI4XAEB2xt15jry7PZKPiTtsAz96rR/N41KlF2HSO+Zp08vLeqMm3S/jTJreMqMmIQObL4vmJP6cXIVlo0pHymsFf4EJbI/eys6ueTRvTNFOC3f+69BjTIHPRs79wqYzedSadr0BrT05kA09AcyJFPsVzYVQq9yc+wtpBLavcf1DytsH0oyoXbk8fCtnJgK3heSo7W8fm+UfpGOeap+BRTYNeiDF9qne1bvBe1uulwn0Xw8eIxeWTI4XAED27n/4T2KsrPpPfJqPBa/lgQKpvdY3L6Tj6g28mDxu2vRmlTa9vKyXuYpoRUPnNr8BgiJImFlFVh1X7r6OL5l9++6KU17zX2XEBh+mlGmZC8qkB2Ta9VRBOwYdeHfcEyNk875+5x3zvl5gFwWbYUWVo9ufzMWzWJXNYUwVVnklJelKVK3i4qTfPgDAE5JQ+NS8P5LJh+vNjpTr70fyOpO31LdErhNq+NOkN4u06eVlvUz5TdDdm0cuo8yOIGFWhdXhSEaPpH3Uvys9eVMjlWq959rsSDto6/2P5/7CaIVa1RbkT2Lv9LflU8uV0suaOaVG+DUv1ZgGhBPV3szZTNsHAIAGCuf3Ut7Zk4rNKHQQlKpIzju8/rq8ZthVUzY4S2plkRMECZiCKbRvr8qX5ltpnHfEqW7JaSO+APz8DxM+df+XeJL0vnbEdUryd8SHeLUJL8wlc0RlT6pOV748ZjMjY9btAwBAmx7Vr0Ve1/e8AOFah9P0/w850u+nqQHCsTyFn5AgYdHGtZdbatp20hz4plTcb07TkXU5TGpPo6M6nfwb/9D2/P5bH+hdyZ1blI1auITtjSjwv4WfgNqZSYOikFm2DwDw5NkbSuO0P0vL5Hcl515uYwa8mNRE6WUobXp5WW8yXj9NbyCXpxEgKIKEWdmCbLhDcrSC/F12xP3+zX/9FLTl6FTv9ie0u7edj7VJU9IjvrPt5XVXnOqrYW2C7XBtgpVlaeg34/YBAJ4AZzW2Vt1KvEHoFTC1n1+jtSIbCTX0AzOll0La9PKy3ky8368qY0Z6zCGChAzYgmx5LfnArLyS6oQdnHPF9h0Q2+5+VPvW/EfxRfJ+Gad9bO+u9GsTKv+sixM3LvGCZbJ9AIBcs81KZSWmWem4UW6GAYKOYqQj353cleQwIVCYLb3ppU0vL+vNRvuQPM0AQREkZMEUZM/uE5rd6GhA29rR9mN04bb3wxzYjqzG9gOOPOIHdL4Dr3nL+6lG0km73ijbd8BZf/gZfgF/d6S5UEihJk2TfuwoRsagNsHsx/mc5ClltH1Tm/F4AQBkyB9oI7JFQeVFwig3GiC8eTA3jwYKjaRAIXV6KaVNLy/rpaVlO38i3acYICiChIy0jz5Ia2VLmvs1f4QCT8GOo78lTvciYTz/tuhN6dJ2f3QDT8EcgJumIN88OZBmXEH00eZJCLAnZvTMgpeHF+KWdb4A3S+hjZNKzZtjIHbGwj6/rebGTtWe5MvUoSuT7ZvaDMcLACBz7SOTF1QPZD9wUS5UatLcXpHWaVQBUju5aoDwMbJs0A8UdmMChenTm03a9PKy3tQ0QNCynQkQdE6jqM/VydROZ7kDuwSYcTljWjDcqBaHnVVdV1rXH2Nn3g2q1N6bdZ3Qup27jtx+vbKdhePMe8bl8AzIngezHAdnjzQF+dGZCu1+KZv9Mtw4cbsd+fIpedsG/M/XiWWyDhLsrIj+Vx8rYtvUtNs3SZrjZpJOe7wAAOZAC447W8PZ93Xm/dPjiJtE5n0nOpR4QGCG/Yf5Q1fOdiM6w06cni+YT8cJfI8Hpk2vb9nXS7NftJXAJAOTJO3PHCBImAN7gtse7tlH878sexKLNMyFkn0KAAAwXzQ3ypgOk2nvADjrcqjt/Rt7smmrvbTtYf6rnh6H2XdLMHkaAADAr4KahAx5NQhdaV1/lv9r92yBVvsk7G57zY/c7o2cfLqSHiXd6fi1CJHVrQAAAMgcQQKWngZfG9+T2+cDAAAgOwQJWDpJnXrHdeYFAADA7AgSAAAAAIQQJCD/Jh2KLAI1EwAAAA8RJAAAAAAIYQhUAAAAACEECQAAAABCCBIAAAAAhBAkAAAAAAghSAAAAAAQspSjG/3+++/+M0///1nOcsVyD8s9LPew3MNyT96W9z1W+ixnuXrqy/smXY+aBAAAAAAhzJMAAAAAIISaBAAAAAAhBAkAAAAAQggSAAAAAIQQJAAAAAAIIUgAAAAAEEKQAAAAACCEIAEAAABACEECAAAAgBCCBAAAAAAhBAkAAAAAQggSAAAAAIQQJAAAAAAIIUgAAAAAEEKQAAAAACCEIAEAAABACEECAAAAgBCCBAAAAAAhv/1ZLP3nP1+4Z8+e2b8/f/60f39ZhYo061W5a76Ty56/DAAA5EhBNvffSLXoeC/drrROj+eYr6dMr1CQytor2SgXxZEb2Tm88v9jnLTbl5P1Uu6XginD/bNTlZLjpyeudFof5ehq7BddegQJGavU9mSjqgeYTw/O689y2U44WAo1EySUljZI2Gz8K9XBBnnc1gep+ydAofZeDoNv6F7IzlHbf7Hk7L5fH/5eVlfOdo9FtyBq2zvnbyUvmwcAWISK7J9siZx/MPmDnzdW9mR3e2VOefv06WlevVs2+fddR26/fpVva2/ksNyZsDCcdvuWf730+8UEI40DU0YwQcG5CQoG6dVMeqZckaeyUAyChMyYA7OxJSUTfZ6dXol/rAwOFi041+MOliUPEqwx31FPwkNzEraWeRsSVPb/ldcSf0LbQGjiiykA4FcSm4eYvPH05Q9pmLwjy6wxi/SmydfSppeX9YIm3i/6mXHlnjyU6yZAn4RMaDRpAoR7c2Cag6ofIKhe+0rquxfiFrfkdL/iL31a7An1UuQs5ycDAABTMwXCjaIrrU8jBVPV/iwdZ13+yTL7z0t6eVkvrfax7OzGlHt6P8QVR1af+69ziiAhC5VXUnW60hiNXAfactS8MYFCVTYL/iJDI97TE/OwzV0cqdb916HH+9A6USr77wfvnSYOSbveUMFug0bcjcPjUHAUYk7c/UZwm8yjsSeblegN0yY+w/dGbL9G74HPatbG7KA50MAolH5B20AOl9nlZhtjNhEA8EQU1kriuJ2Ym2Q9ue2KlP4ayWRH8rHTRs3/j0DZwH+M5nGp0ptB2vTyst5cFFZHmjHnE0FCBjZfFsVtfTaHYILelXzpOlJeG57s7aO3Jgo1Dw0gzL9W038deoy5O28j5/6h6Ex+AqRdb8Bri7eh1XpJ1XfmQmjb/N9fSCOwfY3rH1LePpBmRHRyefhWzszJbPs2RG2/jd4/SMc81f4B/b4Ri9S7eme3o+XqqzXZrx9IWVqhbTy5Ftmopw3AAAC5cf/DfxJjZdV/4tN8LJj3B5q22LJB80I6rrZ1j8njpk1vVmnTy8t6WSpUZH/H65MQe+84JwgSZlaRVceVu6/jC6rfvrvilNf8VxmxwYctqRrmgnI74RGZdj2lJ8CJKRTffYjvZ2GZ920XRbSTs3lfL7CLgs2wogrR7U8Pa15CKq+kJF2JqlVcNKdqLgaR23gs9WZHnO09sycAAE9WQuFT8/5IJh/WPKJcH60xN3lnfUvk+l18ITNNerNIm15e1puZlov82h/z2zl3Ef0icoggYVZLUKXUPvLuautd92mOyVTrPdfOONpBW+9/JDe2K9SqtiB/Enunvy2fWq6UXtbkQSzg17xUYxoQTlR7syjuTfw22u0oysYjNIkCACw5DRTO76W802+eagqbjaoIo+jlTFuObHnqg5y1uiLVquw/gXyfIAFTMIX27VX50nwrjfOOONUt244y7jR4/ocJn7r/SyzI9752xHVK8nfEh3i1CS8e3oWv7Nk+IF8eoZlRpPsfiduody8yr0ECADwNWut8LfK6vucFCNc6nKb/f8iZnrSv/FYE1YPcNzcmSFi0ce3llpq2nfQ6KPebC3VkXQ6TzgId1SnQAevB48EcBQG9K7lzH96Fr/xVtMHHslxD3e/f/GcAAITZG2bjtD9Ly+R3JedebmNHAZnMROllKG16eVkvFduKQGxLiTwjSJiVLciGOyRHK8jfZeeJFSjbcnSqd/uj+xVYtvOxVsElPeI7Z19ed000/mpYm5A0xNmM0v42zh85H+MMADAbZzW2Vt1KvEHoDQSi/fwarRXZSKihH5gpvRTSppeX9eZgvn0gFoMgIQO2IFteSz4w7TCpk3VwzpWEaLmt440VXyTvl3Hax/buSr82ofKPjhjQSh7xKQXbJCihsG/vQMRdXFaSL0q6rnv31X8FAHhKbLNZWYlsNqt9DLTyO35wkGGAoKMY6ch5J3clOUwIFGZLb3pp08vLevOy0JqLOSFIyIIpyJ7dJzS70dGAtrWj7cfowu3YSTcij/iBx5snwWP7DjjrDz/DL+DvJnXeKdSkGTUXQsCgNsHsx3md5PbiEjua0ph0zbbHbqOt+Vii/hMAgGzZm2UxLQoqL6Tk3sSMxKcBwptBgNCngUIjKVBInV5KadPLy3op6ZxOsfM02bzflBuux89mvcwIEjLSPvogrZUtae7XQhNoFew8AVt2vNz48fzb3iQfOlRmcF1TKNYJuponB2MOxH60ush5EgLsiRk9Scnl4YW4ZZ0PQfdLaOOkUvPmUJBxNQN+W82Nnao9yefSoctsw0lLpKpD0QV+BP0N9hve7xeXrtu6kDu7jRXdrAHvty+Je368NP0nAADZax+ZvM52VA3kH5WaNLdXpHUaNZeQTkaqAcLHyLJBP1DYjQkUpk9vNmnTy8t6aVye3phCw4GdHDZYvvHyfi3b5H+ehN/+LJb+858v3LNnz+zfnz9/2r9PgRZ8N6rFYWdc15XW9Ue5nKAjUqX23qyrcy/7dCKVu47cfr2Kn83Y0BqB17bArxOvTD6c6aTrabRsvlaIq/MCBC9s5qQ41TkRlCnIByeGUXa/lM1+GW6cuN2OfPmUvG0D/ufrxDLzPOn0YvLPy3Up9b/nmN9P9413F0j35xsbeA1X7cqX04SZqAEAT4feVNrZCuQfXVMwPY64CaZj6utQ4gHaf8/P3HTG5dd+durpytluxM2midPzBfPpOIHv8cC06fUt+3oz7Re94fkqdblv2REkzIE9wVdupJE0EzGmY09ikYa5UC7TPh0GCfzSAADg6aC5UcYKNb07b54463Ko7f0be37zFW17aF7P0vj/l2X23TJNngYAAPDEESRkSGsQDsv30jr/IA1/eM/GtUh5+0BOTw6kfH8jjUx7E/0i7MhQdP4FAABYFJobYelp8LXxfTmb9NDcCAAAPEUECVg6DzttDT3oMP1ItFnZ4WhvbmNZvh8AAMAsCBIAAAAAhBAkIP90Qrb6+nD4sSlw5x8AAOAhggQAAAAAIYxuBAAAACCEIAEAAABACEECAAAAgBCCBAAAAAAhBAkAAAAAQpZydKPff//df+bp/z/LWa5Y7mG5h+UelntY7snb8r7HSp/lLFdPfXnfpOtRkwAAAAAghHkSAAAAAIRQkwAAAAAghCABAAAAQAhBAgAAAIAQggQAAAAAIQQJAAAAAEIIEgAAAACEECQAAAAACCFIAAAAABBCkAAAAAAghCABAAAAQAhBAgAAAIAQggQAAAAAIQQJAAAAAEIIEgAAAACEECQAAAAACCFIALJSqEnz5F853a/4CwAAAPKJIAEAAABAyG9/Fkv/+c8X7tmzZ/bvz58/7d9fVqEizXpV7prv5LLnL0P+aE1CfV2c7oXsHLX9hVmpyP7JlpTs866c7R7L1ClwnAHAHBVkc/+NVIuO99LtSuv0eI7X25TpFQpSWXslG+WiOHIjO4dX/n+Mk3b7crJe6v0yVKi9l8OqputK6wnktQQJGavU9mSjqgeYTw/O689y2U44UmzhsrS0hbfNxr9ij/kAt/VB6lfelx2eFL65FJLnpF+w918+5Eqn1ZKjqyXZnsqenG5LyiBhuY8zAMgv70aOnH+QIz+/L5jr9e72ypyuudOnp3n1btnkancduf36Vb6tvZHDcmfCwnDa7Vv+9WbbL0F+2q0bcapPI6+luVFmzMFhCtOvyz/kS/Ot7Ox6j8b1DylvH0gzx+3ULw/NtjRvTHFZI2Nvu/oBgupdvZPGedc88/8/LwGC6l1JXX8r+/31Dr23fcPHO7n9Y4t+BgCAWJX9LSl1LwYFU9VrH0v9/F6qOzUp+MuykiY9zavrh+/k6OpK2r3pSq9pty8P682yX4IGaX/1FzwBBAmZKMhmwxwc9xc28gwcm+bg1ELohbjFp1vQtDUJL0XOnkDUHKV99EE65vcjTgAAPFCoyUbRldaniBtk7c/Scdblnyzzj7ykl5f1spCUdo4RJGSh8kqqTlcasXfQ23Kkd+KLVdkMhLGV/X/lVEfDsc1dHKnW/dehx/vQOlEq++8H752mIJt2vaGC3QatlmscHoeCoxBz8mgtS2i7GnuyWYneMG3eNHxvxPZX9gL//680a2N20Mx6ctsVKf0VtZO0ejH4fc1j0p1Z0Nqn/m+gD/0ddFuCn7lnXkXRfT+ybsx+yOo4AwA8VFgrieN2Ym6SxeQfI/nYaaPm/0fgmu0/RvO4VOnNIG16eVkvC5V/1kVaH2PSzi+ChAxsviyK2/psDsEEvSv50nWkvDY82dtHfpOWkaY8o81dEg86G732W9Q7k58Aadcb0NqTA9kQr/Yk9iuaC6Ft839/IY0Jm2Fp86YzczLbvg1R298+Nss/SMc87ZyHmz4tngkAA7+X/d6TMPtfOxHL3cfBujvNlshL3Scv7Ft023Yi+x6syEbjjfx1O7Ju+SAyQMnkOAMAxLv/4T+JsbLqP/FpPha8Jgfav9trdvNCOq4bn8dNm96s0qaXl/VmYco5r4td+fKoZZH5IEiYWUVWHVfuvo4/OL59d8Upr/mvMmKDD9d/YS4otxNWdaVdT+kd8JMDKd99kHpi/wPzvu2iia699wWb+gWbYUXdeG9/eljzElJ5JSXpykJq9mxAZQrt0+yjRAXZN4GTe65tIEM7RY4OP8jdStEfxSiOCe5McBFsc2nXPR2zzwAA85FQ+NS8P5L2iWt2pFwfrck1eWd9S+Ta5BFx2U6a9GaRNr28rDeD/o3iRRRHFo0gYVaFVS2yPar20bvB3eBp+gynWu+53gHfMoVYvf/x3F8YrVCr2oL8SWx03ZZPLVdKLyM6E/k1L9WYBoQT1d7MrGDioZrs72g1oo6U4C+elQY47k1MgNOTy+tx1RExdyx6P8xv4shq8s8CAFgWGiic30t5Z0+8FrjaDLUqcv42uzwH81PZk6rcJJRz8o0gAVMwhfbtVTt6U+O8I051y7ajjLtx/fwPEz51/5dYkO997YjrlOTviA/xahNePGyTryelM4+qvaK8DrQDPT05kMOXq3J7mm2TpspfRVslGvuJ37Swn56zGveLAACWjo6+cy3yur7nBQjXWlPs/x+WWMHesOxcJzS5zjmChEUb115uqWnbSa+Dcr+5UEfW5TCpo66O6hQqeI88kuYo6F3JnVuUjZFOW7aQbYKP7K+h4SFQdVhX1ynKX4u+M29rBAAAT4G9YTZO+7O0TH5Xcu7lNnYUkMlMlF6G0qaXl/XiFGpvbC3CUw7oCBJmZQuy4Q7J0Qryd9kR9/s3//VT0G8HnzA8qO18PCx4Rz/iO81q0xun+mpYm2D7ByxmmDE7tnLzRpztf1OO/pTSEjRhAwBMwVmNrVW3Em8QegOBaD+/RksHpoivoR+YKb0U0qaXl/VSsEGHsx5z89MbSXD+oy/OF0FCBmxBtryWfGDaYVIn6+CcK7bvgNh+BaPaOt5Y8UXyfhnHFNT17kq/NkGHGXO6rcWNxGPbi3altB03FOn07H5ZSbiQPSdIAIC8sM1mZSWy2azJtUQrv+MHvhgGCNqsVSf2OrkryWFCoDBbetNLm15e1ktrMHLg6CMwatXjjr44O4KELJiC7Nl9QrMbHQ1oWzvaxoyhO7bDaeQRP/B48yR4bN8BE00/+Ay/gL+bFEnrUKBjxugf1CaY/Zj1ST4R/X27RXmdVXVC4qQuBW9EqHmY8TgDAESwN8tiWhRUXiQMVKEBwptBgNCngUIjKVBInV5KadPLy3qIRZCQEZ2Vt7WyJc39mj9Cgadg5wnYEqd7kRBRtr1JPvRudXBdUyjeNAX55slBfJVV2vkO0q4XxZ6Y0ZOUXB5eiFvWsf91v4Q2Tio1bw4FGVcz4LfV3Nip2pP8Mdr/eZ2os5p1uWcn13O2+5On+ezkagfmWOnaOSCyN8NxBgCI1T4yeV31IHRN19Hxmtsr0jqN6tiqE2JqgPAxsmzQDxR2YwKF6dObTdr08rIeov32Z7H0n/984Z49e2b//vz50/59CrTgu1EtDpuLuK60rj/K5QQdkSq192Zdbcnm04lU7jpy+/UqfjZjQ2sEXtsCv068MvlwppOupzMgm68V4urcB8ELmwmGTvt3wE1BPjgxjLL7pWz2y3DjxO125Mun5G0b8D9fJ5bJNEjQmoyIztMPts8omN/nUHfEYPtMof5Eh4MdRztER0yKpkGBBj6DnaK/g45q8dx+bngIvIi0tL+H/4bBdxuISdNIe5wBABLYa7q5Tg8u6V1TMD2OuAmWfD3XGZdfhyqUk/KQSdLzBfPpOIHv8cC06fUt+3qz7hffw9/NJB1RlsgTgoQ5sAfKyo00kmYixnTsSSzSMBfKp79PzQXuQZAAAACwODQ3ypje0bWRpLMuh9rev7Enm7baS9semtdZtWv/pXhjEc9/8rQlYUc3cuXHUxoICwAA5ApBQoa0BuGwfC+t8w/S8Hu5N65FytsHohNzle9vpEGvmenZkaHmMXnakrKjG93L/1ENBQAAHgnNjbD0NPja+J7vdn2T0o7uu9sr4k7RtwQAACBrBAlYOlGdf/ry3gko6GFnY2PSjlkAAABzRJAAAAAAIIQgAfkXM4zpJJ5SzQQAAEBWCBIAAAAAhDC6EQAAAIAQggQAAAAAIQQJAAAAAEIIEgAAAAAEiPw/uBuYYtj9UJcAAAAASUVORK5CYII=;" vertex="1" parent="1">
          <mxGeometry x="1386.5" y="670" width="667" height="905.64" as="geometry" />
        </mxCell>
      </root>
    </mxGraphModel>
  </diagram>
</mxfile>
